G75*
%MOIN*%
%OFA0B0*%
%FSLAX26Y26*%
%IPPOS*%
%LPD*%
%AMOC8*
5,1,8,0,0,1.08239X$1,22.5*
%
%ADD10C,0.067500*%
%ADD11C,0.170000*%
%ADD12R,0.055039X0.055039*%
%ADD13C,0.055039*%
%ADD14C,0.039622*%
%ADD15C,0.019685*%
%ADD16C,0.016000*%
D10*
X00441811Y00411921D03*
X00329811Y00465921D03*
X00441811Y00520921D03*
X00329811Y00575921D03*
X00441811Y00629921D03*
X00329811Y00683921D03*
X00441811Y00738921D03*
X00329811Y00793921D03*
X00441811Y00847921D03*
D11*
X00385811Y00132921D03*
X00385811Y01126921D03*
D12*
X02004724Y00729921D03*
D13*
X02084646Y00689921D03*
X02004724Y00649921D03*
X02084724Y00609921D03*
X02004724Y00569921D03*
X02084646Y00529921D03*
D14*
X01773622Y00500000D03*
X01588583Y00606299D03*
X01352362Y00456693D03*
X01200787Y00598425D03*
X01200787Y00655512D03*
X01019685Y00604331D03*
X00712598Y00765748D03*
X00566929Y00917323D03*
X00612205Y01039370D03*
X01265748Y00887795D03*
X01503937Y00777559D03*
X01990157Y00944882D03*
X02082677Y00944882D03*
X01722441Y01068898D03*
X01720472Y00092520D03*
D15*
X01722441Y00092520D01*
X01722441Y01068898D01*
X01990157Y00944882D02*
X01990157Y00729921D01*
X02004724Y00729921D01*
X02082677Y00689921D02*
X02082677Y00944882D01*
X02082677Y00689921D02*
X02084646Y00689921D01*
X02004724Y00649921D02*
X01872047Y00649921D01*
X02084724Y00609921D02*
X02352362Y00609921D01*
X02352362Y00291339D01*
X01773622Y00291339D01*
X01773622Y00500000D01*
X01588583Y00606299D02*
X01200787Y00606299D01*
X01200787Y00598425D01*
X01200787Y00655512D02*
X01200787Y00887795D01*
X01265748Y00887795D01*
X01127953Y00673228D02*
X00618110Y00673228D01*
X00618110Y00629921D01*
X00441811Y00629921D01*
X00329811Y00683921D02*
X00329811Y00575921D01*
X00441811Y00520921D02*
X00673228Y00520921D01*
X00673228Y00604331D01*
X01019685Y00604331D01*
X01127953Y00673228D02*
X01127953Y00456693D01*
X01352362Y00456693D01*
X00712598Y00765748D02*
X00675197Y00765748D01*
X00551181Y00765748D01*
X00551181Y00738921D01*
X00441811Y00738921D01*
X00329811Y00685039D02*
X00329811Y00683921D01*
X00329811Y00685039D02*
X00259843Y00685039D01*
X00259843Y00919291D01*
X00566929Y00919291D01*
X00566929Y00917323D01*
X00559055Y00986220D02*
X00208661Y00986220D01*
X00208661Y00466535D01*
X00329811Y00466535D01*
X00329811Y00465921D01*
X00332677Y00465921D01*
X00332677Y00411417D01*
X00441811Y00411417D01*
X00441811Y00411921D01*
X00675197Y00765748D02*
X00675197Y01098425D01*
X00559055Y01098425D01*
X00559055Y00986220D01*
X00612205Y01039370D02*
X00612205Y00847921D01*
X00441811Y00847921D01*
D16*
X01503937Y00777559D02*
X01503937Y01179134D01*
X01872047Y01179134D01*
X01872047Y00649921D01*
M02*
