G75*
%MOIN*%
%OFA0B0*%
%FSLAX26Y26*%
%IPPOS*%
%LPD*%
%AMOC8*
5,1,8,0,0,1.08239X$1,22.5*
%
%ADD10C,0.000000*%
D10*
X00079921Y00025197D02*
X00688976Y00025197D01*
X00691354Y00025226D01*
X00693731Y00025312D01*
X00696105Y00025456D01*
X00698475Y00025656D01*
X00700840Y00025915D01*
X00703197Y00026230D01*
X00705547Y00026602D01*
X00707886Y00027031D01*
X00710215Y00027516D01*
X00712531Y00028057D01*
X00714833Y00028654D01*
X00717120Y00029307D01*
X00719391Y00030014D01*
X00721644Y00030777D01*
X00723878Y00031593D01*
X00726092Y00032463D01*
X00728283Y00033387D01*
X00730452Y00034363D01*
X00732597Y00035391D01*
X00734716Y00036471D01*
X00736809Y00037602D01*
X00738874Y00038783D01*
X00740909Y00040013D01*
X00742914Y00041292D01*
X00744888Y00042620D01*
X00746829Y00043995D01*
X00748736Y00045416D01*
X00750608Y00046883D01*
X00752445Y00048394D01*
X00754244Y00049950D01*
X00756005Y00051548D01*
X00757727Y00053189D01*
X00759409Y00054871D01*
X00761050Y00056593D01*
X00762648Y00058354D01*
X00764204Y00060153D01*
X00765715Y00061990D01*
X00767182Y00063862D01*
X00768603Y00065769D01*
X00769978Y00067710D01*
X00771306Y00069684D01*
X00772585Y00071689D01*
X00773815Y00073724D01*
X00774996Y00075789D01*
X00776127Y00077882D01*
X00777207Y00080001D01*
X00778235Y00082146D01*
X00779211Y00084315D01*
X00780135Y00086506D01*
X00781005Y00088720D01*
X00781821Y00090954D01*
X00782584Y00093207D01*
X00783291Y00095478D01*
X00783944Y00097765D01*
X00784541Y00100067D01*
X00785082Y00102383D01*
X00785567Y00104712D01*
X00785996Y00107051D01*
X00786368Y00109401D01*
X00786683Y00111758D01*
X00786942Y00114123D01*
X00787142Y00116493D01*
X00787286Y00118867D01*
X00787372Y00121244D01*
X00787401Y00123622D01*
X00787402Y00123622D02*
X00787402Y00492126D01*
X00787401Y00492126D02*
X00787372Y00494504D01*
X00787286Y00496881D01*
X00787142Y00499255D01*
X00786942Y00501625D01*
X00786683Y00503990D01*
X00786368Y00506347D01*
X00785996Y00508697D01*
X00785567Y00511036D01*
X00785082Y00513365D01*
X00784541Y00515681D01*
X00783944Y00517983D01*
X00783291Y00520270D01*
X00782584Y00522541D01*
X00781821Y00524794D01*
X00781005Y00527028D01*
X00780135Y00529242D01*
X00779211Y00531433D01*
X00778235Y00533602D01*
X00777207Y00535747D01*
X00776127Y00537866D01*
X00774996Y00539959D01*
X00773815Y00542024D01*
X00772585Y00544059D01*
X00771306Y00546064D01*
X00769978Y00548038D01*
X00768603Y00549979D01*
X00767182Y00551886D01*
X00765715Y00553758D01*
X00764204Y00555595D01*
X00762648Y00557394D01*
X00761050Y00559155D01*
X00759409Y00560877D01*
X00757727Y00562559D01*
X00756005Y00564200D01*
X00754244Y00565798D01*
X00752445Y00567354D01*
X00750608Y00568865D01*
X00748736Y00570332D01*
X00746829Y00571753D01*
X00744888Y00573128D01*
X00742914Y00574456D01*
X00740909Y00575735D01*
X00738874Y00576965D01*
X00736809Y00578146D01*
X00734716Y00579277D01*
X00732597Y00580357D01*
X00730452Y00581385D01*
X00728283Y00582361D01*
X00726092Y00583285D01*
X00723878Y00584155D01*
X00721644Y00584971D01*
X00719391Y00585734D01*
X00717120Y00586441D01*
X00714833Y00587094D01*
X00712531Y00587691D01*
X00710215Y00588232D01*
X00707886Y00588717D01*
X00705547Y00589146D01*
X00703197Y00589518D01*
X00700840Y00589833D01*
X00698475Y00590092D01*
X00696105Y00590292D01*
X00693731Y00590436D01*
X00691354Y00590522D01*
X00688976Y00590551D01*
X00079921Y00590551D01*
X00077543Y00590522D01*
X00075166Y00590436D01*
X00072792Y00590292D01*
X00070422Y00590092D01*
X00068057Y00589833D01*
X00065700Y00589518D01*
X00063350Y00589146D01*
X00061011Y00588717D01*
X00058682Y00588232D01*
X00056366Y00587691D01*
X00054064Y00587094D01*
X00051777Y00586441D01*
X00049506Y00585734D01*
X00047253Y00584971D01*
X00045019Y00584155D01*
X00042805Y00583285D01*
X00040614Y00582361D01*
X00038445Y00581385D01*
X00036300Y00580357D01*
X00034181Y00579277D01*
X00032088Y00578146D01*
X00030023Y00576965D01*
X00027988Y00575735D01*
X00025983Y00574456D01*
X00024009Y00573128D01*
X00022068Y00571753D01*
X00020161Y00570332D01*
X00018289Y00568865D01*
X00016452Y00567354D01*
X00014653Y00565798D01*
X00012892Y00564200D01*
X00011170Y00562559D01*
X00009488Y00560877D01*
X00007847Y00559155D01*
X00006249Y00557394D01*
X00004693Y00555595D01*
X00003182Y00553758D01*
X00001715Y00551886D01*
X00000294Y00549979D01*
X-00001081Y00548038D01*
X-00002409Y00546064D01*
X-00003688Y00544059D01*
X-00004918Y00542024D01*
X-00006099Y00539959D01*
X-00007230Y00537866D01*
X-00008310Y00535747D01*
X-00009338Y00533602D01*
X-00010314Y00531433D01*
X-00011238Y00529242D01*
X-00012108Y00527028D01*
X-00012924Y00524794D01*
X-00013687Y00522541D01*
X-00014394Y00520270D01*
X-00015047Y00517983D01*
X-00015644Y00515681D01*
X-00016185Y00513365D01*
X-00016670Y00511036D01*
X-00017099Y00508697D01*
X-00017471Y00506347D01*
X-00017786Y00503990D01*
X-00018045Y00501625D01*
X-00018245Y00499255D01*
X-00018389Y00496881D01*
X-00018475Y00494504D01*
X-00018504Y00492126D01*
X-00018504Y00123622D01*
X-00018475Y00121244D01*
X-00018389Y00118867D01*
X-00018245Y00116493D01*
X-00018045Y00114123D01*
X-00017786Y00111758D01*
X-00017471Y00109401D01*
X-00017099Y00107051D01*
X-00016670Y00104712D01*
X-00016185Y00102383D01*
X-00015644Y00100067D01*
X-00015047Y00097765D01*
X-00014394Y00095478D01*
X-00013687Y00093207D01*
X-00012924Y00090954D01*
X-00012108Y00088720D01*
X-00011238Y00086506D01*
X-00010314Y00084315D01*
X-00009338Y00082146D01*
X-00008310Y00080001D01*
X-00007230Y00077882D01*
X-00006099Y00075789D01*
X-00004918Y00073724D01*
X-00003688Y00071689D01*
X-00002409Y00069684D01*
X-00001081Y00067710D01*
X00000294Y00065769D01*
X00001715Y00063862D01*
X00003182Y00061990D01*
X00004693Y00060153D01*
X00006249Y00058354D01*
X00007847Y00056593D01*
X00009488Y00054871D01*
X00011170Y00053189D01*
X00012892Y00051548D01*
X00014653Y00049950D01*
X00016452Y00048394D01*
X00018289Y00046883D01*
X00020161Y00045416D01*
X00022068Y00043995D01*
X00024009Y00042620D01*
X00025983Y00041292D01*
X00027988Y00040013D01*
X00030023Y00038783D01*
X00032088Y00037602D01*
X00034181Y00036471D01*
X00036300Y00035391D01*
X00038445Y00034363D01*
X00040614Y00033387D01*
X00042805Y00032463D01*
X00045019Y00031593D01*
X00047253Y00030777D01*
X00049506Y00030014D01*
X00051777Y00029307D01*
X00054064Y00028654D01*
X00056366Y00028057D01*
X00058682Y00027516D01*
X00061011Y00027031D01*
X00063350Y00026602D01*
X00065700Y00026230D01*
X00068057Y00025915D01*
X00070422Y00025656D01*
X00072792Y00025456D01*
X00075166Y00025312D01*
X00077543Y00025226D01*
X00079921Y00025197D01*
M02*
