G75*
%MOIN*%
%OFA0B0*%
%FSLAX26Y26*%
%IPPOS*%
%LPD*%
%AMOC8*
5,1,8,0,0,1.08239X$1,22.5*
%
%ADD10C,0.000000*%
%ADD11C,0.006000*%
%ADD12C,0.003000*%
%ADD13C,0.005000*%
%ADD14C,0.001000*%
%ADD15C,0.004000*%
%ADD16C,0.007874*%
%ADD17C,0.011811*%
D10*
X00000000Y00000000D02*
X02244094Y00000000D01*
X02248851Y00000057D01*
X02253604Y00000230D01*
X02258353Y00000517D01*
X02263093Y00000919D01*
X02267822Y00001435D01*
X02272537Y00002066D01*
X02277235Y00002810D01*
X02281914Y00003667D01*
X02286571Y00004638D01*
X02291203Y00005720D01*
X02295808Y00006914D01*
X02300382Y00008219D01*
X02304924Y00009635D01*
X02309430Y00011159D01*
X02313898Y00012792D01*
X02318325Y00014533D01*
X02322709Y00016379D01*
X02327047Y00018332D01*
X02331336Y00020388D01*
X02335575Y00022548D01*
X02339760Y00024809D01*
X02343889Y00027171D01*
X02347960Y00029632D01*
X02351970Y00032191D01*
X02355918Y00034846D01*
X02359800Y00037595D01*
X02363614Y00040437D01*
X02367359Y00043371D01*
X02371031Y00046394D01*
X02374630Y00049506D01*
X02378152Y00052703D01*
X02381596Y00055984D01*
X02384960Y00059348D01*
X02388241Y00062792D01*
X02391438Y00066314D01*
X02394550Y00069913D01*
X02397573Y00073585D01*
X02400507Y00077330D01*
X02403349Y00081144D01*
X02406098Y00085026D01*
X02408753Y00088974D01*
X02411312Y00092984D01*
X02413773Y00097055D01*
X02416135Y00101184D01*
X02418396Y00105369D01*
X02420556Y00109608D01*
X02422612Y00113897D01*
X02424565Y00118235D01*
X02426411Y00122619D01*
X02428152Y00127046D01*
X02429785Y00131514D01*
X02431309Y00136020D01*
X02432725Y00140562D01*
X02434030Y00145136D01*
X02435224Y00149741D01*
X02436306Y00154373D01*
X02437277Y00159030D01*
X02438134Y00163709D01*
X02438878Y00168407D01*
X02439509Y00173122D01*
X02440025Y00177851D01*
X02440427Y00182591D01*
X02440714Y00187340D01*
X02440887Y00192093D01*
X02440944Y00196850D01*
X02440945Y00196850D02*
X02440945Y01062992D01*
X02440944Y01062992D02*
X02440887Y01067749D01*
X02440714Y01072502D01*
X02440427Y01077251D01*
X02440025Y01081991D01*
X02439509Y01086720D01*
X02438878Y01091435D01*
X02438134Y01096133D01*
X02437277Y01100812D01*
X02436306Y01105469D01*
X02435224Y01110101D01*
X02434030Y01114706D01*
X02432725Y01119280D01*
X02431309Y01123822D01*
X02429785Y01128328D01*
X02428152Y01132796D01*
X02426411Y01137223D01*
X02424565Y01141607D01*
X02422612Y01145945D01*
X02420556Y01150234D01*
X02418396Y01154473D01*
X02416135Y01158658D01*
X02413773Y01162787D01*
X02411312Y01166858D01*
X02408753Y01170868D01*
X02406098Y01174816D01*
X02403349Y01178698D01*
X02400507Y01182512D01*
X02397573Y01186257D01*
X02394550Y01189929D01*
X02391438Y01193528D01*
X02388241Y01197050D01*
X02384960Y01200494D01*
X02381596Y01203858D01*
X02378152Y01207139D01*
X02374630Y01210336D01*
X02371031Y01213448D01*
X02367359Y01216471D01*
X02363614Y01219405D01*
X02359800Y01222247D01*
X02355918Y01224996D01*
X02351970Y01227651D01*
X02347960Y01230210D01*
X02343889Y01232671D01*
X02339760Y01235033D01*
X02335575Y01237294D01*
X02331336Y01239454D01*
X02327047Y01241510D01*
X02322709Y01243463D01*
X02318325Y01245309D01*
X02313898Y01247050D01*
X02309430Y01248683D01*
X02304924Y01250207D01*
X02300382Y01251623D01*
X02295808Y01252928D01*
X02291203Y01254122D01*
X02286571Y01255204D01*
X02281914Y01256175D01*
X02277235Y01257032D01*
X02272537Y01257776D01*
X02267822Y01258407D01*
X02263093Y01258923D01*
X02258353Y01259325D01*
X02253604Y01259612D01*
X02248851Y01259785D01*
X02244094Y01259842D01*
X02244094Y01259843D02*
X00000000Y01259843D01*
X02136811Y00817421D02*
X02136831Y00819088D01*
X02136893Y00820753D01*
X02136995Y00822417D01*
X02137138Y00824078D01*
X02137322Y00825734D01*
X02137546Y00827386D01*
X02137811Y00829032D01*
X02138116Y00830670D01*
X02138461Y00832301D01*
X02138846Y00833923D01*
X02139271Y00835534D01*
X02139735Y00837135D01*
X02140239Y00838724D01*
X02140781Y00840300D01*
X02141362Y00841863D01*
X02141981Y00843410D01*
X02142637Y00844942D01*
X02143331Y00846458D01*
X02144062Y00847955D01*
X02144830Y00849435D01*
X02145634Y00850895D01*
X02146473Y00852335D01*
X02147347Y00853754D01*
X02148256Y00855151D01*
X02149199Y00856526D01*
X02150176Y00857877D01*
X02151185Y00859203D01*
X02152227Y00860505D01*
X02153300Y00861780D01*
X02154404Y00863029D01*
X02155538Y00864250D01*
X02156702Y00865443D01*
X02157895Y00866607D01*
X02159116Y00867741D01*
X02160365Y00868845D01*
X02161640Y00869918D01*
X02162942Y00870960D01*
X02164268Y00871969D01*
X02165619Y00872946D01*
X02166994Y00873889D01*
X02168391Y00874798D01*
X02169810Y00875672D01*
X02171250Y00876511D01*
X02172710Y00877315D01*
X02174190Y00878083D01*
X02175687Y00878814D01*
X02177203Y00879508D01*
X02178735Y00880164D01*
X02180282Y00880783D01*
X02181845Y00881364D01*
X02183421Y00881906D01*
X02185010Y00882410D01*
X02186611Y00882874D01*
X02188222Y00883299D01*
X02189844Y00883684D01*
X02191475Y00884029D01*
X02193113Y00884334D01*
X02194759Y00884599D01*
X02196411Y00884823D01*
X02198067Y00885007D01*
X02199728Y00885150D01*
X02201392Y00885252D01*
X02203057Y00885314D01*
X02204724Y00885334D01*
X02206391Y00885314D01*
X02208056Y00885252D01*
X02209720Y00885150D01*
X02211381Y00885007D01*
X02213037Y00884823D01*
X02214689Y00884599D01*
X02216335Y00884334D01*
X02217973Y00884029D01*
X02219604Y00883684D01*
X02221226Y00883299D01*
X02222837Y00882874D01*
X02224438Y00882410D01*
X02226027Y00881906D01*
X02227603Y00881364D01*
X02229166Y00880783D01*
X02230713Y00880164D01*
X02232245Y00879508D01*
X02233761Y00878814D01*
X02235258Y00878083D01*
X02236738Y00877315D01*
X02238198Y00876511D01*
X02239638Y00875672D01*
X02241057Y00874798D01*
X02242454Y00873889D01*
X02243829Y00872946D01*
X02245180Y00871969D01*
X02246506Y00870960D01*
X02247808Y00869918D01*
X02249083Y00868845D01*
X02250332Y00867741D01*
X02251553Y00866607D01*
X02252746Y00865443D01*
X02253910Y00864250D01*
X02255044Y00863029D01*
X02256148Y00861780D01*
X02257221Y00860505D01*
X02258263Y00859203D01*
X02259272Y00857877D01*
X02260249Y00856526D01*
X02261192Y00855151D01*
X02262101Y00853754D01*
X02262975Y00852335D01*
X02263814Y00850895D01*
X02264618Y00849435D01*
X02265386Y00847955D01*
X02266117Y00846458D01*
X02266811Y00844942D01*
X02267467Y00843410D01*
X02268086Y00841863D01*
X02268667Y00840300D01*
X02269209Y00838724D01*
X02269713Y00837135D01*
X02270177Y00835534D01*
X02270602Y00833923D01*
X02270987Y00832301D01*
X02271332Y00830670D01*
X02271637Y00829032D01*
X02271902Y00827386D01*
X02272126Y00825734D01*
X02272310Y00824078D01*
X02272453Y00822417D01*
X02272555Y00820753D01*
X02272617Y00819088D01*
X02272637Y00817421D01*
X02272617Y00815754D01*
X02272555Y00814089D01*
X02272453Y00812425D01*
X02272310Y00810764D01*
X02272126Y00809108D01*
X02271902Y00807456D01*
X02271637Y00805810D01*
X02271332Y00804172D01*
X02270987Y00802541D01*
X02270602Y00800919D01*
X02270177Y00799308D01*
X02269713Y00797707D01*
X02269209Y00796118D01*
X02268667Y00794542D01*
X02268086Y00792979D01*
X02267467Y00791432D01*
X02266811Y00789900D01*
X02266117Y00788384D01*
X02265386Y00786887D01*
X02264618Y00785407D01*
X02263814Y00783947D01*
X02262975Y00782507D01*
X02262101Y00781088D01*
X02261192Y00779691D01*
X02260249Y00778316D01*
X02259272Y00776965D01*
X02258263Y00775639D01*
X02257221Y00774337D01*
X02256148Y00773062D01*
X02255044Y00771813D01*
X02253910Y00770592D01*
X02252746Y00769399D01*
X02251553Y00768235D01*
X02250332Y00767101D01*
X02249083Y00765997D01*
X02247808Y00764924D01*
X02246506Y00763882D01*
X02245180Y00762873D01*
X02243829Y00761896D01*
X02242454Y00760953D01*
X02241057Y00760044D01*
X02239638Y00759170D01*
X02238198Y00758331D01*
X02236738Y00757527D01*
X02235258Y00756759D01*
X02233761Y00756028D01*
X02232245Y00755334D01*
X02230713Y00754678D01*
X02229166Y00754059D01*
X02227603Y00753478D01*
X02226027Y00752936D01*
X02224438Y00752432D01*
X02222837Y00751968D01*
X02221226Y00751543D01*
X02219604Y00751158D01*
X02217973Y00750813D01*
X02216335Y00750508D01*
X02214689Y00750243D01*
X02213037Y00750019D01*
X02211381Y00749835D01*
X02209720Y00749692D01*
X02208056Y00749590D01*
X02206391Y00749528D01*
X02204724Y00749508D01*
X02203057Y00749528D01*
X02201392Y00749590D01*
X02199728Y00749692D01*
X02198067Y00749835D01*
X02196411Y00750019D01*
X02194759Y00750243D01*
X02193113Y00750508D01*
X02191475Y00750813D01*
X02189844Y00751158D01*
X02188222Y00751543D01*
X02186611Y00751968D01*
X02185010Y00752432D01*
X02183421Y00752936D01*
X02181845Y00753478D01*
X02180282Y00754059D01*
X02178735Y00754678D01*
X02177203Y00755334D01*
X02175687Y00756028D01*
X02174190Y00756759D01*
X02172710Y00757527D01*
X02171250Y00758331D01*
X02169810Y00759170D01*
X02168391Y00760044D01*
X02166994Y00760953D01*
X02165619Y00761896D01*
X02164268Y00762873D01*
X02162942Y00763882D01*
X02161640Y00764924D01*
X02160365Y00765997D01*
X02159116Y00767101D01*
X02157895Y00768235D01*
X02156702Y00769399D01*
X02155538Y00770592D01*
X02154404Y00771813D01*
X02153300Y00773062D01*
X02152227Y00774337D01*
X02151185Y00775639D01*
X02150176Y00776965D01*
X02149199Y00778316D01*
X02148256Y00779691D01*
X02147347Y00781088D01*
X02146473Y00782507D01*
X02145634Y00783947D01*
X02144830Y00785407D01*
X02144062Y00786887D01*
X02143331Y00788384D01*
X02142637Y00789900D01*
X02141981Y00791432D01*
X02141362Y00792979D01*
X02140781Y00794542D01*
X02140239Y00796118D01*
X02139735Y00797707D01*
X02139271Y00799308D01*
X02138846Y00800919D01*
X02138461Y00802541D01*
X02138116Y00804172D01*
X02137811Y00805810D01*
X02137546Y00807456D01*
X02137322Y00809108D01*
X02137138Y00810764D01*
X02136995Y00812425D01*
X02136893Y00814089D01*
X02136831Y00815754D01*
X02136811Y00817421D01*
X02136831Y00819088D01*
X02136893Y00820753D01*
X02136995Y00822417D01*
X02137138Y00824078D01*
X02137322Y00825734D01*
X02137546Y00827386D01*
X02137811Y00829032D01*
X02138116Y00830670D01*
X02138461Y00832301D01*
X02138846Y00833923D01*
X02139271Y00835534D01*
X02139735Y00837135D01*
X02140239Y00838724D01*
X02140781Y00840300D01*
X02141362Y00841863D01*
X02141981Y00843410D01*
X02142637Y00844942D01*
X02143331Y00846458D01*
X02144062Y00847955D01*
X02144830Y00849435D01*
X02145634Y00850895D01*
X02146473Y00852335D01*
X02147347Y00853754D01*
X02148256Y00855151D01*
X02149199Y00856526D01*
X02150176Y00857877D01*
X02151185Y00859203D01*
X02152227Y00860505D01*
X02153300Y00861780D01*
X02154404Y00863029D01*
X02155538Y00864250D01*
X02156702Y00865443D01*
X02157895Y00866607D01*
X02159116Y00867741D01*
X02160365Y00868845D01*
X02161640Y00869918D01*
X02162942Y00870960D01*
X02164268Y00871969D01*
X02165619Y00872946D01*
X02166994Y00873889D01*
X02168391Y00874798D01*
X02169810Y00875672D01*
X02171250Y00876511D01*
X02172710Y00877315D01*
X02174190Y00878083D01*
X02175687Y00878814D01*
X02177203Y00879508D01*
X02178735Y00880164D01*
X02180282Y00880783D01*
X02181845Y00881364D01*
X02183421Y00881906D01*
X02185010Y00882410D01*
X02186611Y00882874D01*
X02188222Y00883299D01*
X02189844Y00883684D01*
X02191475Y00884029D01*
X02193113Y00884334D01*
X02194759Y00884599D01*
X02196411Y00884823D01*
X02198067Y00885007D01*
X02199728Y00885150D01*
X02201392Y00885252D01*
X02203057Y00885314D01*
X02204724Y00885334D01*
X02206391Y00885314D01*
X02208056Y00885252D01*
X02209720Y00885150D01*
X02211381Y00885007D01*
X02213037Y00884823D01*
X02214689Y00884599D01*
X02216335Y00884334D01*
X02217973Y00884029D01*
X02219604Y00883684D01*
X02221226Y00883299D01*
X02222837Y00882874D01*
X02224438Y00882410D01*
X02226027Y00881906D01*
X02227603Y00881364D01*
X02229166Y00880783D01*
X02230713Y00880164D01*
X02232245Y00879508D01*
X02233761Y00878814D01*
X02235258Y00878083D01*
X02236738Y00877315D01*
X02238198Y00876511D01*
X02239638Y00875672D01*
X02241057Y00874798D01*
X02242454Y00873889D01*
X02243829Y00872946D01*
X02245180Y00871969D01*
X02246506Y00870960D01*
X02247808Y00869918D01*
X02249083Y00868845D01*
X02250332Y00867741D01*
X02251553Y00866607D01*
X02252746Y00865443D01*
X02253910Y00864250D01*
X02255044Y00863029D01*
X02256148Y00861780D01*
X02257221Y00860505D01*
X02258263Y00859203D01*
X02259272Y00857877D01*
X02260249Y00856526D01*
X02261192Y00855151D01*
X02262101Y00853754D01*
X02262975Y00852335D01*
X02263814Y00850895D01*
X02264618Y00849435D01*
X02265386Y00847955D01*
X02266117Y00846458D01*
X02266811Y00844942D01*
X02267467Y00843410D01*
X02268086Y00841863D01*
X02268667Y00840300D01*
X02269209Y00838724D01*
X02269713Y00837135D01*
X02270177Y00835534D01*
X02270602Y00833923D01*
X02270987Y00832301D01*
X02271332Y00830670D01*
X02271637Y00829032D01*
X02271902Y00827386D01*
X02272126Y00825734D01*
X02272310Y00824078D01*
X02272453Y00822417D01*
X02272555Y00820753D01*
X02272617Y00819088D01*
X02272637Y00817421D01*
X02272617Y00815754D01*
X02272555Y00814089D01*
X02272453Y00812425D01*
X02272310Y00810764D01*
X02272126Y00809108D01*
X02271902Y00807456D01*
X02271637Y00805810D01*
X02271332Y00804172D01*
X02270987Y00802541D01*
X02270602Y00800919D01*
X02270177Y00799308D01*
X02269713Y00797707D01*
X02269209Y00796118D01*
X02268667Y00794542D01*
X02268086Y00792979D01*
X02267467Y00791432D01*
X02266811Y00789900D01*
X02266117Y00788384D01*
X02265386Y00786887D01*
X02264618Y00785407D01*
X02263814Y00783947D01*
X02262975Y00782507D01*
X02262101Y00781088D01*
X02261192Y00779691D01*
X02260249Y00778316D01*
X02259272Y00776965D01*
X02258263Y00775639D01*
X02257221Y00774337D01*
X02256148Y00773062D01*
X02255044Y00771813D01*
X02253910Y00770592D01*
X02252746Y00769399D01*
X02251553Y00768235D01*
X02250332Y00767101D01*
X02249083Y00765997D01*
X02247808Y00764924D01*
X02246506Y00763882D01*
X02245180Y00762873D01*
X02243829Y00761896D01*
X02242454Y00760953D01*
X02241057Y00760044D01*
X02239638Y00759170D01*
X02238198Y00758331D01*
X02236738Y00757527D01*
X02235258Y00756759D01*
X02233761Y00756028D01*
X02232245Y00755334D01*
X02230713Y00754678D01*
X02229166Y00754059D01*
X02227603Y00753478D01*
X02226027Y00752936D01*
X02224438Y00752432D01*
X02222837Y00751968D01*
X02221226Y00751543D01*
X02219604Y00751158D01*
X02217973Y00750813D01*
X02216335Y00750508D01*
X02214689Y00750243D01*
X02213037Y00750019D01*
X02211381Y00749835D01*
X02209720Y00749692D01*
X02208056Y00749590D01*
X02206391Y00749528D01*
X02204724Y00749508D01*
X02203057Y00749528D01*
X02201392Y00749590D01*
X02199728Y00749692D01*
X02198067Y00749835D01*
X02196411Y00750019D01*
X02194759Y00750243D01*
X02193113Y00750508D01*
X02191475Y00750813D01*
X02189844Y00751158D01*
X02188222Y00751543D01*
X02186611Y00751968D01*
X02185010Y00752432D01*
X02183421Y00752936D01*
X02181845Y00753478D01*
X02180282Y00754059D01*
X02178735Y00754678D01*
X02177203Y00755334D01*
X02175687Y00756028D01*
X02174190Y00756759D01*
X02172710Y00757527D01*
X02171250Y00758331D01*
X02169810Y00759170D01*
X02168391Y00760044D01*
X02166994Y00760953D01*
X02165619Y00761896D01*
X02164268Y00762873D01*
X02162942Y00763882D01*
X02161640Y00764924D01*
X02160365Y00765997D01*
X02159116Y00767101D01*
X02157895Y00768235D01*
X02156702Y00769399D01*
X02155538Y00770592D01*
X02154404Y00771813D01*
X02153300Y00773062D01*
X02152227Y00774337D01*
X02151185Y00775639D01*
X02150176Y00776965D01*
X02149199Y00778316D01*
X02148256Y00779691D01*
X02147347Y00781088D01*
X02146473Y00782507D01*
X02145634Y00783947D01*
X02144830Y00785407D01*
X02144062Y00786887D01*
X02143331Y00788384D01*
X02142637Y00789900D01*
X02141981Y00791432D01*
X02141362Y00792979D01*
X02140781Y00794542D01*
X02140239Y00796118D01*
X02139735Y00797707D01*
X02139271Y00799308D01*
X02138846Y00800919D01*
X02138461Y00802541D01*
X02138116Y00804172D01*
X02137811Y00805810D01*
X02137546Y00807456D01*
X02137322Y00809108D01*
X02137138Y00810764D01*
X02136995Y00812425D01*
X02136893Y00814089D01*
X02136831Y00815754D01*
X02136811Y00817421D01*
X00000001Y01259842D02*
X00000001Y00000000D01*
X02136811Y00442421D02*
X02136831Y00444088D01*
X02136893Y00445753D01*
X02136995Y00447417D01*
X02137138Y00449078D01*
X02137322Y00450734D01*
X02137546Y00452386D01*
X02137811Y00454032D01*
X02138116Y00455670D01*
X02138461Y00457301D01*
X02138846Y00458923D01*
X02139271Y00460534D01*
X02139735Y00462135D01*
X02140239Y00463724D01*
X02140781Y00465300D01*
X02141362Y00466863D01*
X02141981Y00468410D01*
X02142637Y00469942D01*
X02143331Y00471458D01*
X02144062Y00472955D01*
X02144830Y00474435D01*
X02145634Y00475895D01*
X02146473Y00477335D01*
X02147347Y00478754D01*
X02148256Y00480151D01*
X02149199Y00481526D01*
X02150176Y00482877D01*
X02151185Y00484203D01*
X02152227Y00485505D01*
X02153300Y00486780D01*
X02154404Y00488029D01*
X02155538Y00489250D01*
X02156702Y00490443D01*
X02157895Y00491607D01*
X02159116Y00492741D01*
X02160365Y00493845D01*
X02161640Y00494918D01*
X02162942Y00495960D01*
X02164268Y00496969D01*
X02165619Y00497946D01*
X02166994Y00498889D01*
X02168391Y00499798D01*
X02169810Y00500672D01*
X02171250Y00501511D01*
X02172710Y00502315D01*
X02174190Y00503083D01*
X02175687Y00503814D01*
X02177203Y00504508D01*
X02178735Y00505164D01*
X02180282Y00505783D01*
X02181845Y00506364D01*
X02183421Y00506906D01*
X02185010Y00507410D01*
X02186611Y00507874D01*
X02188222Y00508299D01*
X02189844Y00508684D01*
X02191475Y00509029D01*
X02193113Y00509334D01*
X02194759Y00509599D01*
X02196411Y00509823D01*
X02198067Y00510007D01*
X02199728Y00510150D01*
X02201392Y00510252D01*
X02203057Y00510314D01*
X02204724Y00510334D01*
X02206391Y00510314D01*
X02208056Y00510252D01*
X02209720Y00510150D01*
X02211381Y00510007D01*
X02213037Y00509823D01*
X02214689Y00509599D01*
X02216335Y00509334D01*
X02217973Y00509029D01*
X02219604Y00508684D01*
X02221226Y00508299D01*
X02222837Y00507874D01*
X02224438Y00507410D01*
X02226027Y00506906D01*
X02227603Y00506364D01*
X02229166Y00505783D01*
X02230713Y00505164D01*
X02232245Y00504508D01*
X02233761Y00503814D01*
X02235258Y00503083D01*
X02236738Y00502315D01*
X02238198Y00501511D01*
X02239638Y00500672D01*
X02241057Y00499798D01*
X02242454Y00498889D01*
X02243829Y00497946D01*
X02245180Y00496969D01*
X02246506Y00495960D01*
X02247808Y00494918D01*
X02249083Y00493845D01*
X02250332Y00492741D01*
X02251553Y00491607D01*
X02252746Y00490443D01*
X02253910Y00489250D01*
X02255044Y00488029D01*
X02256148Y00486780D01*
X02257221Y00485505D01*
X02258263Y00484203D01*
X02259272Y00482877D01*
X02260249Y00481526D01*
X02261192Y00480151D01*
X02262101Y00478754D01*
X02262975Y00477335D01*
X02263814Y00475895D01*
X02264618Y00474435D01*
X02265386Y00472955D01*
X02266117Y00471458D01*
X02266811Y00469942D01*
X02267467Y00468410D01*
X02268086Y00466863D01*
X02268667Y00465300D01*
X02269209Y00463724D01*
X02269713Y00462135D01*
X02270177Y00460534D01*
X02270602Y00458923D01*
X02270987Y00457301D01*
X02271332Y00455670D01*
X02271637Y00454032D01*
X02271902Y00452386D01*
X02272126Y00450734D01*
X02272310Y00449078D01*
X02272453Y00447417D01*
X02272555Y00445753D01*
X02272617Y00444088D01*
X02272637Y00442421D01*
X02272617Y00440754D01*
X02272555Y00439089D01*
X02272453Y00437425D01*
X02272310Y00435764D01*
X02272126Y00434108D01*
X02271902Y00432456D01*
X02271637Y00430810D01*
X02271332Y00429172D01*
X02270987Y00427541D01*
X02270602Y00425919D01*
X02270177Y00424308D01*
X02269713Y00422707D01*
X02269209Y00421118D01*
X02268667Y00419542D01*
X02268086Y00417979D01*
X02267467Y00416432D01*
X02266811Y00414900D01*
X02266117Y00413384D01*
X02265386Y00411887D01*
X02264618Y00410407D01*
X02263814Y00408947D01*
X02262975Y00407507D01*
X02262101Y00406088D01*
X02261192Y00404691D01*
X02260249Y00403316D01*
X02259272Y00401965D01*
X02258263Y00400639D01*
X02257221Y00399337D01*
X02256148Y00398062D01*
X02255044Y00396813D01*
X02253910Y00395592D01*
X02252746Y00394399D01*
X02251553Y00393235D01*
X02250332Y00392101D01*
X02249083Y00390997D01*
X02247808Y00389924D01*
X02246506Y00388882D01*
X02245180Y00387873D01*
X02243829Y00386896D01*
X02242454Y00385953D01*
X02241057Y00385044D01*
X02239638Y00384170D01*
X02238198Y00383331D01*
X02236738Y00382527D01*
X02235258Y00381759D01*
X02233761Y00381028D01*
X02232245Y00380334D01*
X02230713Y00379678D01*
X02229166Y00379059D01*
X02227603Y00378478D01*
X02226027Y00377936D01*
X02224438Y00377432D01*
X02222837Y00376968D01*
X02221226Y00376543D01*
X02219604Y00376158D01*
X02217973Y00375813D01*
X02216335Y00375508D01*
X02214689Y00375243D01*
X02213037Y00375019D01*
X02211381Y00374835D01*
X02209720Y00374692D01*
X02208056Y00374590D01*
X02206391Y00374528D01*
X02204724Y00374508D01*
X02203057Y00374528D01*
X02201392Y00374590D01*
X02199728Y00374692D01*
X02198067Y00374835D01*
X02196411Y00375019D01*
X02194759Y00375243D01*
X02193113Y00375508D01*
X02191475Y00375813D01*
X02189844Y00376158D01*
X02188222Y00376543D01*
X02186611Y00376968D01*
X02185010Y00377432D01*
X02183421Y00377936D01*
X02181845Y00378478D01*
X02180282Y00379059D01*
X02178735Y00379678D01*
X02177203Y00380334D01*
X02175687Y00381028D01*
X02174190Y00381759D01*
X02172710Y00382527D01*
X02171250Y00383331D01*
X02169810Y00384170D01*
X02168391Y00385044D01*
X02166994Y00385953D01*
X02165619Y00386896D01*
X02164268Y00387873D01*
X02162942Y00388882D01*
X02161640Y00389924D01*
X02160365Y00390997D01*
X02159116Y00392101D01*
X02157895Y00393235D01*
X02156702Y00394399D01*
X02155538Y00395592D01*
X02154404Y00396813D01*
X02153300Y00398062D01*
X02152227Y00399337D01*
X02151185Y00400639D01*
X02150176Y00401965D01*
X02149199Y00403316D01*
X02148256Y00404691D01*
X02147347Y00406088D01*
X02146473Y00407507D01*
X02145634Y00408947D01*
X02144830Y00410407D01*
X02144062Y00411887D01*
X02143331Y00413384D01*
X02142637Y00414900D01*
X02141981Y00416432D01*
X02141362Y00417979D01*
X02140781Y00419542D01*
X02140239Y00421118D01*
X02139735Y00422707D01*
X02139271Y00424308D01*
X02138846Y00425919D01*
X02138461Y00427541D01*
X02138116Y00429172D01*
X02137811Y00430810D01*
X02137546Y00432456D01*
X02137322Y00434108D01*
X02137138Y00435764D01*
X02136995Y00437425D01*
X02136893Y00439089D01*
X02136831Y00440754D01*
X02136811Y00442421D01*
X02136831Y00444088D01*
X02136893Y00445753D01*
X02136995Y00447417D01*
X02137138Y00449078D01*
X02137322Y00450734D01*
X02137546Y00452386D01*
X02137811Y00454032D01*
X02138116Y00455670D01*
X02138461Y00457301D01*
X02138846Y00458923D01*
X02139271Y00460534D01*
X02139735Y00462135D01*
X02140239Y00463724D01*
X02140781Y00465300D01*
X02141362Y00466863D01*
X02141981Y00468410D01*
X02142637Y00469942D01*
X02143331Y00471458D01*
X02144062Y00472955D01*
X02144830Y00474435D01*
X02145634Y00475895D01*
X02146473Y00477335D01*
X02147347Y00478754D01*
X02148256Y00480151D01*
X02149199Y00481526D01*
X02150176Y00482877D01*
X02151185Y00484203D01*
X02152227Y00485505D01*
X02153300Y00486780D01*
X02154404Y00488029D01*
X02155538Y00489250D01*
X02156702Y00490443D01*
X02157895Y00491607D01*
X02159116Y00492741D01*
X02160365Y00493845D01*
X02161640Y00494918D01*
X02162942Y00495960D01*
X02164268Y00496969D01*
X02165619Y00497946D01*
X02166994Y00498889D01*
X02168391Y00499798D01*
X02169810Y00500672D01*
X02171250Y00501511D01*
X02172710Y00502315D01*
X02174190Y00503083D01*
X02175687Y00503814D01*
X02177203Y00504508D01*
X02178735Y00505164D01*
X02180282Y00505783D01*
X02181845Y00506364D01*
X02183421Y00506906D01*
X02185010Y00507410D01*
X02186611Y00507874D01*
X02188222Y00508299D01*
X02189844Y00508684D01*
X02191475Y00509029D01*
X02193113Y00509334D01*
X02194759Y00509599D01*
X02196411Y00509823D01*
X02198067Y00510007D01*
X02199728Y00510150D01*
X02201392Y00510252D01*
X02203057Y00510314D01*
X02204724Y00510334D01*
X02206391Y00510314D01*
X02208056Y00510252D01*
X02209720Y00510150D01*
X02211381Y00510007D01*
X02213037Y00509823D01*
X02214689Y00509599D01*
X02216335Y00509334D01*
X02217973Y00509029D01*
X02219604Y00508684D01*
X02221226Y00508299D01*
X02222837Y00507874D01*
X02224438Y00507410D01*
X02226027Y00506906D01*
X02227603Y00506364D01*
X02229166Y00505783D01*
X02230713Y00505164D01*
X02232245Y00504508D01*
X02233761Y00503814D01*
X02235258Y00503083D01*
X02236738Y00502315D01*
X02238198Y00501511D01*
X02239638Y00500672D01*
X02241057Y00499798D01*
X02242454Y00498889D01*
X02243829Y00497946D01*
X02245180Y00496969D01*
X02246506Y00495960D01*
X02247808Y00494918D01*
X02249083Y00493845D01*
X02250332Y00492741D01*
X02251553Y00491607D01*
X02252746Y00490443D01*
X02253910Y00489250D01*
X02255044Y00488029D01*
X02256148Y00486780D01*
X02257221Y00485505D01*
X02258263Y00484203D01*
X02259272Y00482877D01*
X02260249Y00481526D01*
X02261192Y00480151D01*
X02262101Y00478754D01*
X02262975Y00477335D01*
X02263814Y00475895D01*
X02264618Y00474435D01*
X02265386Y00472955D01*
X02266117Y00471458D01*
X02266811Y00469942D01*
X02267467Y00468410D01*
X02268086Y00466863D01*
X02268667Y00465300D01*
X02269209Y00463724D01*
X02269713Y00462135D01*
X02270177Y00460534D01*
X02270602Y00458923D01*
X02270987Y00457301D01*
X02271332Y00455670D01*
X02271637Y00454032D01*
X02271902Y00452386D01*
X02272126Y00450734D01*
X02272310Y00449078D01*
X02272453Y00447417D01*
X02272555Y00445753D01*
X02272617Y00444088D01*
X02272637Y00442421D01*
X02272617Y00440754D01*
X02272555Y00439089D01*
X02272453Y00437425D01*
X02272310Y00435764D01*
X02272126Y00434108D01*
X02271902Y00432456D01*
X02271637Y00430810D01*
X02271332Y00429172D01*
X02270987Y00427541D01*
X02270602Y00425919D01*
X02270177Y00424308D01*
X02269713Y00422707D01*
X02269209Y00421118D01*
X02268667Y00419542D01*
X02268086Y00417979D01*
X02267467Y00416432D01*
X02266811Y00414900D01*
X02266117Y00413384D01*
X02265386Y00411887D01*
X02264618Y00410407D01*
X02263814Y00408947D01*
X02262975Y00407507D01*
X02262101Y00406088D01*
X02261192Y00404691D01*
X02260249Y00403316D01*
X02259272Y00401965D01*
X02258263Y00400639D01*
X02257221Y00399337D01*
X02256148Y00398062D01*
X02255044Y00396813D01*
X02253910Y00395592D01*
X02252746Y00394399D01*
X02251553Y00393235D01*
X02250332Y00392101D01*
X02249083Y00390997D01*
X02247808Y00389924D01*
X02246506Y00388882D01*
X02245180Y00387873D01*
X02243829Y00386896D01*
X02242454Y00385953D01*
X02241057Y00385044D01*
X02239638Y00384170D01*
X02238198Y00383331D01*
X02236738Y00382527D01*
X02235258Y00381759D01*
X02233761Y00381028D01*
X02232245Y00380334D01*
X02230713Y00379678D01*
X02229166Y00379059D01*
X02227603Y00378478D01*
X02226027Y00377936D01*
X02224438Y00377432D01*
X02222837Y00376968D01*
X02221226Y00376543D01*
X02219604Y00376158D01*
X02217973Y00375813D01*
X02216335Y00375508D01*
X02214689Y00375243D01*
X02213037Y00375019D01*
X02211381Y00374835D01*
X02209720Y00374692D01*
X02208056Y00374590D01*
X02206391Y00374528D01*
X02204724Y00374508D01*
X02203057Y00374528D01*
X02201392Y00374590D01*
X02199728Y00374692D01*
X02198067Y00374835D01*
X02196411Y00375019D01*
X02194759Y00375243D01*
X02193113Y00375508D01*
X02191475Y00375813D01*
X02189844Y00376158D01*
X02188222Y00376543D01*
X02186611Y00376968D01*
X02185010Y00377432D01*
X02183421Y00377936D01*
X02181845Y00378478D01*
X02180282Y00379059D01*
X02178735Y00379678D01*
X02177203Y00380334D01*
X02175687Y00381028D01*
X02174190Y00381759D01*
X02172710Y00382527D01*
X02171250Y00383331D01*
X02169810Y00384170D01*
X02168391Y00385044D01*
X02166994Y00385953D01*
X02165619Y00386896D01*
X02164268Y00387873D01*
X02162942Y00388882D01*
X02161640Y00389924D01*
X02160365Y00390997D01*
X02159116Y00392101D01*
X02157895Y00393235D01*
X02156702Y00394399D01*
X02155538Y00395592D01*
X02154404Y00396813D01*
X02153300Y00398062D01*
X02152227Y00399337D01*
X02151185Y00400639D01*
X02150176Y00401965D01*
X02149199Y00403316D01*
X02148256Y00404691D01*
X02147347Y00406088D01*
X02146473Y00407507D01*
X02145634Y00408947D01*
X02144830Y00410407D01*
X02144062Y00411887D01*
X02143331Y00413384D01*
X02142637Y00414900D01*
X02141981Y00416432D01*
X02141362Y00417979D01*
X02140781Y00419542D01*
X02140239Y00421118D01*
X02139735Y00422707D01*
X02139271Y00424308D01*
X02138846Y00425919D01*
X02138461Y00427541D01*
X02138116Y00429172D01*
X02137811Y00430810D01*
X02137546Y00432456D01*
X02137322Y00434108D01*
X02137138Y00435764D01*
X02136995Y00437425D01*
X02136893Y00439089D01*
X02136831Y00440754D01*
X02136811Y00442421D01*
D11*
X02138798Y00276385D02*
X02149474Y00265710D01*
X02106771Y00223006D01*
X02117447Y00212331D01*
X02138798Y00212331D01*
X02149474Y00223006D01*
X02149474Y00265710D01*
X02138798Y00276385D02*
X02117447Y00276385D01*
X02106771Y00265710D01*
X02106771Y00223006D01*
X02085019Y00223006D02*
X02074343Y00212331D01*
X02052992Y00212331D01*
X02042316Y00223006D01*
X02042316Y00233682D01*
X02052992Y00244358D01*
X02074343Y00244358D01*
X02085019Y00233682D01*
X02085019Y00223006D01*
X02074343Y00244358D02*
X02085019Y00255034D01*
X02085019Y00265710D01*
X02074343Y00276385D01*
X02052992Y00276385D01*
X02042316Y00265710D01*
X02042316Y00255034D01*
X02052992Y00244358D01*
X02020564Y00265710D02*
X01977861Y00223006D01*
X01988537Y00212331D01*
X02009888Y00212331D01*
X02020564Y00223006D01*
X02020564Y00265710D01*
X02009888Y00276385D01*
X01988537Y00276385D01*
X01977861Y00265710D01*
X01977861Y00223006D01*
X01956109Y00223006D02*
X01945433Y00212331D01*
X01924082Y00212331D01*
X01913406Y00223006D01*
X01891654Y00212331D02*
X01891654Y00276385D01*
X01870303Y00255034D01*
X01848951Y00276385D01*
X01848951Y00212331D01*
X01827199Y00244358D02*
X01816523Y00233682D01*
X01784496Y00233682D01*
X01827199Y00244358D02*
X01827199Y00265710D01*
X01816523Y00276385D01*
X01784496Y00276385D01*
X01784496Y00212331D01*
X01784496Y00171385D02*
X01816523Y00171385D01*
X01827199Y00160710D01*
X01827199Y00150034D01*
X01816523Y00139358D01*
X01784496Y00139358D01*
X01816523Y00139358D02*
X01827199Y00128682D01*
X01827199Y00118006D01*
X01816523Y00107331D01*
X01784496Y00107331D01*
X01784496Y00171385D01*
X01848951Y00171385D02*
X01848951Y00128682D01*
X01870303Y00107331D01*
X01891654Y00128682D01*
X01891654Y00171385D01*
X01913406Y00171385D02*
X01913406Y00107331D01*
X01913406Y00128682D02*
X01956109Y00171385D01*
X01977861Y00160710D02*
X01977861Y00150034D01*
X01988537Y00139358D01*
X02009888Y00139358D01*
X02020564Y00128682D01*
X02020564Y00118006D01*
X02009888Y00107331D01*
X01988537Y00107331D01*
X01977861Y00118006D01*
X01956109Y00107331D02*
X01924082Y00139358D01*
X01977861Y00160710D02*
X01988537Y00171385D01*
X02009888Y00171385D01*
X02020564Y00160710D01*
X02042316Y00139358D02*
X02052992Y00150034D01*
X02074343Y00150034D01*
X02085019Y00139358D01*
X02085019Y00118006D01*
X02074343Y00107331D01*
X02052992Y00107331D01*
X02042316Y00118006D01*
X02042316Y00139358D01*
X02106771Y00150034D02*
X02106771Y00118006D01*
X02117447Y00107331D01*
X02149474Y00107331D01*
X02149474Y00150034D01*
X02171226Y00150034D02*
X02203253Y00150034D01*
X02213929Y00139358D01*
X02213929Y00107331D01*
X02235681Y00118006D02*
X02235681Y00139358D01*
X02246357Y00150034D01*
X02278384Y00150034D01*
X02278384Y00171385D02*
X02278384Y00107331D01*
X02246357Y00107331D01*
X02235681Y00118006D01*
X02171226Y00107331D02*
X02171226Y00150034D01*
X01956109Y00223006D02*
X01956109Y00265710D01*
X01945433Y00276385D01*
X01924082Y00276385D01*
X01913406Y00265710D01*
X01913406Y00255034D01*
X01924082Y00244358D01*
X01956109Y00244358D01*
X01477701Y00525921D02*
X01309701Y00525921D01*
X01309701Y00733921D02*
X01477701Y00733921D01*
X01466189Y00812189D02*
X01310189Y00812189D01*
X01310189Y00851189D01*
X01466189Y00871189D02*
X01466189Y00905189D01*
X01511189Y00928189D02*
X01511049Y00928191D01*
X01510909Y00928197D01*
X01510769Y00928207D01*
X01510629Y00928220D01*
X01510490Y00928238D01*
X01510351Y00928260D01*
X01510214Y00928285D01*
X01510076Y00928314D01*
X01509940Y00928347D01*
X01509805Y00928384D01*
X01509671Y00928425D01*
X01509538Y00928470D01*
X01509406Y00928518D01*
X01509276Y00928570D01*
X01509147Y00928625D01*
X01509020Y00928684D01*
X01508894Y00928747D01*
X01508770Y00928813D01*
X01508649Y00928882D01*
X01508529Y00928955D01*
X01508411Y00929032D01*
X01508296Y00929111D01*
X01508182Y00929194D01*
X01508072Y00929280D01*
X01507963Y00929369D01*
X01507857Y00929461D01*
X01507754Y00929556D01*
X01507653Y00929653D01*
X01507556Y00929754D01*
X01507461Y00929857D01*
X01507369Y00929963D01*
X01507280Y00930072D01*
X01507194Y00930182D01*
X01507111Y00930296D01*
X01507032Y00930411D01*
X01506955Y00930529D01*
X01506882Y00930649D01*
X01506813Y00930770D01*
X01506747Y00930894D01*
X01506684Y00931020D01*
X01506625Y00931147D01*
X01506570Y00931276D01*
X01506518Y00931406D01*
X01506470Y00931538D01*
X01506425Y00931671D01*
X01506384Y00931805D01*
X01506347Y00931940D01*
X01506314Y00932076D01*
X01506285Y00932214D01*
X01506260Y00932351D01*
X01506238Y00932490D01*
X01506220Y00932629D01*
X01506207Y00932769D01*
X01506197Y00932909D01*
X01506191Y00933049D01*
X01506189Y00933189D01*
X01506191Y00933329D01*
X01506197Y00933469D01*
X01506207Y00933609D01*
X01506220Y00933749D01*
X01506238Y00933888D01*
X01506260Y00934027D01*
X01506285Y00934164D01*
X01506314Y00934302D01*
X01506347Y00934438D01*
X01506384Y00934573D01*
X01506425Y00934707D01*
X01506470Y00934840D01*
X01506518Y00934972D01*
X01506570Y00935102D01*
X01506625Y00935231D01*
X01506684Y00935358D01*
X01506747Y00935484D01*
X01506813Y00935608D01*
X01506882Y00935729D01*
X01506955Y00935849D01*
X01507032Y00935967D01*
X01507111Y00936082D01*
X01507194Y00936196D01*
X01507280Y00936306D01*
X01507369Y00936415D01*
X01507461Y00936521D01*
X01507556Y00936624D01*
X01507653Y00936725D01*
X01507754Y00936822D01*
X01507857Y00936917D01*
X01507963Y00937009D01*
X01508072Y00937098D01*
X01508182Y00937184D01*
X01508296Y00937267D01*
X01508411Y00937346D01*
X01508529Y00937423D01*
X01508649Y00937496D01*
X01508770Y00937565D01*
X01508894Y00937631D01*
X01509020Y00937694D01*
X01509147Y00937753D01*
X01509276Y00937808D01*
X01509406Y00937860D01*
X01509538Y00937908D01*
X01509671Y00937953D01*
X01509805Y00937994D01*
X01509940Y00938031D01*
X01510076Y00938064D01*
X01510214Y00938093D01*
X01510351Y00938118D01*
X01510490Y00938140D01*
X01510629Y00938158D01*
X01510769Y00938171D01*
X01510909Y00938181D01*
X01511049Y00938187D01*
X01511189Y00938189D01*
X01511329Y00938187D01*
X01511469Y00938181D01*
X01511609Y00938171D01*
X01511749Y00938158D01*
X01511888Y00938140D01*
X01512027Y00938118D01*
X01512164Y00938093D01*
X01512302Y00938064D01*
X01512438Y00938031D01*
X01512573Y00937994D01*
X01512707Y00937953D01*
X01512840Y00937908D01*
X01512972Y00937860D01*
X01513102Y00937808D01*
X01513231Y00937753D01*
X01513358Y00937694D01*
X01513484Y00937631D01*
X01513608Y00937565D01*
X01513729Y00937496D01*
X01513849Y00937423D01*
X01513967Y00937346D01*
X01514082Y00937267D01*
X01514196Y00937184D01*
X01514306Y00937098D01*
X01514415Y00937009D01*
X01514521Y00936917D01*
X01514624Y00936822D01*
X01514725Y00936725D01*
X01514822Y00936624D01*
X01514917Y00936521D01*
X01515009Y00936415D01*
X01515098Y00936306D01*
X01515184Y00936196D01*
X01515267Y00936082D01*
X01515346Y00935967D01*
X01515423Y00935849D01*
X01515496Y00935729D01*
X01515565Y00935608D01*
X01515631Y00935484D01*
X01515694Y00935358D01*
X01515753Y00935231D01*
X01515808Y00935102D01*
X01515860Y00934972D01*
X01515908Y00934840D01*
X01515953Y00934707D01*
X01515994Y00934573D01*
X01516031Y00934438D01*
X01516064Y00934302D01*
X01516093Y00934164D01*
X01516118Y00934027D01*
X01516140Y00933888D01*
X01516158Y00933749D01*
X01516171Y00933609D01*
X01516181Y00933469D01*
X01516187Y00933329D01*
X01516189Y00933189D01*
X01516187Y00933049D01*
X01516181Y00932909D01*
X01516171Y00932769D01*
X01516158Y00932629D01*
X01516140Y00932490D01*
X01516118Y00932351D01*
X01516093Y00932214D01*
X01516064Y00932076D01*
X01516031Y00931940D01*
X01515994Y00931805D01*
X01515953Y00931671D01*
X01515908Y00931538D01*
X01515860Y00931406D01*
X01515808Y00931276D01*
X01515753Y00931147D01*
X01515694Y00931020D01*
X01515631Y00930894D01*
X01515565Y00930770D01*
X01515496Y00930649D01*
X01515423Y00930529D01*
X01515346Y00930411D01*
X01515267Y00930296D01*
X01515184Y00930182D01*
X01515098Y00930072D01*
X01515009Y00929963D01*
X01514917Y00929857D01*
X01514822Y00929754D01*
X01514725Y00929653D01*
X01514624Y00929556D01*
X01514521Y00929461D01*
X01514415Y00929369D01*
X01514306Y00929280D01*
X01514196Y00929194D01*
X01514082Y00929111D01*
X01513967Y00929032D01*
X01513849Y00928955D01*
X01513729Y00928882D01*
X01513608Y00928813D01*
X01513484Y00928747D01*
X01513358Y00928684D01*
X01513231Y00928625D01*
X01513102Y00928570D01*
X01512972Y00928518D01*
X01512840Y00928470D01*
X01512707Y00928425D01*
X01512573Y00928384D01*
X01512438Y00928347D01*
X01512302Y00928314D01*
X01512164Y00928285D01*
X01512027Y00928260D01*
X01511888Y00928238D01*
X01511749Y00928220D01*
X01511609Y00928207D01*
X01511469Y00928197D01*
X01511329Y00928191D01*
X01511189Y00928189D01*
X01466189Y00964189D02*
X01310189Y00964189D01*
X01310189Y00925189D01*
X00528811Y01248921D02*
X00006811Y01248921D01*
X00006811Y00010921D01*
X00528811Y00010921D01*
X00528811Y01248921D01*
X00006811Y01196921D02*
X-00236189Y01196921D01*
X-00236189Y01056921D01*
X00006811Y01056921D01*
X00016811Y00955921D02*
X-00236189Y00955921D01*
X-00236189Y00303921D01*
X00016811Y00303921D01*
X00016811Y00955921D01*
X00006811Y00202921D02*
X-00236189Y00202921D01*
X-00236189Y00062921D01*
X00006811Y00062921D01*
D12*
X00027471Y00502421D02*
X00035311Y00510261D01*
X00035311Y00518101D01*
X00027471Y00525941D01*
X-00011729Y00525941D01*
X-00011729Y00518101D02*
X-00011729Y00533781D01*
X00003951Y00548461D02*
X-00011729Y00564141D01*
X00035311Y00564141D01*
X00035311Y00571261D02*
X00027471Y00563421D01*
X00035311Y00571261D02*
X00035311Y00586941D01*
X00027471Y00594781D01*
X00011791Y00594781D01*
X00003951Y00586941D01*
X00003951Y00579101D01*
X00011791Y00563421D01*
X-00011729Y00563421D01*
X-00011729Y00594781D01*
X-00011729Y00609461D02*
X-00011729Y00640821D01*
X-00003889Y00640821D01*
X00027471Y00609461D01*
X00035311Y00609461D01*
X00035311Y00579821D02*
X00035311Y00548461D01*
X00011791Y00655500D02*
X00011791Y00686860D01*
X00027471Y00701539D02*
X00035311Y00701539D01*
X00027471Y00701539D02*
X-00003889Y00732899D01*
X-00011729Y00732899D01*
X-00011729Y00701539D01*
X-00011729Y00679020D02*
X00011791Y00655500D01*
X00035311Y00679020D02*
X-00011729Y00679020D01*
X-00003889Y00747578D02*
X00003951Y00747578D01*
X00011791Y00755418D01*
X00011791Y00771098D01*
X00019631Y00778938D01*
X00027471Y00778938D01*
X00035311Y00771098D01*
X00035311Y00755418D01*
X00027471Y00747578D01*
X00019631Y00747578D01*
X00011791Y00755418D01*
X00011791Y00771098D02*
X00003951Y00778938D01*
X-00003889Y00778938D01*
X-00011729Y00771098D01*
X-00011729Y00755418D01*
X-00003889Y00747578D01*
X00011791Y00793617D02*
X00011791Y00824978D01*
X00011791Y00839657D02*
X00011791Y00871017D01*
X00011791Y00885696D02*
X00011791Y00917056D01*
X00011791Y00931735D02*
X00011791Y00955255D01*
X00019631Y00963095D01*
X00027471Y00963095D01*
X00035311Y00955255D01*
X00035311Y00939575D01*
X00027471Y00931735D01*
X00011791Y00931735D01*
X-00003889Y00947415D01*
X-00011729Y00963095D01*
X-00011729Y00863177D02*
X00011791Y00839657D01*
X-00011729Y00817138D02*
X00011791Y00793617D01*
X00035311Y00817138D02*
X-00011729Y00817138D01*
X-00011729Y00863177D02*
X00035311Y00863177D01*
X01250476Y00818471D02*
X01297516Y00818471D01*
X01297516Y00802791D02*
X01297516Y00834151D01*
X01266156Y00802791D02*
X01250476Y00818471D01*
X01258316Y00788112D02*
X01273996Y00788112D01*
X01281836Y00780272D01*
X01281836Y00756752D01*
X01297516Y00756752D02*
X01250476Y00756752D01*
X01250476Y00780272D01*
X01258316Y00788112D01*
X01281836Y00772432D02*
X01297516Y00788112D01*
X01309201Y00716621D02*
X01340561Y00685261D01*
X01324881Y00685261D02*
X01324881Y00716621D01*
X01340561Y00716621D02*
X01309201Y00685261D01*
X01309201Y00700941D02*
X01340561Y00700941D01*
X01327920Y00513698D02*
X01327920Y00466657D01*
X01312240Y00466657D02*
X01343600Y00466657D01*
X01312240Y00498018D02*
X01327920Y00513698D01*
X01297561Y00513698D02*
X01297561Y00474497D01*
X01289721Y00466657D01*
X01274041Y00466657D01*
X01266201Y00474497D01*
X01266201Y00513698D01*
D13*
X01323150Y00357402D02*
X01383150Y00357402D01*
X01383150Y00217402D01*
X01323150Y00217402D01*
X01323150Y00357402D01*
X01428268Y00359370D02*
X01488268Y00359370D01*
X01488268Y00219370D01*
X01428268Y00219370D01*
X01428268Y00359370D01*
X01854724Y00392323D02*
X02125984Y00392323D01*
X02283465Y00392323D02*
X02504724Y00392323D01*
X02504724Y00867520D01*
X02283465Y00867520D01*
X02125984Y00867520D02*
X01854724Y00867520D01*
X01854724Y00392323D01*
X00921575Y00489291D02*
X00781575Y00489291D01*
X00781575Y00549291D01*
X00921575Y00549291D01*
X00921575Y00489291D01*
X00922362Y00744803D02*
X00782362Y00744803D01*
X00782362Y00804803D01*
X00922362Y00804803D01*
X00922362Y00744803D01*
D14*
X00891445Y00732444D02*
X00888943Y00734946D01*
X00883939Y00734946D01*
X00881437Y00732444D01*
X00876713Y00732444D02*
X00874211Y00734946D01*
X00866704Y00734946D01*
X00866704Y00719933D01*
X00874211Y00719933D01*
X00876713Y00722435D01*
X00876713Y00732444D01*
X00881437Y00719933D02*
X00891445Y00729942D01*
X00891445Y00732444D01*
X00891445Y00719933D02*
X00881437Y00719933D01*
X00828504Y00574174D02*
X00828504Y00559161D01*
X00823500Y00559161D02*
X00833509Y00559161D01*
X00823500Y00569170D02*
X00828504Y00574174D01*
X00818776Y00571672D02*
X00816274Y00574174D01*
X00808768Y00574174D01*
X00808768Y00559161D01*
X00816274Y00559161D01*
X00818776Y00561664D01*
X00818776Y00571672D01*
X01393007Y00323982D02*
X01393007Y00318978D01*
X01395509Y00316476D01*
X01395509Y00311752D02*
X01393007Y00309250D01*
X01393007Y00301743D01*
X01408020Y00301743D01*
X01408020Y00309250D01*
X01405518Y00311752D01*
X01395509Y00311752D01*
X01400513Y00321480D02*
X01400513Y00323982D01*
X01403016Y00326484D01*
X01405518Y00326484D01*
X01408020Y00323982D01*
X01408020Y00318978D01*
X01405518Y00316476D01*
X01400513Y00323982D02*
X01398011Y00326484D01*
X01395509Y00326484D01*
X01393007Y00323982D01*
X01410891Y00271304D02*
X01410891Y00261296D01*
X01403385Y00268802D01*
X01418398Y00268802D01*
X01415896Y00256571D02*
X01405887Y00256571D01*
X01403385Y00254069D01*
X01403385Y00246563D01*
X01418398Y00246563D01*
X01418398Y00254069D01*
X01415896Y00256571D01*
X01520196Y00245574D02*
X01520196Y00240569D01*
X01522698Y00238067D01*
X01522698Y00233343D02*
X01527702Y00233343D01*
X01530204Y00230841D01*
X01530204Y00223335D01*
X01530204Y00228339D02*
X01535209Y00233343D01*
X01532707Y00238067D02*
X01535209Y00240569D01*
X01535209Y00245574D01*
X01532707Y00248076D01*
X01530204Y00248076D01*
X01527702Y00245574D01*
X01527702Y00243071D01*
X01527702Y00245574D02*
X01525200Y00248076D01*
X01522698Y00248076D01*
X01520196Y00245574D01*
X01522698Y00233343D02*
X01520196Y00230841D01*
X01520196Y00223335D01*
X01535209Y00223335D01*
X01536897Y00811130D02*
X01536897Y00818636D01*
X01534395Y00821138D01*
X01529391Y00821138D01*
X01526889Y00818636D01*
X01526889Y00811130D01*
X01541902Y00811130D01*
X01536897Y00816134D02*
X01541902Y00821138D01*
X01541902Y00825862D02*
X01531893Y00835871D01*
X01529391Y00835871D01*
X01526889Y00833369D01*
X01526889Y00828365D01*
X01529391Y00825862D01*
X01541902Y00825862D02*
X01541902Y00835871D01*
X01767928Y00881271D02*
X01767928Y00888777D01*
X01770430Y00891280D01*
X01775435Y00891280D01*
X01777937Y00888777D01*
X01777937Y00881271D01*
X01782941Y00881271D02*
X01767928Y00881271D01*
X01777937Y00886275D02*
X01782941Y00891280D01*
X01775435Y00896004D02*
X01775435Y00906012D01*
X01782941Y00903510D02*
X01767928Y00903510D01*
X01775435Y00896004D01*
D15*
X01157496Y00790386D02*
X01126803Y00790386D01*
X01142149Y00790386D02*
X01142149Y00836425D01*
X01126803Y00821079D01*
X01111457Y00828752D02*
X01103783Y00836425D01*
X01088437Y00836425D01*
X01080764Y00828752D01*
X01080764Y00798059D01*
X01088437Y00790386D01*
X01103783Y00790386D01*
X01111457Y00798059D01*
X00880531Y00457291D02*
X00865185Y00457291D01*
X00857512Y00449618D01*
X00842165Y00449618D02*
X00834492Y00457291D01*
X00819146Y00457291D01*
X00811473Y00449618D01*
X00811473Y00418925D01*
X00819146Y00411252D01*
X00834492Y00411252D01*
X00842165Y00418925D01*
X00857512Y00411252D02*
X00888205Y00441945D01*
X00888205Y00449618D01*
X00880531Y00457291D01*
X00888205Y00411252D02*
X00857512Y00411252D01*
X01756238Y00412399D02*
X01756238Y00397036D01*
X01756238Y00412399D01*
X01756238Y00404718D02*
X01794645Y00404718D01*
X01802327Y00397036D01*
X01802327Y00389355D01*
X01794645Y00381673D01*
X01802327Y00389355D01*
X01802327Y00397036D01*
X01794645Y00404718D01*
X01756238Y00404718D01*
X01763919Y00427758D02*
X01756238Y00435440D01*
X01756238Y00450803D01*
X01763919Y00458484D01*
X01771601Y00458484D01*
X01802327Y00427758D01*
X01802327Y00458484D01*
X01802327Y00427758D01*
X01771601Y00458484D01*
X01763919Y00458484D01*
X01756238Y00450803D01*
X01756238Y00435440D01*
X01763919Y00427758D01*
D16*
X01152756Y00373228D02*
X00773819Y00373228D01*
X00907677Y00046457D02*
X01152756Y00046457D01*
X01206496Y00874409D02*
X00827559Y00874409D01*
X00827559Y01201181D02*
X01072638Y01201181D01*
D17*
X01818898Y00740157D02*
X01818900Y00740282D01*
X01818906Y00740407D01*
X01818916Y00740531D01*
X01818930Y00740655D01*
X01818947Y00740779D01*
X01818969Y00740902D01*
X01818995Y00741024D01*
X01819024Y00741146D01*
X01819057Y00741266D01*
X01819095Y00741385D01*
X01819135Y00741504D01*
X01819180Y00741620D01*
X01819228Y00741735D01*
X01819280Y00741849D01*
X01819336Y00741961D01*
X01819395Y00742071D01*
X01819457Y00742179D01*
X01819523Y00742286D01*
X01819592Y00742390D01*
X01819665Y00742491D01*
X01819740Y00742591D01*
X01819819Y00742688D01*
X01819901Y00742782D01*
X01819986Y00742874D01*
X01820073Y00742963D01*
X01820164Y00743049D01*
X01820257Y00743132D01*
X01820353Y00743213D01*
X01820451Y00743290D01*
X01820551Y00743364D01*
X01820654Y00743435D01*
X01820759Y00743502D01*
X01820867Y00743567D01*
X01820976Y00743627D01*
X01821087Y00743685D01*
X01821200Y00743738D01*
X01821314Y00743788D01*
X01821430Y00743835D01*
X01821547Y00743877D01*
X01821666Y00743916D01*
X01821786Y00743952D01*
X01821907Y00743983D01*
X01822029Y00744011D01*
X01822151Y00744034D01*
X01822275Y00744054D01*
X01822399Y00744070D01*
X01822523Y00744082D01*
X01822648Y00744090D01*
X01822773Y00744094D01*
X01822897Y00744094D01*
X01823022Y00744090D01*
X01823147Y00744082D01*
X01823271Y00744070D01*
X01823395Y00744054D01*
X01823519Y00744034D01*
X01823641Y00744011D01*
X01823763Y00743983D01*
X01823884Y00743952D01*
X01824004Y00743916D01*
X01824123Y00743877D01*
X01824240Y00743835D01*
X01824356Y00743788D01*
X01824470Y00743738D01*
X01824583Y00743685D01*
X01824694Y00743627D01*
X01824804Y00743567D01*
X01824911Y00743502D01*
X01825016Y00743435D01*
X01825119Y00743364D01*
X01825219Y00743290D01*
X01825317Y00743213D01*
X01825413Y00743132D01*
X01825506Y00743049D01*
X01825597Y00742963D01*
X01825684Y00742874D01*
X01825769Y00742782D01*
X01825851Y00742688D01*
X01825930Y00742591D01*
X01826005Y00742491D01*
X01826078Y00742390D01*
X01826147Y00742286D01*
X01826213Y00742179D01*
X01826275Y00742071D01*
X01826334Y00741961D01*
X01826390Y00741849D01*
X01826442Y00741735D01*
X01826490Y00741620D01*
X01826535Y00741504D01*
X01826575Y00741385D01*
X01826613Y00741266D01*
X01826646Y00741146D01*
X01826675Y00741024D01*
X01826701Y00740902D01*
X01826723Y00740779D01*
X01826740Y00740655D01*
X01826754Y00740531D01*
X01826764Y00740407D01*
X01826770Y00740282D01*
X01826772Y00740157D01*
X01826770Y00740032D01*
X01826764Y00739907D01*
X01826754Y00739783D01*
X01826740Y00739659D01*
X01826723Y00739535D01*
X01826701Y00739412D01*
X01826675Y00739290D01*
X01826646Y00739168D01*
X01826613Y00739048D01*
X01826575Y00738929D01*
X01826535Y00738810D01*
X01826490Y00738694D01*
X01826442Y00738579D01*
X01826390Y00738465D01*
X01826334Y00738353D01*
X01826275Y00738243D01*
X01826213Y00738135D01*
X01826147Y00738028D01*
X01826078Y00737924D01*
X01826005Y00737823D01*
X01825930Y00737723D01*
X01825851Y00737626D01*
X01825769Y00737532D01*
X01825684Y00737440D01*
X01825597Y00737351D01*
X01825506Y00737265D01*
X01825413Y00737182D01*
X01825317Y00737101D01*
X01825219Y00737024D01*
X01825119Y00736950D01*
X01825016Y00736879D01*
X01824911Y00736812D01*
X01824803Y00736747D01*
X01824694Y00736687D01*
X01824583Y00736629D01*
X01824470Y00736576D01*
X01824356Y00736526D01*
X01824240Y00736479D01*
X01824123Y00736437D01*
X01824004Y00736398D01*
X01823884Y00736362D01*
X01823763Y00736331D01*
X01823641Y00736303D01*
X01823519Y00736280D01*
X01823395Y00736260D01*
X01823271Y00736244D01*
X01823147Y00736232D01*
X01823022Y00736224D01*
X01822897Y00736220D01*
X01822773Y00736220D01*
X01822648Y00736224D01*
X01822523Y00736232D01*
X01822399Y00736244D01*
X01822275Y00736260D01*
X01822151Y00736280D01*
X01822029Y00736303D01*
X01821907Y00736331D01*
X01821786Y00736362D01*
X01821666Y00736398D01*
X01821547Y00736437D01*
X01821430Y00736479D01*
X01821314Y00736526D01*
X01821200Y00736576D01*
X01821087Y00736629D01*
X01820976Y00736687D01*
X01820866Y00736747D01*
X01820759Y00736812D01*
X01820654Y00736879D01*
X01820551Y00736950D01*
X01820451Y00737024D01*
X01820353Y00737101D01*
X01820257Y00737182D01*
X01820164Y00737265D01*
X01820073Y00737351D01*
X01819986Y00737440D01*
X01819901Y00737532D01*
X01819819Y00737626D01*
X01819740Y00737723D01*
X01819665Y00737823D01*
X01819592Y00737924D01*
X01819523Y00738028D01*
X01819457Y00738135D01*
X01819395Y00738243D01*
X01819336Y00738353D01*
X01819280Y00738465D01*
X01819228Y00738579D01*
X01819180Y00738694D01*
X01819135Y00738810D01*
X01819095Y00738929D01*
X01819057Y00739048D01*
X01819024Y00739168D01*
X01818995Y00739290D01*
X01818969Y00739412D01*
X01818947Y00739535D01*
X01818930Y00739659D01*
X01818916Y00739783D01*
X01818906Y00739907D01*
X01818900Y00740032D01*
X01818898Y00740157D01*
X01818900Y00740282D01*
X01818906Y00740407D01*
X01818916Y00740531D01*
X01818930Y00740655D01*
X01818947Y00740779D01*
X01818969Y00740902D01*
X01818995Y00741024D01*
X01819024Y00741146D01*
X01819057Y00741266D01*
X01819095Y00741385D01*
X01819135Y00741504D01*
X01819180Y00741620D01*
X01819228Y00741735D01*
X01819280Y00741849D01*
X01819336Y00741961D01*
X01819395Y00742071D01*
X01819457Y00742179D01*
X01819523Y00742286D01*
X01819592Y00742390D01*
X01819665Y00742491D01*
X01819740Y00742591D01*
X01819819Y00742688D01*
X01819901Y00742782D01*
X01819986Y00742874D01*
X01820073Y00742963D01*
X01820164Y00743049D01*
X01820257Y00743132D01*
X01820353Y00743213D01*
X01820451Y00743290D01*
X01820551Y00743364D01*
X01820654Y00743435D01*
X01820759Y00743502D01*
X01820867Y00743567D01*
X01820976Y00743627D01*
X01821087Y00743685D01*
X01821200Y00743738D01*
X01821314Y00743788D01*
X01821430Y00743835D01*
X01821547Y00743877D01*
X01821666Y00743916D01*
X01821786Y00743952D01*
X01821907Y00743983D01*
X01822029Y00744011D01*
X01822151Y00744034D01*
X01822275Y00744054D01*
X01822399Y00744070D01*
X01822523Y00744082D01*
X01822648Y00744090D01*
X01822773Y00744094D01*
X01822897Y00744094D01*
X01823022Y00744090D01*
X01823147Y00744082D01*
X01823271Y00744070D01*
X01823395Y00744054D01*
X01823519Y00744034D01*
X01823641Y00744011D01*
X01823763Y00743983D01*
X01823884Y00743952D01*
X01824004Y00743916D01*
X01824123Y00743877D01*
X01824240Y00743835D01*
X01824356Y00743788D01*
X01824470Y00743738D01*
X01824583Y00743685D01*
X01824694Y00743627D01*
X01824804Y00743567D01*
X01824911Y00743502D01*
X01825016Y00743435D01*
X01825119Y00743364D01*
X01825219Y00743290D01*
X01825317Y00743213D01*
X01825413Y00743132D01*
X01825506Y00743049D01*
X01825597Y00742963D01*
X01825684Y00742874D01*
X01825769Y00742782D01*
X01825851Y00742688D01*
X01825930Y00742591D01*
X01826005Y00742491D01*
X01826078Y00742390D01*
X01826147Y00742286D01*
X01826213Y00742179D01*
X01826275Y00742071D01*
X01826334Y00741961D01*
X01826390Y00741849D01*
X01826442Y00741735D01*
X01826490Y00741620D01*
X01826535Y00741504D01*
X01826575Y00741385D01*
X01826613Y00741266D01*
X01826646Y00741146D01*
X01826675Y00741024D01*
X01826701Y00740902D01*
X01826723Y00740779D01*
X01826740Y00740655D01*
X01826754Y00740531D01*
X01826764Y00740407D01*
X01826770Y00740282D01*
X01826772Y00740157D01*
X01826770Y00740032D01*
X01826764Y00739907D01*
X01826754Y00739783D01*
X01826740Y00739659D01*
X01826723Y00739535D01*
X01826701Y00739412D01*
X01826675Y00739290D01*
X01826646Y00739168D01*
X01826613Y00739048D01*
X01826575Y00738929D01*
X01826535Y00738810D01*
X01826490Y00738694D01*
X01826442Y00738579D01*
X01826390Y00738465D01*
X01826334Y00738353D01*
X01826275Y00738243D01*
X01826213Y00738135D01*
X01826147Y00738028D01*
X01826078Y00737924D01*
X01826005Y00737823D01*
X01825930Y00737723D01*
X01825851Y00737626D01*
X01825769Y00737532D01*
X01825684Y00737440D01*
X01825597Y00737351D01*
X01825506Y00737265D01*
X01825413Y00737182D01*
X01825317Y00737101D01*
X01825219Y00737024D01*
X01825119Y00736950D01*
X01825016Y00736879D01*
X01824911Y00736812D01*
X01824803Y00736747D01*
X01824694Y00736687D01*
X01824583Y00736629D01*
X01824470Y00736576D01*
X01824356Y00736526D01*
X01824240Y00736479D01*
X01824123Y00736437D01*
X01824004Y00736398D01*
X01823884Y00736362D01*
X01823763Y00736331D01*
X01823641Y00736303D01*
X01823519Y00736280D01*
X01823395Y00736260D01*
X01823271Y00736244D01*
X01823147Y00736232D01*
X01823022Y00736224D01*
X01822897Y00736220D01*
X01822773Y00736220D01*
X01822648Y00736224D01*
X01822523Y00736232D01*
X01822399Y00736244D01*
X01822275Y00736260D01*
X01822151Y00736280D01*
X01822029Y00736303D01*
X01821907Y00736331D01*
X01821786Y00736362D01*
X01821666Y00736398D01*
X01821547Y00736437D01*
X01821430Y00736479D01*
X01821314Y00736526D01*
X01821200Y00736576D01*
X01821087Y00736629D01*
X01820976Y00736687D01*
X01820866Y00736747D01*
X01820759Y00736812D01*
X01820654Y00736879D01*
X01820551Y00736950D01*
X01820451Y00737024D01*
X01820353Y00737101D01*
X01820257Y00737182D01*
X01820164Y00737265D01*
X01820073Y00737351D01*
X01819986Y00737440D01*
X01819901Y00737532D01*
X01819819Y00737626D01*
X01819740Y00737723D01*
X01819665Y00737823D01*
X01819592Y00737924D01*
X01819523Y00738028D01*
X01819457Y00738135D01*
X01819395Y00738243D01*
X01819336Y00738353D01*
X01819280Y00738465D01*
X01819228Y00738579D01*
X01819180Y00738694D01*
X01819135Y00738810D01*
X01819095Y00738929D01*
X01819057Y00739048D01*
X01819024Y00739168D01*
X01818995Y00739290D01*
X01818969Y00739412D01*
X01818947Y00739535D01*
X01818930Y00739659D01*
X01818916Y00739783D01*
X01818906Y00739907D01*
X01818900Y00740032D01*
X01818898Y00740157D01*
M02*
