G75*
%MOIN*%
%OFA0B0*%
%FSLAX26Y26*%
%IPPOS*%
%LPD*%
%AMOC8*
5,1,8,0,0,1.08239X$1,22.5*
%
%ADD10C,0.000000*%
D10*
X00000000Y00000000D02*
X02244094Y00000000D01*
X02248851Y00000057D01*
X02253604Y00000230D01*
X02258353Y00000517D01*
X02263093Y00000919D01*
X02267822Y00001435D01*
X02272537Y00002066D01*
X02277235Y00002810D01*
X02281914Y00003667D01*
X02286571Y00004638D01*
X02291203Y00005720D01*
X02295808Y00006914D01*
X02300382Y00008219D01*
X02304924Y00009635D01*
X02309430Y00011159D01*
X02313898Y00012792D01*
X02318325Y00014533D01*
X02322709Y00016379D01*
X02327047Y00018332D01*
X02331336Y00020388D01*
X02335575Y00022548D01*
X02339760Y00024809D01*
X02343889Y00027171D01*
X02347960Y00029632D01*
X02351970Y00032191D01*
X02355918Y00034846D01*
X02359800Y00037595D01*
X02363614Y00040437D01*
X02367359Y00043371D01*
X02371031Y00046394D01*
X02374630Y00049506D01*
X02378152Y00052703D01*
X02381596Y00055984D01*
X02384960Y00059348D01*
X02388241Y00062792D01*
X02391438Y00066314D01*
X02394550Y00069913D01*
X02397573Y00073585D01*
X02400507Y00077330D01*
X02403349Y00081144D01*
X02406098Y00085026D01*
X02408753Y00088974D01*
X02411312Y00092984D01*
X02413773Y00097055D01*
X02416135Y00101184D01*
X02418396Y00105369D01*
X02420556Y00109608D01*
X02422612Y00113897D01*
X02424565Y00118235D01*
X02426411Y00122619D01*
X02428152Y00127046D01*
X02429785Y00131514D01*
X02431309Y00136020D01*
X02432725Y00140562D01*
X02434030Y00145136D01*
X02435224Y00149741D01*
X02436306Y00154373D01*
X02437277Y00159030D01*
X02438134Y00163709D01*
X02438878Y00168407D01*
X02439509Y00173122D01*
X02440025Y00177851D01*
X02440427Y00182591D01*
X02440714Y00187340D01*
X02440887Y00192093D01*
X02440944Y00196850D01*
X02440945Y00196850D02*
X02440945Y01062992D01*
X02440944Y01062992D02*
X02440887Y01067749D01*
X02440714Y01072502D01*
X02440427Y01077251D01*
X02440025Y01081991D01*
X02439509Y01086720D01*
X02438878Y01091435D01*
X02438134Y01096133D01*
X02437277Y01100812D01*
X02436306Y01105469D01*
X02435224Y01110101D01*
X02434030Y01114706D01*
X02432725Y01119280D01*
X02431309Y01123822D01*
X02429785Y01128328D01*
X02428152Y01132796D01*
X02426411Y01137223D01*
X02424565Y01141607D01*
X02422612Y01145945D01*
X02420556Y01150234D01*
X02418396Y01154473D01*
X02416135Y01158658D01*
X02413773Y01162787D01*
X02411312Y01166858D01*
X02408753Y01170868D01*
X02406098Y01174816D01*
X02403349Y01178698D01*
X02400507Y01182512D01*
X02397573Y01186257D01*
X02394550Y01189929D01*
X02391438Y01193528D01*
X02388241Y01197050D01*
X02384960Y01200494D01*
X02381596Y01203858D01*
X02378152Y01207139D01*
X02374630Y01210336D01*
X02371031Y01213448D01*
X02367359Y01216471D01*
X02363614Y01219405D01*
X02359800Y01222247D01*
X02355918Y01224996D01*
X02351970Y01227651D01*
X02347960Y01230210D01*
X02343889Y01232671D01*
X02339760Y01235033D01*
X02335575Y01237294D01*
X02331336Y01239454D01*
X02327047Y01241510D01*
X02322709Y01243463D01*
X02318325Y01245309D01*
X02313898Y01247050D01*
X02309430Y01248683D01*
X02304924Y01250207D01*
X02300382Y01251623D01*
X02295808Y01252928D01*
X02291203Y01254122D01*
X02286571Y01255204D01*
X02281914Y01256175D01*
X02277235Y01257032D01*
X02272537Y01257776D01*
X02267822Y01258407D01*
X02263093Y01258923D01*
X02258353Y01259325D01*
X02253604Y01259612D01*
X02248851Y01259785D01*
X02244094Y01259842D01*
X02244094Y01259843D02*
X00000000Y01259843D01*
X02136811Y00817421D02*
X02136831Y00819088D01*
X02136893Y00820753D01*
X02136995Y00822417D01*
X02137138Y00824078D01*
X02137322Y00825734D01*
X02137546Y00827386D01*
X02137811Y00829032D01*
X02138116Y00830670D01*
X02138461Y00832301D01*
X02138846Y00833923D01*
X02139271Y00835534D01*
X02139735Y00837135D01*
X02140239Y00838724D01*
X02140781Y00840300D01*
X02141362Y00841863D01*
X02141981Y00843410D01*
X02142637Y00844942D01*
X02143331Y00846458D01*
X02144062Y00847955D01*
X02144830Y00849435D01*
X02145634Y00850895D01*
X02146473Y00852335D01*
X02147347Y00853754D01*
X02148256Y00855151D01*
X02149199Y00856526D01*
X02150176Y00857877D01*
X02151185Y00859203D01*
X02152227Y00860505D01*
X02153300Y00861780D01*
X02154404Y00863029D01*
X02155538Y00864250D01*
X02156702Y00865443D01*
X02157895Y00866607D01*
X02159116Y00867741D01*
X02160365Y00868845D01*
X02161640Y00869918D01*
X02162942Y00870960D01*
X02164268Y00871969D01*
X02165619Y00872946D01*
X02166994Y00873889D01*
X02168391Y00874798D01*
X02169810Y00875672D01*
X02171250Y00876511D01*
X02172710Y00877315D01*
X02174190Y00878083D01*
X02175687Y00878814D01*
X02177203Y00879508D01*
X02178735Y00880164D01*
X02180282Y00880783D01*
X02181845Y00881364D01*
X02183421Y00881906D01*
X02185010Y00882410D01*
X02186611Y00882874D01*
X02188222Y00883299D01*
X02189844Y00883684D01*
X02191475Y00884029D01*
X02193113Y00884334D01*
X02194759Y00884599D01*
X02196411Y00884823D01*
X02198067Y00885007D01*
X02199728Y00885150D01*
X02201392Y00885252D01*
X02203057Y00885314D01*
X02204724Y00885334D01*
X02206391Y00885314D01*
X02208056Y00885252D01*
X02209720Y00885150D01*
X02211381Y00885007D01*
X02213037Y00884823D01*
X02214689Y00884599D01*
X02216335Y00884334D01*
X02217973Y00884029D01*
X02219604Y00883684D01*
X02221226Y00883299D01*
X02222837Y00882874D01*
X02224438Y00882410D01*
X02226027Y00881906D01*
X02227603Y00881364D01*
X02229166Y00880783D01*
X02230713Y00880164D01*
X02232245Y00879508D01*
X02233761Y00878814D01*
X02235258Y00878083D01*
X02236738Y00877315D01*
X02238198Y00876511D01*
X02239638Y00875672D01*
X02241057Y00874798D01*
X02242454Y00873889D01*
X02243829Y00872946D01*
X02245180Y00871969D01*
X02246506Y00870960D01*
X02247808Y00869918D01*
X02249083Y00868845D01*
X02250332Y00867741D01*
X02251553Y00866607D01*
X02252746Y00865443D01*
X02253910Y00864250D01*
X02255044Y00863029D01*
X02256148Y00861780D01*
X02257221Y00860505D01*
X02258263Y00859203D01*
X02259272Y00857877D01*
X02260249Y00856526D01*
X02261192Y00855151D01*
X02262101Y00853754D01*
X02262975Y00852335D01*
X02263814Y00850895D01*
X02264618Y00849435D01*
X02265386Y00847955D01*
X02266117Y00846458D01*
X02266811Y00844942D01*
X02267467Y00843410D01*
X02268086Y00841863D01*
X02268667Y00840300D01*
X02269209Y00838724D01*
X02269713Y00837135D01*
X02270177Y00835534D01*
X02270602Y00833923D01*
X02270987Y00832301D01*
X02271332Y00830670D01*
X02271637Y00829032D01*
X02271902Y00827386D01*
X02272126Y00825734D01*
X02272310Y00824078D01*
X02272453Y00822417D01*
X02272555Y00820753D01*
X02272617Y00819088D01*
X02272637Y00817421D01*
X02272617Y00815754D01*
X02272555Y00814089D01*
X02272453Y00812425D01*
X02272310Y00810764D01*
X02272126Y00809108D01*
X02271902Y00807456D01*
X02271637Y00805810D01*
X02271332Y00804172D01*
X02270987Y00802541D01*
X02270602Y00800919D01*
X02270177Y00799308D01*
X02269713Y00797707D01*
X02269209Y00796118D01*
X02268667Y00794542D01*
X02268086Y00792979D01*
X02267467Y00791432D01*
X02266811Y00789900D01*
X02266117Y00788384D01*
X02265386Y00786887D01*
X02264618Y00785407D01*
X02263814Y00783947D01*
X02262975Y00782507D01*
X02262101Y00781088D01*
X02261192Y00779691D01*
X02260249Y00778316D01*
X02259272Y00776965D01*
X02258263Y00775639D01*
X02257221Y00774337D01*
X02256148Y00773062D01*
X02255044Y00771813D01*
X02253910Y00770592D01*
X02252746Y00769399D01*
X02251553Y00768235D01*
X02250332Y00767101D01*
X02249083Y00765997D01*
X02247808Y00764924D01*
X02246506Y00763882D01*
X02245180Y00762873D01*
X02243829Y00761896D01*
X02242454Y00760953D01*
X02241057Y00760044D01*
X02239638Y00759170D01*
X02238198Y00758331D01*
X02236738Y00757527D01*
X02235258Y00756759D01*
X02233761Y00756028D01*
X02232245Y00755334D01*
X02230713Y00754678D01*
X02229166Y00754059D01*
X02227603Y00753478D01*
X02226027Y00752936D01*
X02224438Y00752432D01*
X02222837Y00751968D01*
X02221226Y00751543D01*
X02219604Y00751158D01*
X02217973Y00750813D01*
X02216335Y00750508D01*
X02214689Y00750243D01*
X02213037Y00750019D01*
X02211381Y00749835D01*
X02209720Y00749692D01*
X02208056Y00749590D01*
X02206391Y00749528D01*
X02204724Y00749508D01*
X02203057Y00749528D01*
X02201392Y00749590D01*
X02199728Y00749692D01*
X02198067Y00749835D01*
X02196411Y00750019D01*
X02194759Y00750243D01*
X02193113Y00750508D01*
X02191475Y00750813D01*
X02189844Y00751158D01*
X02188222Y00751543D01*
X02186611Y00751968D01*
X02185010Y00752432D01*
X02183421Y00752936D01*
X02181845Y00753478D01*
X02180282Y00754059D01*
X02178735Y00754678D01*
X02177203Y00755334D01*
X02175687Y00756028D01*
X02174190Y00756759D01*
X02172710Y00757527D01*
X02171250Y00758331D01*
X02169810Y00759170D01*
X02168391Y00760044D01*
X02166994Y00760953D01*
X02165619Y00761896D01*
X02164268Y00762873D01*
X02162942Y00763882D01*
X02161640Y00764924D01*
X02160365Y00765997D01*
X02159116Y00767101D01*
X02157895Y00768235D01*
X02156702Y00769399D01*
X02155538Y00770592D01*
X02154404Y00771813D01*
X02153300Y00773062D01*
X02152227Y00774337D01*
X02151185Y00775639D01*
X02150176Y00776965D01*
X02149199Y00778316D01*
X02148256Y00779691D01*
X02147347Y00781088D01*
X02146473Y00782507D01*
X02145634Y00783947D01*
X02144830Y00785407D01*
X02144062Y00786887D01*
X02143331Y00788384D01*
X02142637Y00789900D01*
X02141981Y00791432D01*
X02141362Y00792979D01*
X02140781Y00794542D01*
X02140239Y00796118D01*
X02139735Y00797707D01*
X02139271Y00799308D01*
X02138846Y00800919D01*
X02138461Y00802541D01*
X02138116Y00804172D01*
X02137811Y00805810D01*
X02137546Y00807456D01*
X02137322Y00809108D01*
X02137138Y00810764D01*
X02136995Y00812425D01*
X02136893Y00814089D01*
X02136831Y00815754D01*
X02136811Y00817421D01*
X02136831Y00819088D01*
X02136893Y00820753D01*
X02136995Y00822417D01*
X02137138Y00824078D01*
X02137322Y00825734D01*
X02137546Y00827386D01*
X02137811Y00829032D01*
X02138116Y00830670D01*
X02138461Y00832301D01*
X02138846Y00833923D01*
X02139271Y00835534D01*
X02139735Y00837135D01*
X02140239Y00838724D01*
X02140781Y00840300D01*
X02141362Y00841863D01*
X02141981Y00843410D01*
X02142637Y00844942D01*
X02143331Y00846458D01*
X02144062Y00847955D01*
X02144830Y00849435D01*
X02145634Y00850895D01*
X02146473Y00852335D01*
X02147347Y00853754D01*
X02148256Y00855151D01*
X02149199Y00856526D01*
X02150176Y00857877D01*
X02151185Y00859203D01*
X02152227Y00860505D01*
X02153300Y00861780D01*
X02154404Y00863029D01*
X02155538Y00864250D01*
X02156702Y00865443D01*
X02157895Y00866607D01*
X02159116Y00867741D01*
X02160365Y00868845D01*
X02161640Y00869918D01*
X02162942Y00870960D01*
X02164268Y00871969D01*
X02165619Y00872946D01*
X02166994Y00873889D01*
X02168391Y00874798D01*
X02169810Y00875672D01*
X02171250Y00876511D01*
X02172710Y00877315D01*
X02174190Y00878083D01*
X02175687Y00878814D01*
X02177203Y00879508D01*
X02178735Y00880164D01*
X02180282Y00880783D01*
X02181845Y00881364D01*
X02183421Y00881906D01*
X02185010Y00882410D01*
X02186611Y00882874D01*
X02188222Y00883299D01*
X02189844Y00883684D01*
X02191475Y00884029D01*
X02193113Y00884334D01*
X02194759Y00884599D01*
X02196411Y00884823D01*
X02198067Y00885007D01*
X02199728Y00885150D01*
X02201392Y00885252D01*
X02203057Y00885314D01*
X02204724Y00885334D01*
X02206391Y00885314D01*
X02208056Y00885252D01*
X02209720Y00885150D01*
X02211381Y00885007D01*
X02213037Y00884823D01*
X02214689Y00884599D01*
X02216335Y00884334D01*
X02217973Y00884029D01*
X02219604Y00883684D01*
X02221226Y00883299D01*
X02222837Y00882874D01*
X02224438Y00882410D01*
X02226027Y00881906D01*
X02227603Y00881364D01*
X02229166Y00880783D01*
X02230713Y00880164D01*
X02232245Y00879508D01*
X02233761Y00878814D01*
X02235258Y00878083D01*
X02236738Y00877315D01*
X02238198Y00876511D01*
X02239638Y00875672D01*
X02241057Y00874798D01*
X02242454Y00873889D01*
X02243829Y00872946D01*
X02245180Y00871969D01*
X02246506Y00870960D01*
X02247808Y00869918D01*
X02249083Y00868845D01*
X02250332Y00867741D01*
X02251553Y00866607D01*
X02252746Y00865443D01*
X02253910Y00864250D01*
X02255044Y00863029D01*
X02256148Y00861780D01*
X02257221Y00860505D01*
X02258263Y00859203D01*
X02259272Y00857877D01*
X02260249Y00856526D01*
X02261192Y00855151D01*
X02262101Y00853754D01*
X02262975Y00852335D01*
X02263814Y00850895D01*
X02264618Y00849435D01*
X02265386Y00847955D01*
X02266117Y00846458D01*
X02266811Y00844942D01*
X02267467Y00843410D01*
X02268086Y00841863D01*
X02268667Y00840300D01*
X02269209Y00838724D01*
X02269713Y00837135D01*
X02270177Y00835534D01*
X02270602Y00833923D01*
X02270987Y00832301D01*
X02271332Y00830670D01*
X02271637Y00829032D01*
X02271902Y00827386D01*
X02272126Y00825734D01*
X02272310Y00824078D01*
X02272453Y00822417D01*
X02272555Y00820753D01*
X02272617Y00819088D01*
X02272637Y00817421D01*
X02272617Y00815754D01*
X02272555Y00814089D01*
X02272453Y00812425D01*
X02272310Y00810764D01*
X02272126Y00809108D01*
X02271902Y00807456D01*
X02271637Y00805810D01*
X02271332Y00804172D01*
X02270987Y00802541D01*
X02270602Y00800919D01*
X02270177Y00799308D01*
X02269713Y00797707D01*
X02269209Y00796118D01*
X02268667Y00794542D01*
X02268086Y00792979D01*
X02267467Y00791432D01*
X02266811Y00789900D01*
X02266117Y00788384D01*
X02265386Y00786887D01*
X02264618Y00785407D01*
X02263814Y00783947D01*
X02262975Y00782507D01*
X02262101Y00781088D01*
X02261192Y00779691D01*
X02260249Y00778316D01*
X02259272Y00776965D01*
X02258263Y00775639D01*
X02257221Y00774337D01*
X02256148Y00773062D01*
X02255044Y00771813D01*
X02253910Y00770592D01*
X02252746Y00769399D01*
X02251553Y00768235D01*
X02250332Y00767101D01*
X02249083Y00765997D01*
X02247808Y00764924D01*
X02246506Y00763882D01*
X02245180Y00762873D01*
X02243829Y00761896D01*
X02242454Y00760953D01*
X02241057Y00760044D01*
X02239638Y00759170D01*
X02238198Y00758331D01*
X02236738Y00757527D01*
X02235258Y00756759D01*
X02233761Y00756028D01*
X02232245Y00755334D01*
X02230713Y00754678D01*
X02229166Y00754059D01*
X02227603Y00753478D01*
X02226027Y00752936D01*
X02224438Y00752432D01*
X02222837Y00751968D01*
X02221226Y00751543D01*
X02219604Y00751158D01*
X02217973Y00750813D01*
X02216335Y00750508D01*
X02214689Y00750243D01*
X02213037Y00750019D01*
X02211381Y00749835D01*
X02209720Y00749692D01*
X02208056Y00749590D01*
X02206391Y00749528D01*
X02204724Y00749508D01*
X02203057Y00749528D01*
X02201392Y00749590D01*
X02199728Y00749692D01*
X02198067Y00749835D01*
X02196411Y00750019D01*
X02194759Y00750243D01*
X02193113Y00750508D01*
X02191475Y00750813D01*
X02189844Y00751158D01*
X02188222Y00751543D01*
X02186611Y00751968D01*
X02185010Y00752432D01*
X02183421Y00752936D01*
X02181845Y00753478D01*
X02180282Y00754059D01*
X02178735Y00754678D01*
X02177203Y00755334D01*
X02175687Y00756028D01*
X02174190Y00756759D01*
X02172710Y00757527D01*
X02171250Y00758331D01*
X02169810Y00759170D01*
X02168391Y00760044D01*
X02166994Y00760953D01*
X02165619Y00761896D01*
X02164268Y00762873D01*
X02162942Y00763882D01*
X02161640Y00764924D01*
X02160365Y00765997D01*
X02159116Y00767101D01*
X02157895Y00768235D01*
X02156702Y00769399D01*
X02155538Y00770592D01*
X02154404Y00771813D01*
X02153300Y00773062D01*
X02152227Y00774337D01*
X02151185Y00775639D01*
X02150176Y00776965D01*
X02149199Y00778316D01*
X02148256Y00779691D01*
X02147347Y00781088D01*
X02146473Y00782507D01*
X02145634Y00783947D01*
X02144830Y00785407D01*
X02144062Y00786887D01*
X02143331Y00788384D01*
X02142637Y00789900D01*
X02141981Y00791432D01*
X02141362Y00792979D01*
X02140781Y00794542D01*
X02140239Y00796118D01*
X02139735Y00797707D01*
X02139271Y00799308D01*
X02138846Y00800919D01*
X02138461Y00802541D01*
X02138116Y00804172D01*
X02137811Y00805810D01*
X02137546Y00807456D01*
X02137322Y00809108D01*
X02137138Y00810764D01*
X02136995Y00812425D01*
X02136893Y00814089D01*
X02136831Y00815754D01*
X02136811Y00817421D01*
X00000001Y01259842D02*
X00000001Y00000000D01*
X02136811Y00442421D02*
X02136831Y00444088D01*
X02136893Y00445753D01*
X02136995Y00447417D01*
X02137138Y00449078D01*
X02137322Y00450734D01*
X02137546Y00452386D01*
X02137811Y00454032D01*
X02138116Y00455670D01*
X02138461Y00457301D01*
X02138846Y00458923D01*
X02139271Y00460534D01*
X02139735Y00462135D01*
X02140239Y00463724D01*
X02140781Y00465300D01*
X02141362Y00466863D01*
X02141981Y00468410D01*
X02142637Y00469942D01*
X02143331Y00471458D01*
X02144062Y00472955D01*
X02144830Y00474435D01*
X02145634Y00475895D01*
X02146473Y00477335D01*
X02147347Y00478754D01*
X02148256Y00480151D01*
X02149199Y00481526D01*
X02150176Y00482877D01*
X02151185Y00484203D01*
X02152227Y00485505D01*
X02153300Y00486780D01*
X02154404Y00488029D01*
X02155538Y00489250D01*
X02156702Y00490443D01*
X02157895Y00491607D01*
X02159116Y00492741D01*
X02160365Y00493845D01*
X02161640Y00494918D01*
X02162942Y00495960D01*
X02164268Y00496969D01*
X02165619Y00497946D01*
X02166994Y00498889D01*
X02168391Y00499798D01*
X02169810Y00500672D01*
X02171250Y00501511D01*
X02172710Y00502315D01*
X02174190Y00503083D01*
X02175687Y00503814D01*
X02177203Y00504508D01*
X02178735Y00505164D01*
X02180282Y00505783D01*
X02181845Y00506364D01*
X02183421Y00506906D01*
X02185010Y00507410D01*
X02186611Y00507874D01*
X02188222Y00508299D01*
X02189844Y00508684D01*
X02191475Y00509029D01*
X02193113Y00509334D01*
X02194759Y00509599D01*
X02196411Y00509823D01*
X02198067Y00510007D01*
X02199728Y00510150D01*
X02201392Y00510252D01*
X02203057Y00510314D01*
X02204724Y00510334D01*
X02206391Y00510314D01*
X02208056Y00510252D01*
X02209720Y00510150D01*
X02211381Y00510007D01*
X02213037Y00509823D01*
X02214689Y00509599D01*
X02216335Y00509334D01*
X02217973Y00509029D01*
X02219604Y00508684D01*
X02221226Y00508299D01*
X02222837Y00507874D01*
X02224438Y00507410D01*
X02226027Y00506906D01*
X02227603Y00506364D01*
X02229166Y00505783D01*
X02230713Y00505164D01*
X02232245Y00504508D01*
X02233761Y00503814D01*
X02235258Y00503083D01*
X02236738Y00502315D01*
X02238198Y00501511D01*
X02239638Y00500672D01*
X02241057Y00499798D01*
X02242454Y00498889D01*
X02243829Y00497946D01*
X02245180Y00496969D01*
X02246506Y00495960D01*
X02247808Y00494918D01*
X02249083Y00493845D01*
X02250332Y00492741D01*
X02251553Y00491607D01*
X02252746Y00490443D01*
X02253910Y00489250D01*
X02255044Y00488029D01*
X02256148Y00486780D01*
X02257221Y00485505D01*
X02258263Y00484203D01*
X02259272Y00482877D01*
X02260249Y00481526D01*
X02261192Y00480151D01*
X02262101Y00478754D01*
X02262975Y00477335D01*
X02263814Y00475895D01*
X02264618Y00474435D01*
X02265386Y00472955D01*
X02266117Y00471458D01*
X02266811Y00469942D01*
X02267467Y00468410D01*
X02268086Y00466863D01*
X02268667Y00465300D01*
X02269209Y00463724D01*
X02269713Y00462135D01*
X02270177Y00460534D01*
X02270602Y00458923D01*
X02270987Y00457301D01*
X02271332Y00455670D01*
X02271637Y00454032D01*
X02271902Y00452386D01*
X02272126Y00450734D01*
X02272310Y00449078D01*
X02272453Y00447417D01*
X02272555Y00445753D01*
X02272617Y00444088D01*
X02272637Y00442421D01*
X02272617Y00440754D01*
X02272555Y00439089D01*
X02272453Y00437425D01*
X02272310Y00435764D01*
X02272126Y00434108D01*
X02271902Y00432456D01*
X02271637Y00430810D01*
X02271332Y00429172D01*
X02270987Y00427541D01*
X02270602Y00425919D01*
X02270177Y00424308D01*
X02269713Y00422707D01*
X02269209Y00421118D01*
X02268667Y00419542D01*
X02268086Y00417979D01*
X02267467Y00416432D01*
X02266811Y00414900D01*
X02266117Y00413384D01*
X02265386Y00411887D01*
X02264618Y00410407D01*
X02263814Y00408947D01*
X02262975Y00407507D01*
X02262101Y00406088D01*
X02261192Y00404691D01*
X02260249Y00403316D01*
X02259272Y00401965D01*
X02258263Y00400639D01*
X02257221Y00399337D01*
X02256148Y00398062D01*
X02255044Y00396813D01*
X02253910Y00395592D01*
X02252746Y00394399D01*
X02251553Y00393235D01*
X02250332Y00392101D01*
X02249083Y00390997D01*
X02247808Y00389924D01*
X02246506Y00388882D01*
X02245180Y00387873D01*
X02243829Y00386896D01*
X02242454Y00385953D01*
X02241057Y00385044D01*
X02239638Y00384170D01*
X02238198Y00383331D01*
X02236738Y00382527D01*
X02235258Y00381759D01*
X02233761Y00381028D01*
X02232245Y00380334D01*
X02230713Y00379678D01*
X02229166Y00379059D01*
X02227603Y00378478D01*
X02226027Y00377936D01*
X02224438Y00377432D01*
X02222837Y00376968D01*
X02221226Y00376543D01*
X02219604Y00376158D01*
X02217973Y00375813D01*
X02216335Y00375508D01*
X02214689Y00375243D01*
X02213037Y00375019D01*
X02211381Y00374835D01*
X02209720Y00374692D01*
X02208056Y00374590D01*
X02206391Y00374528D01*
X02204724Y00374508D01*
X02203057Y00374528D01*
X02201392Y00374590D01*
X02199728Y00374692D01*
X02198067Y00374835D01*
X02196411Y00375019D01*
X02194759Y00375243D01*
X02193113Y00375508D01*
X02191475Y00375813D01*
X02189844Y00376158D01*
X02188222Y00376543D01*
X02186611Y00376968D01*
X02185010Y00377432D01*
X02183421Y00377936D01*
X02181845Y00378478D01*
X02180282Y00379059D01*
X02178735Y00379678D01*
X02177203Y00380334D01*
X02175687Y00381028D01*
X02174190Y00381759D01*
X02172710Y00382527D01*
X02171250Y00383331D01*
X02169810Y00384170D01*
X02168391Y00385044D01*
X02166994Y00385953D01*
X02165619Y00386896D01*
X02164268Y00387873D01*
X02162942Y00388882D01*
X02161640Y00389924D01*
X02160365Y00390997D01*
X02159116Y00392101D01*
X02157895Y00393235D01*
X02156702Y00394399D01*
X02155538Y00395592D01*
X02154404Y00396813D01*
X02153300Y00398062D01*
X02152227Y00399337D01*
X02151185Y00400639D01*
X02150176Y00401965D01*
X02149199Y00403316D01*
X02148256Y00404691D01*
X02147347Y00406088D01*
X02146473Y00407507D01*
X02145634Y00408947D01*
X02144830Y00410407D01*
X02144062Y00411887D01*
X02143331Y00413384D01*
X02142637Y00414900D01*
X02141981Y00416432D01*
X02141362Y00417979D01*
X02140781Y00419542D01*
X02140239Y00421118D01*
X02139735Y00422707D01*
X02139271Y00424308D01*
X02138846Y00425919D01*
X02138461Y00427541D01*
X02138116Y00429172D01*
X02137811Y00430810D01*
X02137546Y00432456D01*
X02137322Y00434108D01*
X02137138Y00435764D01*
X02136995Y00437425D01*
X02136893Y00439089D01*
X02136831Y00440754D01*
X02136811Y00442421D01*
X02136831Y00444088D01*
X02136893Y00445753D01*
X02136995Y00447417D01*
X02137138Y00449078D01*
X02137322Y00450734D01*
X02137546Y00452386D01*
X02137811Y00454032D01*
X02138116Y00455670D01*
X02138461Y00457301D01*
X02138846Y00458923D01*
X02139271Y00460534D01*
X02139735Y00462135D01*
X02140239Y00463724D01*
X02140781Y00465300D01*
X02141362Y00466863D01*
X02141981Y00468410D01*
X02142637Y00469942D01*
X02143331Y00471458D01*
X02144062Y00472955D01*
X02144830Y00474435D01*
X02145634Y00475895D01*
X02146473Y00477335D01*
X02147347Y00478754D01*
X02148256Y00480151D01*
X02149199Y00481526D01*
X02150176Y00482877D01*
X02151185Y00484203D01*
X02152227Y00485505D01*
X02153300Y00486780D01*
X02154404Y00488029D01*
X02155538Y00489250D01*
X02156702Y00490443D01*
X02157895Y00491607D01*
X02159116Y00492741D01*
X02160365Y00493845D01*
X02161640Y00494918D01*
X02162942Y00495960D01*
X02164268Y00496969D01*
X02165619Y00497946D01*
X02166994Y00498889D01*
X02168391Y00499798D01*
X02169810Y00500672D01*
X02171250Y00501511D01*
X02172710Y00502315D01*
X02174190Y00503083D01*
X02175687Y00503814D01*
X02177203Y00504508D01*
X02178735Y00505164D01*
X02180282Y00505783D01*
X02181845Y00506364D01*
X02183421Y00506906D01*
X02185010Y00507410D01*
X02186611Y00507874D01*
X02188222Y00508299D01*
X02189844Y00508684D01*
X02191475Y00509029D01*
X02193113Y00509334D01*
X02194759Y00509599D01*
X02196411Y00509823D01*
X02198067Y00510007D01*
X02199728Y00510150D01*
X02201392Y00510252D01*
X02203057Y00510314D01*
X02204724Y00510334D01*
X02206391Y00510314D01*
X02208056Y00510252D01*
X02209720Y00510150D01*
X02211381Y00510007D01*
X02213037Y00509823D01*
X02214689Y00509599D01*
X02216335Y00509334D01*
X02217973Y00509029D01*
X02219604Y00508684D01*
X02221226Y00508299D01*
X02222837Y00507874D01*
X02224438Y00507410D01*
X02226027Y00506906D01*
X02227603Y00506364D01*
X02229166Y00505783D01*
X02230713Y00505164D01*
X02232245Y00504508D01*
X02233761Y00503814D01*
X02235258Y00503083D01*
X02236738Y00502315D01*
X02238198Y00501511D01*
X02239638Y00500672D01*
X02241057Y00499798D01*
X02242454Y00498889D01*
X02243829Y00497946D01*
X02245180Y00496969D01*
X02246506Y00495960D01*
X02247808Y00494918D01*
X02249083Y00493845D01*
X02250332Y00492741D01*
X02251553Y00491607D01*
X02252746Y00490443D01*
X02253910Y00489250D01*
X02255044Y00488029D01*
X02256148Y00486780D01*
X02257221Y00485505D01*
X02258263Y00484203D01*
X02259272Y00482877D01*
X02260249Y00481526D01*
X02261192Y00480151D01*
X02262101Y00478754D01*
X02262975Y00477335D01*
X02263814Y00475895D01*
X02264618Y00474435D01*
X02265386Y00472955D01*
X02266117Y00471458D01*
X02266811Y00469942D01*
X02267467Y00468410D01*
X02268086Y00466863D01*
X02268667Y00465300D01*
X02269209Y00463724D01*
X02269713Y00462135D01*
X02270177Y00460534D01*
X02270602Y00458923D01*
X02270987Y00457301D01*
X02271332Y00455670D01*
X02271637Y00454032D01*
X02271902Y00452386D01*
X02272126Y00450734D01*
X02272310Y00449078D01*
X02272453Y00447417D01*
X02272555Y00445753D01*
X02272617Y00444088D01*
X02272637Y00442421D01*
X02272617Y00440754D01*
X02272555Y00439089D01*
X02272453Y00437425D01*
X02272310Y00435764D01*
X02272126Y00434108D01*
X02271902Y00432456D01*
X02271637Y00430810D01*
X02271332Y00429172D01*
X02270987Y00427541D01*
X02270602Y00425919D01*
X02270177Y00424308D01*
X02269713Y00422707D01*
X02269209Y00421118D01*
X02268667Y00419542D01*
X02268086Y00417979D01*
X02267467Y00416432D01*
X02266811Y00414900D01*
X02266117Y00413384D01*
X02265386Y00411887D01*
X02264618Y00410407D01*
X02263814Y00408947D01*
X02262975Y00407507D01*
X02262101Y00406088D01*
X02261192Y00404691D01*
X02260249Y00403316D01*
X02259272Y00401965D01*
X02258263Y00400639D01*
X02257221Y00399337D01*
X02256148Y00398062D01*
X02255044Y00396813D01*
X02253910Y00395592D01*
X02252746Y00394399D01*
X02251553Y00393235D01*
X02250332Y00392101D01*
X02249083Y00390997D01*
X02247808Y00389924D01*
X02246506Y00388882D01*
X02245180Y00387873D01*
X02243829Y00386896D01*
X02242454Y00385953D01*
X02241057Y00385044D01*
X02239638Y00384170D01*
X02238198Y00383331D01*
X02236738Y00382527D01*
X02235258Y00381759D01*
X02233761Y00381028D01*
X02232245Y00380334D01*
X02230713Y00379678D01*
X02229166Y00379059D01*
X02227603Y00378478D01*
X02226027Y00377936D01*
X02224438Y00377432D01*
X02222837Y00376968D01*
X02221226Y00376543D01*
X02219604Y00376158D01*
X02217973Y00375813D01*
X02216335Y00375508D01*
X02214689Y00375243D01*
X02213037Y00375019D01*
X02211381Y00374835D01*
X02209720Y00374692D01*
X02208056Y00374590D01*
X02206391Y00374528D01*
X02204724Y00374508D01*
X02203057Y00374528D01*
X02201392Y00374590D01*
X02199728Y00374692D01*
X02198067Y00374835D01*
X02196411Y00375019D01*
X02194759Y00375243D01*
X02193113Y00375508D01*
X02191475Y00375813D01*
X02189844Y00376158D01*
X02188222Y00376543D01*
X02186611Y00376968D01*
X02185010Y00377432D01*
X02183421Y00377936D01*
X02181845Y00378478D01*
X02180282Y00379059D01*
X02178735Y00379678D01*
X02177203Y00380334D01*
X02175687Y00381028D01*
X02174190Y00381759D01*
X02172710Y00382527D01*
X02171250Y00383331D01*
X02169810Y00384170D01*
X02168391Y00385044D01*
X02166994Y00385953D01*
X02165619Y00386896D01*
X02164268Y00387873D01*
X02162942Y00388882D01*
X02161640Y00389924D01*
X02160365Y00390997D01*
X02159116Y00392101D01*
X02157895Y00393235D01*
X02156702Y00394399D01*
X02155538Y00395592D01*
X02154404Y00396813D01*
X02153300Y00398062D01*
X02152227Y00399337D01*
X02151185Y00400639D01*
X02150176Y00401965D01*
X02149199Y00403316D01*
X02148256Y00404691D01*
X02147347Y00406088D01*
X02146473Y00407507D01*
X02145634Y00408947D01*
X02144830Y00410407D01*
X02144062Y00411887D01*
X02143331Y00413384D01*
X02142637Y00414900D01*
X02141981Y00416432D01*
X02141362Y00417979D01*
X02140781Y00419542D01*
X02140239Y00421118D01*
X02139735Y00422707D01*
X02139271Y00424308D01*
X02138846Y00425919D01*
X02138461Y00427541D01*
X02138116Y00429172D01*
X02137811Y00430810D01*
X02137546Y00432456D01*
X02137322Y00434108D01*
X02137138Y00435764D01*
X02136995Y00437425D01*
X02136893Y00439089D01*
X02136831Y00440754D01*
X02136811Y00442421D01*
M02*
