G75*
%MOIN*%
%OFA0B0*%
%FSLAX26Y26*%
%IPPOS*%
%LPD*%
%AMOC8*
5,1,8,0,0,1.08239X$1,22.5*
%
%ADD10C,0.000000*%
%ADD11C,0.006000*%
%ADD12C,0.000600*%
%ADD13C,0.001000*%
D10*
X00079921Y00025197D02*
X00688976Y00025197D01*
X00691354Y00025226D01*
X00693731Y00025312D01*
X00696105Y00025456D01*
X00698475Y00025656D01*
X00700840Y00025915D01*
X00703197Y00026230D01*
X00705547Y00026602D01*
X00707886Y00027031D01*
X00710215Y00027516D01*
X00712531Y00028057D01*
X00714833Y00028654D01*
X00717120Y00029307D01*
X00719391Y00030014D01*
X00721644Y00030777D01*
X00723878Y00031593D01*
X00726092Y00032463D01*
X00728283Y00033387D01*
X00730452Y00034363D01*
X00732597Y00035391D01*
X00734716Y00036471D01*
X00736809Y00037602D01*
X00738874Y00038783D01*
X00740909Y00040013D01*
X00742914Y00041292D01*
X00744888Y00042620D01*
X00746829Y00043995D01*
X00748736Y00045416D01*
X00750608Y00046883D01*
X00752445Y00048394D01*
X00754244Y00049950D01*
X00756005Y00051548D01*
X00757727Y00053189D01*
X00759409Y00054871D01*
X00761050Y00056593D01*
X00762648Y00058354D01*
X00764204Y00060153D01*
X00765715Y00061990D01*
X00767182Y00063862D01*
X00768603Y00065769D01*
X00769978Y00067710D01*
X00771306Y00069684D01*
X00772585Y00071689D01*
X00773815Y00073724D01*
X00774996Y00075789D01*
X00776127Y00077882D01*
X00777207Y00080001D01*
X00778235Y00082146D01*
X00779211Y00084315D01*
X00780135Y00086506D01*
X00781005Y00088720D01*
X00781821Y00090954D01*
X00782584Y00093207D01*
X00783291Y00095478D01*
X00783944Y00097765D01*
X00784541Y00100067D01*
X00785082Y00102383D01*
X00785567Y00104712D01*
X00785996Y00107051D01*
X00786368Y00109401D01*
X00786683Y00111758D01*
X00786942Y00114123D01*
X00787142Y00116493D01*
X00787286Y00118867D01*
X00787372Y00121244D01*
X00787401Y00123622D01*
X00787402Y00123622D02*
X00787402Y00492126D01*
X00787401Y00492126D02*
X00787372Y00494504D01*
X00787286Y00496881D01*
X00787142Y00499255D01*
X00786942Y00501625D01*
X00786683Y00503990D01*
X00786368Y00506347D01*
X00785996Y00508697D01*
X00785567Y00511036D01*
X00785082Y00513365D01*
X00784541Y00515681D01*
X00783944Y00517983D01*
X00783291Y00520270D01*
X00782584Y00522541D01*
X00781821Y00524794D01*
X00781005Y00527028D01*
X00780135Y00529242D01*
X00779211Y00531433D01*
X00778235Y00533602D01*
X00777207Y00535747D01*
X00776127Y00537866D01*
X00774996Y00539959D01*
X00773815Y00542024D01*
X00772585Y00544059D01*
X00771306Y00546064D01*
X00769978Y00548038D01*
X00768603Y00549979D01*
X00767182Y00551886D01*
X00765715Y00553758D01*
X00764204Y00555595D01*
X00762648Y00557394D01*
X00761050Y00559155D01*
X00759409Y00560877D01*
X00757727Y00562559D01*
X00756005Y00564200D01*
X00754244Y00565798D01*
X00752445Y00567354D01*
X00750608Y00568865D01*
X00748736Y00570332D01*
X00746829Y00571753D01*
X00744888Y00573128D01*
X00742914Y00574456D01*
X00740909Y00575735D01*
X00738874Y00576965D01*
X00736809Y00578146D01*
X00734716Y00579277D01*
X00732597Y00580357D01*
X00730452Y00581385D01*
X00728283Y00582361D01*
X00726092Y00583285D01*
X00723878Y00584155D01*
X00721644Y00584971D01*
X00719391Y00585734D01*
X00717120Y00586441D01*
X00714833Y00587094D01*
X00712531Y00587691D01*
X00710215Y00588232D01*
X00707886Y00588717D01*
X00705547Y00589146D01*
X00703197Y00589518D01*
X00700840Y00589833D01*
X00698475Y00590092D01*
X00696105Y00590292D01*
X00693731Y00590436D01*
X00691354Y00590522D01*
X00688976Y00590551D01*
X00079921Y00590551D01*
X00077543Y00590522D01*
X00075166Y00590436D01*
X00072792Y00590292D01*
X00070422Y00590092D01*
X00068057Y00589833D01*
X00065700Y00589518D01*
X00063350Y00589146D01*
X00061011Y00588717D01*
X00058682Y00588232D01*
X00056366Y00587691D01*
X00054064Y00587094D01*
X00051777Y00586441D01*
X00049506Y00585734D01*
X00047253Y00584971D01*
X00045019Y00584155D01*
X00042805Y00583285D01*
X00040614Y00582361D01*
X00038445Y00581385D01*
X00036300Y00580357D01*
X00034181Y00579277D01*
X00032088Y00578146D01*
X00030023Y00576965D01*
X00027988Y00575735D01*
X00025983Y00574456D01*
X00024009Y00573128D01*
X00022068Y00571753D01*
X00020161Y00570332D01*
X00018289Y00568865D01*
X00016452Y00567354D01*
X00014653Y00565798D01*
X00012892Y00564200D01*
X00011170Y00562559D01*
X00009488Y00560877D01*
X00007847Y00559155D01*
X00006249Y00557394D01*
X00004693Y00555595D01*
X00003182Y00553758D01*
X00001715Y00551886D01*
X00000294Y00549979D01*
X-00001081Y00548038D01*
X-00002409Y00546064D01*
X-00003688Y00544059D01*
X-00004918Y00542024D01*
X-00006099Y00539959D01*
X-00007230Y00537866D01*
X-00008310Y00535747D01*
X-00009338Y00533602D01*
X-00010314Y00531433D01*
X-00011238Y00529242D01*
X-00012108Y00527028D01*
X-00012924Y00524794D01*
X-00013687Y00522541D01*
X-00014394Y00520270D01*
X-00015047Y00517983D01*
X-00015644Y00515681D01*
X-00016185Y00513365D01*
X-00016670Y00511036D01*
X-00017099Y00508697D01*
X-00017471Y00506347D01*
X-00017786Y00503990D01*
X-00018045Y00501625D01*
X-00018245Y00499255D01*
X-00018389Y00496881D01*
X-00018475Y00494504D01*
X-00018504Y00492126D01*
X-00018504Y00123622D01*
X-00018475Y00121244D01*
X-00018389Y00118867D01*
X-00018245Y00116493D01*
X-00018045Y00114123D01*
X-00017786Y00111758D01*
X-00017471Y00109401D01*
X-00017099Y00107051D01*
X-00016670Y00104712D01*
X-00016185Y00102383D01*
X-00015644Y00100067D01*
X-00015047Y00097765D01*
X-00014394Y00095478D01*
X-00013687Y00093207D01*
X-00012924Y00090954D01*
X-00012108Y00088720D01*
X-00011238Y00086506D01*
X-00010314Y00084315D01*
X-00009338Y00082146D01*
X-00008310Y00080001D01*
X-00007230Y00077882D01*
X-00006099Y00075789D01*
X-00004918Y00073724D01*
X-00003688Y00071689D01*
X-00002409Y00069684D01*
X-00001081Y00067710D01*
X00000294Y00065769D01*
X00001715Y00063862D01*
X00003182Y00061990D01*
X00004693Y00060153D01*
X00006249Y00058354D01*
X00007847Y00056593D01*
X00009488Y00054871D01*
X00011170Y00053189D01*
X00012892Y00051548D01*
X00014653Y00049950D01*
X00016452Y00048394D01*
X00018289Y00046883D01*
X00020161Y00045416D01*
X00022068Y00043995D01*
X00024009Y00042620D01*
X00025983Y00041292D01*
X00027988Y00040013D01*
X00030023Y00038783D01*
X00032088Y00037602D01*
X00034181Y00036471D01*
X00036300Y00035391D01*
X00038445Y00034363D01*
X00040614Y00033387D01*
X00042805Y00032463D01*
X00045019Y00031593D01*
X00047253Y00030777D01*
X00049506Y00030014D01*
X00051777Y00029307D01*
X00054064Y00028654D01*
X00056366Y00028057D01*
X00058682Y00027516D01*
X00061011Y00027031D01*
X00063350Y00026602D01*
X00065700Y00026230D01*
X00068057Y00025915D01*
X00070422Y00025656D01*
X00072792Y00025456D01*
X00075166Y00025312D01*
X00077543Y00025226D01*
X00079921Y00025197D01*
D11*
X00112955Y00211150D02*
X00144982Y00211150D01*
X00155658Y00221825D01*
X00155658Y00243177D01*
X00144982Y00253853D01*
X00112955Y00253853D01*
X00112955Y00275204D02*
X00112955Y00211150D01*
X00177410Y00211150D02*
X00177410Y00243177D01*
X00188085Y00253853D01*
X00220113Y00253853D01*
X00220113Y00211150D01*
X00241865Y00211150D02*
X00241865Y00253853D01*
X00284568Y00253853D02*
X00284568Y00221825D01*
X00273892Y00211150D01*
X00241865Y00211150D01*
X00306320Y00221825D02*
X00306320Y00243177D01*
X00316995Y00253853D01*
X00338347Y00253853D01*
X00349023Y00243177D01*
X00349023Y00221825D01*
X00338347Y00211150D01*
X00316995Y00211150D01*
X00306320Y00221825D01*
X00370774Y00221825D02*
X00381450Y00211150D01*
X00402802Y00211150D01*
X00413478Y00221825D01*
X00402802Y00243177D02*
X00381450Y00243177D01*
X00370774Y00232501D01*
X00370774Y00221825D01*
X00402802Y00243177D02*
X00413478Y00253853D01*
X00413478Y00264529D01*
X00402802Y00275204D01*
X00381450Y00275204D01*
X00370774Y00264529D01*
X00381450Y00316150D02*
X00402802Y00316150D01*
X00413478Y00326825D01*
X00370774Y00369529D01*
X00370774Y00326825D01*
X00381450Y00316150D01*
X00413478Y00326825D02*
X00413478Y00369529D01*
X00402802Y00380204D01*
X00381450Y00380204D01*
X00370774Y00369529D01*
X00349023Y00369529D02*
X00349023Y00358853D01*
X00338347Y00348177D01*
X00316995Y00348177D01*
X00306320Y00337501D01*
X00306320Y00326825D01*
X00316995Y00316150D01*
X00338347Y00316150D01*
X00349023Y00326825D01*
X00349023Y00337501D01*
X00338347Y00348177D01*
X00349023Y00369529D02*
X00338347Y00380204D01*
X00316995Y00380204D01*
X00306320Y00369529D01*
X00306320Y00358853D01*
X00316995Y00348177D01*
X00284568Y00326825D02*
X00284568Y00369529D01*
X00273892Y00380204D01*
X00252540Y00380204D01*
X00241865Y00369529D01*
X00284568Y00326825D01*
X00273892Y00316150D01*
X00252540Y00316150D01*
X00241865Y00326825D01*
X00241865Y00369529D01*
X00435229Y00369529D02*
X00435229Y00326825D01*
X00445905Y00316150D01*
X00467257Y00316150D01*
X00477933Y00326825D01*
X00499684Y00316150D02*
X00499684Y00380204D01*
X00521036Y00358853D01*
X00542388Y00380204D01*
X00542388Y00316150D01*
X00564139Y00348177D02*
X00574815Y00337501D01*
X00606843Y00337501D01*
X00606843Y00316150D02*
X00606843Y00380204D01*
X00574815Y00380204D01*
X00564139Y00369529D01*
X00564139Y00348177D01*
X00574815Y00275204D02*
X00564139Y00264529D01*
X00564139Y00253853D01*
X00574815Y00243177D01*
X00606843Y00243177D01*
X00606843Y00275204D02*
X00574815Y00275204D01*
X00574815Y00243177D02*
X00564139Y00232501D01*
X00564139Y00221825D01*
X00574815Y00211150D01*
X00606843Y00211150D01*
X00606843Y00275204D01*
X00668307Y00252165D02*
X00683307Y00252165D01*
X00668307Y00252165D02*
X00668307Y00152165D01*
X00683307Y00152165D01*
X00753307Y00152165D02*
X00768307Y00152165D01*
X00768307Y00252165D01*
X00753307Y00252165D01*
X00542388Y00232501D02*
X00521036Y00211150D01*
X00499684Y00232501D01*
X00499684Y00275204D01*
X00477933Y00275204D02*
X00477933Y00211150D01*
X00477933Y00232501D02*
X00435229Y00275204D01*
X00467257Y00243177D02*
X00435229Y00211150D01*
X00542388Y00232501D02*
X00542388Y00275204D01*
X00467257Y00348177D02*
X00435229Y00348177D01*
X00435229Y00369529D02*
X00445905Y00380204D01*
X00467257Y00380204D01*
X00477933Y00369529D01*
X00477933Y00358853D01*
X00467257Y00348177D01*
D12*
X00781006Y00402465D02*
X00775606Y00402465D01*
X00775582Y00403846D01*
X00775525Y00405226D01*
X00775435Y00406604D01*
X00775311Y00407980D01*
X00775154Y00409352D01*
X00774965Y00410720D01*
X00774742Y00412083D01*
X00774486Y00413441D01*
X00774198Y00414791D01*
X00773878Y00416135D01*
X00773525Y00417470D01*
X00773140Y00418796D01*
X00772723Y00420113D01*
X00772275Y00421419D01*
X00771795Y00422715D01*
X00771284Y00423998D01*
X00770743Y00425268D01*
X00770170Y00426525D01*
X00769568Y00427768D01*
X00768936Y00428996D01*
X00768275Y00430209D01*
X00767584Y00431405D01*
X00766865Y00432584D01*
X00766118Y00433746D01*
X00765343Y00434889D01*
X00764541Y00436013D01*
X00763711Y00437117D01*
X00762856Y00438202D01*
X00761974Y00439265D01*
X00761067Y00440306D01*
X00760136Y00441326D01*
X00759180Y00442323D01*
X00758200Y00443296D01*
X00757197Y00444246D01*
X00756171Y00445171D01*
X00755124Y00446071D01*
X00754055Y00446945D01*
X00752965Y00447794D01*
X00751855Y00448616D01*
X00754994Y00453010D01*
X00756210Y00452110D01*
X00757404Y00451182D01*
X00758575Y00450224D01*
X00759723Y00449239D01*
X00760846Y00448226D01*
X00761945Y00447186D01*
X00763019Y00446120D01*
X00764066Y00445029D01*
X00765087Y00443912D01*
X00766081Y00442772D01*
X00767046Y00441607D01*
X00767984Y00440420D01*
X00768892Y00439210D01*
X00769771Y00437979D01*
X00770620Y00436727D01*
X00771439Y00435455D01*
X00772226Y00434164D01*
X00772983Y00432854D01*
X00773707Y00431526D01*
X00774399Y00430181D01*
X00775059Y00428819D01*
X00775686Y00427442D01*
X00776279Y00426051D01*
X00776838Y00424645D01*
X00777363Y00423227D01*
X00777854Y00421796D01*
X00778311Y00420353D01*
X00778732Y00418901D01*
X00779118Y00417438D01*
X00779469Y00415966D01*
X00779784Y00414487D01*
X00780064Y00413000D01*
X00780307Y00411507D01*
X00780514Y00410009D01*
X00780685Y00408506D01*
X00780820Y00406999D01*
X00780919Y00405489D01*
X00780981Y00403978D01*
X00781006Y00402465D01*
X00780437Y00402465D01*
X00780412Y00403964D01*
X00780350Y00405462D01*
X00780253Y00406957D01*
X00780119Y00408450D01*
X00779950Y00409940D01*
X00779744Y00411424D01*
X00779503Y00412904D01*
X00779226Y00414377D01*
X00778914Y00415843D01*
X00778566Y00417301D01*
X00778183Y00418750D01*
X00777766Y00420189D01*
X00777314Y00421618D01*
X00776827Y00423036D01*
X00776307Y00424442D01*
X00775752Y00425834D01*
X00775165Y00427213D01*
X00774544Y00428577D01*
X00773890Y00429926D01*
X00773205Y00431259D01*
X00772487Y00432575D01*
X00771737Y00433873D01*
X00770957Y00435153D01*
X00770146Y00436413D01*
X00769305Y00437654D01*
X00768434Y00438873D01*
X00767533Y00440072D01*
X00766605Y00441248D01*
X00765648Y00442402D01*
X00764663Y00443532D01*
X00763652Y00444639D01*
X00762614Y00445720D01*
X00761551Y00446776D01*
X00760462Y00447806D01*
X00759349Y00448810D01*
X00758211Y00449786D01*
X00757051Y00450735D01*
X00755868Y00451656D01*
X00754663Y00452547D01*
X00754333Y00452084D01*
X00755526Y00451201D01*
X00756698Y00450289D01*
X00757848Y00449349D01*
X00758974Y00448381D01*
X00760077Y00447387D01*
X00761156Y00446366D01*
X00762210Y00445320D01*
X00763238Y00444248D01*
X00764240Y00443152D01*
X00765215Y00442033D01*
X00766163Y00440890D01*
X00767083Y00439724D01*
X00767975Y00438537D01*
X00768838Y00437328D01*
X00769671Y00436099D01*
X00770475Y00434850D01*
X00771248Y00433582D01*
X00771991Y00432296D01*
X00772702Y00430993D01*
X00773381Y00429672D01*
X00774029Y00428336D01*
X00774644Y00426984D01*
X00775226Y00425618D01*
X00775775Y00424238D01*
X00776291Y00422846D01*
X00776773Y00421441D01*
X00777221Y00420025D01*
X00777635Y00418599D01*
X00778014Y00417163D01*
X00778358Y00415719D01*
X00778668Y00414266D01*
X00778942Y00412807D01*
X00779181Y00411341D01*
X00779385Y00409870D01*
X00779553Y00408395D01*
X00779685Y00406916D01*
X00779782Y00405434D01*
X00779843Y00403950D01*
X00779868Y00402465D01*
X00779299Y00402465D01*
X00779274Y00403936D01*
X00779214Y00405406D01*
X00779118Y00406874D01*
X00778987Y00408339D01*
X00778820Y00409801D01*
X00778618Y00411258D01*
X00778381Y00412710D01*
X00778109Y00414156D01*
X00777803Y00415595D01*
X00777462Y00417026D01*
X00777086Y00418448D01*
X00776676Y00419861D01*
X00776232Y00421264D01*
X00775755Y00422655D01*
X00775244Y00424035D01*
X00774700Y00425402D01*
X00774123Y00426755D01*
X00773514Y00428094D01*
X00772872Y00429418D01*
X00772199Y00430726D01*
X00771495Y00432018D01*
X00770759Y00433292D01*
X00769993Y00434548D01*
X00769197Y00435785D01*
X00768371Y00437002D01*
X00767517Y00438200D01*
X00766633Y00439376D01*
X00765722Y00440531D01*
X00764782Y00441663D01*
X00763816Y00442772D01*
X00762824Y00443858D01*
X00761805Y00444920D01*
X00760761Y00445956D01*
X00759693Y00446968D01*
X00758600Y00447953D01*
X00757484Y00448911D01*
X00756345Y00449842D01*
X00755184Y00450746D01*
X00754002Y00451621D01*
X00753671Y00451158D01*
X00754842Y00450291D01*
X00755992Y00449396D01*
X00757120Y00448474D01*
X00758226Y00447524D01*
X00759308Y00446548D01*
X00760367Y00445547D01*
X00761401Y00444520D01*
X00762410Y00443468D01*
X00763393Y00442393D01*
X00764350Y00441294D01*
X00765280Y00440172D01*
X00766183Y00439028D01*
X00767058Y00437863D01*
X00767905Y00436677D01*
X00768723Y00435471D01*
X00769511Y00434245D01*
X00770270Y00433001D01*
X00770998Y00431739D01*
X00771696Y00430460D01*
X00772363Y00429164D01*
X00772999Y00427852D01*
X00773602Y00426526D01*
X00774174Y00425185D01*
X00774713Y00423831D01*
X00775219Y00422465D01*
X00775692Y00421087D01*
X00776131Y00419697D01*
X00776537Y00418298D01*
X00776909Y00416889D01*
X00777247Y00415471D01*
X00777551Y00414046D01*
X00777821Y00412614D01*
X00778055Y00411175D01*
X00778255Y00409732D01*
X00778420Y00408284D01*
X00778550Y00406833D01*
X00778645Y00405378D01*
X00778705Y00403922D01*
X00778730Y00402465D01*
X00778161Y00402465D01*
X00778137Y00403909D01*
X00778077Y00405351D01*
X00777983Y00406791D01*
X00777854Y00408229D01*
X00777690Y00409663D01*
X00777492Y00411093D01*
X00777260Y00412517D01*
X00776993Y00413936D01*
X00776692Y00415347D01*
X00776357Y00416751D01*
X00775989Y00418147D01*
X00775586Y00419533D01*
X00775151Y00420909D01*
X00774682Y00422274D01*
X00774181Y00423628D01*
X00773647Y00424969D01*
X00773081Y00426297D01*
X00772483Y00427611D01*
X00771854Y00428910D01*
X00771194Y00430193D01*
X00770502Y00431460D01*
X00769781Y00432710D01*
X00769029Y00433943D01*
X00768248Y00435156D01*
X00767438Y00436351D01*
X00766599Y00437526D01*
X00765733Y00438680D01*
X00764838Y00439813D01*
X00763917Y00440924D01*
X00762969Y00442013D01*
X00761995Y00443078D01*
X00760996Y00444119D01*
X00759972Y00445137D01*
X00758924Y00446129D01*
X00757852Y00447095D01*
X00756757Y00448036D01*
X00755639Y00448950D01*
X00754500Y00449836D01*
X00753340Y00450695D01*
X00753010Y00450232D01*
X00754159Y00449382D01*
X00755287Y00448503D01*
X00756393Y00447598D01*
X00757477Y00446667D01*
X00758539Y00445709D01*
X00759577Y00444727D01*
X00760592Y00443719D01*
X00761581Y00442688D01*
X00762546Y00441633D01*
X00763484Y00440555D01*
X00764397Y00439454D01*
X00765283Y00438332D01*
X00766141Y00437189D01*
X00766972Y00436025D01*
X00767774Y00434842D01*
X00768547Y00433640D01*
X00769292Y00432420D01*
X00770006Y00431181D01*
X00770691Y00429927D01*
X00771345Y00428655D01*
X00771968Y00427369D01*
X00772560Y00426068D01*
X00773121Y00424753D01*
X00773650Y00423425D01*
X00774146Y00422084D01*
X00774610Y00420732D01*
X00775042Y00419369D01*
X00775440Y00417996D01*
X00775805Y00416614D01*
X00776137Y00415223D01*
X00776435Y00413825D01*
X00776699Y00412420D01*
X00776929Y00411010D01*
X00777126Y00409594D01*
X00777288Y00408173D01*
X00777415Y00406749D01*
X00777509Y00405323D01*
X00777568Y00403895D01*
X00777592Y00402465D01*
X00777023Y00402465D01*
X00776999Y00403881D01*
X00776940Y00405295D01*
X00776848Y00406708D01*
X00776721Y00408118D01*
X00776561Y00409524D01*
X00776366Y00410927D01*
X00776138Y00412324D01*
X00775877Y00413715D01*
X00775581Y00415100D01*
X00775253Y00416477D01*
X00774891Y00417845D01*
X00774497Y00419205D01*
X00774070Y00420555D01*
X00773610Y00421894D01*
X00773118Y00423221D01*
X00772595Y00424536D01*
X00772040Y00425839D01*
X00771453Y00427127D01*
X00770836Y00428401D01*
X00770188Y00429660D01*
X00769510Y00430903D01*
X00768803Y00432129D01*
X00768065Y00433337D01*
X00767299Y00434528D01*
X00766505Y00435700D01*
X00765682Y00436852D01*
X00764832Y00437984D01*
X00763955Y00439095D01*
X00763052Y00440185D01*
X00762122Y00441253D01*
X00761167Y00442298D01*
X00760187Y00443319D01*
X00759183Y00444317D01*
X00758155Y00445290D01*
X00757103Y00446238D01*
X00756029Y00447161D01*
X00754934Y00448057D01*
X00753817Y00448927D01*
X00752679Y00449769D01*
X00752348Y00449306D01*
X00753475Y00448472D01*
X00754581Y00447611D01*
X00755666Y00446723D01*
X00756729Y00445810D01*
X00757770Y00444871D01*
X00758788Y00443907D01*
X00759782Y00442919D01*
X00760753Y00441907D01*
X00761699Y00440873D01*
X00762619Y00439815D01*
X00763514Y00438736D01*
X00764382Y00437636D01*
X00765224Y00436515D01*
X00766038Y00435374D01*
X00766825Y00434214D01*
X00767584Y00433035D01*
X00768313Y00431838D01*
X00769014Y00430624D01*
X00769685Y00429393D01*
X00770327Y00428147D01*
X00770938Y00426886D01*
X00771519Y00425610D01*
X00772068Y00424320D01*
X00772587Y00423018D01*
X00773074Y00421703D01*
X00773529Y00420377D01*
X00773952Y00419041D01*
X00774343Y00417695D01*
X00774701Y00416339D01*
X00775026Y00414976D01*
X00775318Y00413605D01*
X00775578Y00412227D01*
X00775804Y00410844D01*
X00775996Y00409455D01*
X00776155Y00408062D01*
X00776280Y00406666D01*
X00776372Y00405268D01*
X00776430Y00403867D01*
X00776454Y00402465D01*
X00775885Y00402465D01*
X00775861Y00403853D01*
X00775804Y00405240D01*
X00775713Y00406625D01*
X00775589Y00408007D01*
X00775431Y00409386D01*
X00775241Y00410761D01*
X00775017Y00412131D01*
X00774760Y00413495D01*
X00774471Y00414852D01*
X00774149Y00416202D01*
X00773794Y00417544D01*
X00773407Y00418877D01*
X00772988Y00420200D01*
X00772538Y00421513D01*
X00772056Y00422814D01*
X00771542Y00424104D01*
X00770998Y00425381D01*
X00770423Y00426644D01*
X00769818Y00427893D01*
X00769183Y00429127D01*
X00768518Y00430345D01*
X00767824Y00431547D01*
X00767102Y00432732D01*
X00766351Y00433900D01*
X00765572Y00435048D01*
X00764765Y00436178D01*
X00763932Y00437288D01*
X00763072Y00438377D01*
X00762186Y00439446D01*
X00761275Y00440493D01*
X00760339Y00441517D01*
X00759378Y00442519D01*
X00758393Y00443497D01*
X00757385Y00444451D01*
X00756355Y00445381D01*
X00755302Y00446285D01*
X00754228Y00447164D01*
X00753133Y00448017D01*
X00752018Y00448843D01*
X00655608Y00401866D02*
X00661008Y00401866D01*
X00661032Y00400473D01*
X00661090Y00399082D01*
X00661182Y00397692D01*
X00661308Y00396305D01*
X00661467Y00394922D01*
X00661660Y00393542D01*
X00661886Y00392168D01*
X00662146Y00390800D01*
X00662438Y00389438D01*
X00662764Y00388084D01*
X00663123Y00386738D01*
X00663514Y00385402D01*
X00663938Y00384075D01*
X00664394Y00382759D01*
X00664881Y00381455D01*
X00665400Y00380162D01*
X00665951Y00378883D01*
X00666532Y00377617D01*
X00667144Y00376366D01*
X00667786Y00375131D01*
X00668458Y00373911D01*
X00669159Y00372708D01*
X00669890Y00371522D01*
X00670649Y00370354D01*
X00671436Y00369205D01*
X00672251Y00368076D01*
X00673093Y00366967D01*
X00673962Y00365878D01*
X00674857Y00364811D01*
X00675778Y00363766D01*
X00676723Y00362744D01*
X00677694Y00361745D01*
X00678688Y00360770D01*
X00679706Y00359819D01*
X00680747Y00358894D01*
X00681809Y00357994D01*
X00682894Y00357120D01*
X00679579Y00352857D01*
X00679578Y00352857D01*
X00678390Y00353814D01*
X00677226Y00354799D01*
X00676086Y00355812D01*
X00674970Y00356853D01*
X00673881Y00357921D01*
X00672818Y00359015D01*
X00671781Y00360134D01*
X00670773Y00361279D01*
X00669792Y00362447D01*
X00668840Y00363639D01*
X00667917Y00364854D01*
X00667025Y00366091D01*
X00666162Y00367349D01*
X00665331Y00368628D01*
X00664530Y00369927D01*
X00663762Y00371245D01*
X00663026Y00372581D01*
X00662323Y00373934D01*
X00661652Y00375305D01*
X00661016Y00376691D01*
X00660413Y00378092D01*
X00659844Y00379508D01*
X00659310Y00380937D01*
X00658811Y00382378D01*
X00658348Y00383832D01*
X00657919Y00385296D01*
X00657527Y00386770D01*
X00657170Y00388253D01*
X00656850Y00389744D01*
X00656566Y00391243D01*
X00656318Y00392748D01*
X00656108Y00394259D01*
X00655934Y00395775D01*
X00655797Y00397294D01*
X00655697Y00398816D01*
X00655634Y00400340D01*
X00655608Y00401866D01*
X00656177Y00401866D01*
X00656202Y00400354D01*
X00656265Y00398844D01*
X00656364Y00397336D01*
X00656500Y00395831D01*
X00656672Y00394329D01*
X00656881Y00392832D01*
X00657126Y00391341D01*
X00657408Y00389856D01*
X00657725Y00388378D01*
X00658079Y00386908D01*
X00658468Y00385448D01*
X00658892Y00383997D01*
X00659351Y00382557D01*
X00659846Y00381129D01*
X00660375Y00379713D01*
X00660938Y00378310D01*
X00661536Y00376922D01*
X00662166Y00375548D01*
X00662831Y00374191D01*
X00663527Y00372849D01*
X00664257Y00371526D01*
X00665018Y00370220D01*
X00665811Y00368933D01*
X00666635Y00367666D01*
X00667489Y00366419D01*
X00668374Y00365194D01*
X00669288Y00363990D01*
X00670231Y00362809D01*
X00671203Y00361651D01*
X00672202Y00360517D01*
X00673229Y00359408D01*
X00674283Y00358324D01*
X00675362Y00357266D01*
X00676467Y00356235D01*
X00677597Y00355231D01*
X00678751Y00354254D01*
X00679928Y00353306D01*
X00680277Y00353755D01*
X00679111Y00354695D01*
X00677968Y00355662D01*
X00676849Y00356657D01*
X00675754Y00357679D01*
X00674684Y00358727D01*
X00673641Y00359801D01*
X00672624Y00360900D01*
X00671633Y00362023D01*
X00670671Y00363170D01*
X00669736Y00364340D01*
X00668831Y00365533D01*
X00667954Y00366747D01*
X00667108Y00367982D01*
X00666291Y00369238D01*
X00665506Y00370513D01*
X00664752Y00371806D01*
X00664029Y00373118D01*
X00663339Y00374447D01*
X00662681Y00375792D01*
X00662056Y00377153D01*
X00661464Y00378528D01*
X00660906Y00379918D01*
X00660382Y00381321D01*
X00659892Y00382736D01*
X00659436Y00384162D01*
X00659016Y00385600D01*
X00658630Y00387047D01*
X00658280Y00388503D01*
X00657966Y00389967D01*
X00657687Y00391438D01*
X00657444Y00392916D01*
X00657237Y00394399D01*
X00657066Y00395887D01*
X00656931Y00397378D01*
X00656833Y00398872D01*
X00656771Y00400368D01*
X00656746Y00401866D01*
X00657315Y00401866D01*
X00657340Y00400382D01*
X00657401Y00398900D01*
X00657499Y00397420D01*
X00657632Y00395942D01*
X00657802Y00394469D01*
X00658007Y00392999D01*
X00658248Y00391536D01*
X00658524Y00390078D01*
X00658836Y00388628D01*
X00659182Y00387185D01*
X00659564Y00385752D01*
X00659981Y00384328D01*
X00660432Y00382915D01*
X00660917Y00381513D01*
X00661436Y00380123D01*
X00661989Y00378747D01*
X00662576Y00377384D01*
X00663195Y00376036D01*
X00663847Y00374703D01*
X00664531Y00373387D01*
X00665246Y00372087D01*
X00665994Y00370806D01*
X00666772Y00369543D01*
X00667580Y00368299D01*
X00668419Y00367075D01*
X00669287Y00365872D01*
X00670185Y00364691D01*
X00671110Y00363532D01*
X00672064Y00362395D01*
X00673045Y00361282D01*
X00674052Y00360194D01*
X00675086Y00359130D01*
X00676146Y00358091D01*
X00677230Y00357079D01*
X00678339Y00356093D01*
X00679471Y00355135D01*
X00680626Y00354204D01*
X00680976Y00354654D01*
X00679831Y00355575D01*
X00678710Y00356525D01*
X00677612Y00357501D01*
X00676537Y00358504D01*
X00675488Y00359533D01*
X00674464Y00360587D01*
X00673466Y00361665D01*
X00672494Y00362768D01*
X00671550Y00363893D01*
X00670633Y00365042D01*
X00669744Y00366212D01*
X00668884Y00367404D01*
X00668053Y00368616D01*
X00667252Y00369848D01*
X00666481Y00371099D01*
X00665741Y00372368D01*
X00665032Y00373655D01*
X00664355Y00374959D01*
X00663709Y00376279D01*
X00663096Y00377615D01*
X00662515Y00378965D01*
X00661967Y00380328D01*
X00661453Y00381705D01*
X00660972Y00383093D01*
X00660525Y00384493D01*
X00660112Y00385904D01*
X00659734Y00387324D01*
X00659391Y00388753D01*
X00659082Y00390189D01*
X00658808Y00391633D01*
X00658570Y00393083D01*
X00658366Y00394538D01*
X00658199Y00395998D01*
X00658066Y00397462D01*
X00657970Y00398928D01*
X00657909Y00400396D01*
X00657884Y00401866D01*
X00658453Y00401866D01*
X00658478Y00400410D01*
X00658538Y00398956D01*
X00658634Y00397504D01*
X00658765Y00396054D01*
X00658931Y00394608D01*
X00659132Y00393167D01*
X00659369Y00391730D01*
X00659640Y00390300D01*
X00659946Y00388877D01*
X00660286Y00387462D01*
X00660661Y00386056D01*
X00661070Y00384659D01*
X00661512Y00383272D01*
X00661988Y00381897D01*
X00662498Y00380533D01*
X00663040Y00379183D01*
X00663616Y00377846D01*
X00664223Y00376523D01*
X00664863Y00375216D01*
X00665534Y00373924D01*
X00666236Y00372649D01*
X00666969Y00371392D01*
X00667733Y00370153D01*
X00668526Y00368932D01*
X00669349Y00367732D01*
X00670201Y00366551D01*
X00671081Y00365392D01*
X00671989Y00364255D01*
X00672924Y00363140D01*
X00673887Y00362048D01*
X00674875Y00360980D01*
X00675890Y00359936D01*
X00676929Y00358917D01*
X00677993Y00357923D01*
X00679081Y00356956D01*
X00680192Y00356016D01*
X00681325Y00355103D01*
X00681674Y00355552D01*
X00680552Y00356456D01*
X00679452Y00357388D01*
X00678374Y00358346D01*
X00677321Y00359329D01*
X00676292Y00360339D01*
X00675287Y00361373D01*
X00674308Y00362431D01*
X00673355Y00363512D01*
X00672428Y00364616D01*
X00671529Y00365743D01*
X00670657Y00366891D01*
X00669814Y00368060D01*
X00668999Y00369249D01*
X00668213Y00370458D01*
X00667457Y00371685D01*
X00666731Y00372930D01*
X00666035Y00374193D01*
X00665371Y00375472D01*
X00664737Y00376767D01*
X00664136Y00378077D01*
X00663566Y00379401D01*
X00663029Y00380739D01*
X00662524Y00382089D01*
X00662052Y00383451D01*
X00661614Y00384824D01*
X00661209Y00386208D01*
X00660838Y00387601D01*
X00660501Y00389002D01*
X00660198Y00390412D01*
X00659929Y00391828D01*
X00659695Y00393250D01*
X00659496Y00394678D01*
X00659331Y00396110D01*
X00659201Y00397546D01*
X00659106Y00398984D01*
X00659047Y00400424D01*
X00659022Y00401866D01*
X00659591Y00401866D01*
X00659615Y00400438D01*
X00659675Y00399012D01*
X00659769Y00397588D01*
X00659897Y00396166D01*
X00660060Y00394748D01*
X00660258Y00393334D01*
X00660490Y00391925D01*
X00660756Y00390523D01*
X00661056Y00389127D01*
X00661390Y00387739D01*
X00661757Y00386360D01*
X00662158Y00384990D01*
X00662593Y00383630D01*
X00663060Y00382281D01*
X00663559Y00380944D01*
X00664091Y00379619D01*
X00664656Y00378308D01*
X00665251Y00377011D01*
X00665879Y00375728D01*
X00666537Y00374461D01*
X00667226Y00373211D01*
X00667945Y00371978D01*
X00668693Y00370762D01*
X00669472Y00369566D01*
X00670278Y00368388D01*
X00671114Y00367230D01*
X00671977Y00366094D01*
X00672868Y00364978D01*
X00673785Y00363884D01*
X00674729Y00362813D01*
X00675699Y00361765D01*
X00676693Y00360742D01*
X00677713Y00359742D01*
X00678756Y00358768D01*
X00679823Y00357819D01*
X00680912Y00356897D01*
X00682024Y00356001D01*
X00682373Y00356450D01*
X00681272Y00357337D01*
X00680194Y00358251D01*
X00679137Y00359190D01*
X00678104Y00360155D01*
X00677095Y00361144D01*
X00676110Y00362158D01*
X00675150Y00363196D01*
X00674216Y00364256D01*
X00673307Y00365339D01*
X00672425Y00366444D01*
X00671570Y00367570D01*
X00670743Y00368716D01*
X00669944Y00369882D01*
X00669174Y00371067D01*
X00668432Y00372271D01*
X00667721Y00373492D01*
X00667038Y00374730D01*
X00666387Y00375984D01*
X00665766Y00377254D01*
X00665176Y00378539D01*
X00664617Y00379837D01*
X00664090Y00381149D01*
X00663595Y00382473D01*
X00663133Y00383809D01*
X00662703Y00385155D01*
X00662306Y00386512D01*
X00661942Y00387878D01*
X00661611Y00389252D01*
X00661314Y00390634D01*
X00661051Y00392023D01*
X00660821Y00393418D01*
X00660625Y00394818D01*
X00660464Y00396222D01*
X00660336Y00397630D01*
X00660243Y00399040D01*
X00660184Y00400452D01*
X00660160Y00401866D01*
X00660729Y00401866D01*
X00660753Y00400466D01*
X00660811Y00399068D01*
X00660904Y00397672D01*
X00661030Y00396278D01*
X00661190Y00394887D01*
X00661384Y00393501D01*
X00661611Y00392120D01*
X00661872Y00390745D01*
X00662166Y00389377D01*
X00662494Y00388016D01*
X00662854Y00386664D01*
X00663247Y00385321D01*
X00663673Y00383988D01*
X00664131Y00382665D01*
X00664621Y00381354D01*
X00665143Y00380055D01*
X00665696Y00378770D01*
X00666280Y00377498D01*
X00666895Y00376241D01*
X00667540Y00374999D01*
X00668215Y00373773D01*
X00668920Y00372564D01*
X00669654Y00371372D01*
X00670417Y00370199D01*
X00671208Y00369044D01*
X00672027Y00367909D01*
X00672873Y00366795D01*
X00673746Y00365701D01*
X00674646Y00364629D01*
X00675571Y00363579D01*
X00676522Y00362551D01*
X00677497Y00361547D01*
X00678496Y00360568D01*
X00679519Y00359612D01*
X00680565Y00358682D01*
X00681633Y00357778D01*
X00682722Y00356899D01*
X00679579Y00451474D02*
X00682894Y00447211D01*
X00681809Y00446337D01*
X00680747Y00445437D01*
X00679706Y00444512D01*
X00678688Y00443561D01*
X00677694Y00442586D01*
X00676723Y00441587D01*
X00675778Y00440565D01*
X00674857Y00439520D01*
X00673962Y00438453D01*
X00673093Y00437364D01*
X00672251Y00436255D01*
X00671436Y00435126D01*
X00670649Y00433977D01*
X00669890Y00432809D01*
X00669159Y00431623D01*
X00668458Y00430420D01*
X00667786Y00429200D01*
X00667144Y00427965D01*
X00666532Y00426714D01*
X00665951Y00425448D01*
X00665400Y00424169D01*
X00664881Y00422876D01*
X00664394Y00421572D01*
X00663938Y00420256D01*
X00663514Y00418929D01*
X00663123Y00417593D01*
X00662764Y00416247D01*
X00662438Y00414893D01*
X00662146Y00413531D01*
X00661886Y00412163D01*
X00661660Y00410789D01*
X00661467Y00409409D01*
X00661308Y00408026D01*
X00661182Y00406639D01*
X00661090Y00405249D01*
X00661032Y00403858D01*
X00661008Y00402465D01*
X00655608Y00402465D01*
X00655634Y00403991D01*
X00655697Y00405515D01*
X00655797Y00407037D01*
X00655934Y00408556D01*
X00656108Y00410072D01*
X00656318Y00411583D01*
X00656566Y00413088D01*
X00656850Y00414587D01*
X00657170Y00416078D01*
X00657527Y00417561D01*
X00657919Y00419035D01*
X00658348Y00420499D01*
X00658811Y00421953D01*
X00659310Y00423394D01*
X00659844Y00424823D01*
X00660413Y00426239D01*
X00661016Y00427640D01*
X00661652Y00429026D01*
X00662323Y00430397D01*
X00663026Y00431750D01*
X00663762Y00433086D01*
X00664530Y00434404D01*
X00665331Y00435703D01*
X00666162Y00436982D01*
X00667025Y00438240D01*
X00667917Y00439477D01*
X00668840Y00440692D01*
X00669792Y00441884D01*
X00670773Y00443052D01*
X00671781Y00444197D01*
X00672818Y00445316D01*
X00673881Y00446410D01*
X00674970Y00447478D01*
X00676086Y00448519D01*
X00677226Y00449532D01*
X00678390Y00450517D01*
X00679578Y00451474D01*
X00679928Y00451025D01*
X00678751Y00450077D01*
X00677597Y00449100D01*
X00676467Y00448096D01*
X00675362Y00447065D01*
X00674283Y00446007D01*
X00673229Y00444923D01*
X00672202Y00443814D01*
X00671203Y00442680D01*
X00670231Y00441522D01*
X00669288Y00440341D01*
X00668374Y00439137D01*
X00667489Y00437912D01*
X00666635Y00436665D01*
X00665811Y00435398D01*
X00665018Y00434111D01*
X00664257Y00432805D01*
X00663527Y00431482D01*
X00662831Y00430140D01*
X00662166Y00428783D01*
X00661536Y00427409D01*
X00660938Y00426021D01*
X00660375Y00424618D01*
X00659846Y00423202D01*
X00659351Y00421774D01*
X00658892Y00420334D01*
X00658468Y00418883D01*
X00658079Y00417423D01*
X00657725Y00415953D01*
X00657408Y00414475D01*
X00657126Y00412990D01*
X00656881Y00411499D01*
X00656672Y00410002D01*
X00656500Y00408500D01*
X00656364Y00406995D01*
X00656265Y00405487D01*
X00656202Y00403977D01*
X00656177Y00402465D01*
X00656746Y00402465D01*
X00656771Y00403963D01*
X00656833Y00405459D01*
X00656931Y00406953D01*
X00657066Y00408444D01*
X00657237Y00409932D01*
X00657444Y00411415D01*
X00657687Y00412893D01*
X00657966Y00414364D01*
X00658280Y00415828D01*
X00658630Y00417284D01*
X00659016Y00418731D01*
X00659436Y00420169D01*
X00659892Y00421595D01*
X00660382Y00423010D01*
X00660906Y00424413D01*
X00661464Y00425803D01*
X00662056Y00427178D01*
X00662681Y00428539D01*
X00663339Y00429884D01*
X00664029Y00431213D01*
X00664752Y00432525D01*
X00665506Y00433818D01*
X00666291Y00435093D01*
X00667108Y00436349D01*
X00667954Y00437584D01*
X00668831Y00438798D01*
X00669736Y00439991D01*
X00670671Y00441161D01*
X00671633Y00442308D01*
X00672624Y00443431D01*
X00673641Y00444530D01*
X00674684Y00445604D01*
X00675754Y00446652D01*
X00676849Y00447674D01*
X00677968Y00448669D01*
X00679111Y00449636D01*
X00680277Y00450576D01*
X00680626Y00450127D01*
X00679471Y00449196D01*
X00678339Y00448238D01*
X00677230Y00447252D01*
X00676146Y00446240D01*
X00675086Y00445201D01*
X00674052Y00444137D01*
X00673045Y00443049D01*
X00672064Y00441936D01*
X00671110Y00440799D01*
X00670185Y00439640D01*
X00669287Y00438459D01*
X00668419Y00437256D01*
X00667580Y00436032D01*
X00666772Y00434788D01*
X00665994Y00433525D01*
X00665246Y00432244D01*
X00664531Y00430944D01*
X00663847Y00429628D01*
X00663195Y00428295D01*
X00662576Y00426947D01*
X00661989Y00425584D01*
X00661436Y00424208D01*
X00660917Y00422818D01*
X00660432Y00421416D01*
X00659981Y00420003D01*
X00659564Y00418579D01*
X00659182Y00417146D01*
X00658836Y00415703D01*
X00658524Y00414253D01*
X00658248Y00412795D01*
X00658007Y00411332D01*
X00657802Y00409862D01*
X00657632Y00408389D01*
X00657499Y00406911D01*
X00657401Y00405431D01*
X00657340Y00403949D01*
X00657315Y00402465D01*
X00657884Y00402465D01*
X00657909Y00403935D01*
X00657970Y00405403D01*
X00658066Y00406869D01*
X00658199Y00408333D01*
X00658366Y00409793D01*
X00658570Y00411248D01*
X00658808Y00412698D01*
X00659082Y00414142D01*
X00659391Y00415578D01*
X00659734Y00417007D01*
X00660112Y00418427D01*
X00660525Y00419838D01*
X00660972Y00421238D01*
X00661453Y00422626D01*
X00661967Y00424003D01*
X00662515Y00425366D01*
X00663096Y00426716D01*
X00663709Y00428052D01*
X00664355Y00429372D01*
X00665032Y00430676D01*
X00665741Y00431963D01*
X00666481Y00433232D01*
X00667252Y00434483D01*
X00668053Y00435715D01*
X00668884Y00436927D01*
X00669744Y00438119D01*
X00670633Y00439289D01*
X00671550Y00440438D01*
X00672494Y00441563D01*
X00673466Y00442666D01*
X00674464Y00443744D01*
X00675488Y00444798D01*
X00676537Y00445827D01*
X00677612Y00446830D01*
X00678710Y00447806D01*
X00679831Y00448756D01*
X00680976Y00449677D01*
X00681325Y00449228D01*
X00680192Y00448315D01*
X00679081Y00447375D01*
X00677993Y00446408D01*
X00676929Y00445414D01*
X00675890Y00444395D01*
X00674875Y00443351D01*
X00673887Y00442283D01*
X00672924Y00441191D01*
X00671989Y00440076D01*
X00671081Y00438939D01*
X00670201Y00437780D01*
X00669349Y00436599D01*
X00668526Y00435399D01*
X00667733Y00434178D01*
X00666969Y00432939D01*
X00666236Y00431682D01*
X00665534Y00430407D01*
X00664863Y00429115D01*
X00664223Y00427808D01*
X00663616Y00426485D01*
X00663040Y00425148D01*
X00662498Y00423798D01*
X00661988Y00422434D01*
X00661512Y00421059D01*
X00661070Y00419672D01*
X00660661Y00418275D01*
X00660286Y00416869D01*
X00659946Y00415454D01*
X00659640Y00414031D01*
X00659369Y00412601D01*
X00659132Y00411164D01*
X00658931Y00409723D01*
X00658765Y00408277D01*
X00658634Y00406827D01*
X00658538Y00405375D01*
X00658478Y00403921D01*
X00658453Y00402465D01*
X00659022Y00402465D01*
X00659047Y00403907D01*
X00659106Y00405347D01*
X00659201Y00406785D01*
X00659331Y00408221D01*
X00659496Y00409653D01*
X00659695Y00411081D01*
X00659929Y00412503D01*
X00660198Y00413919D01*
X00660501Y00415329D01*
X00660838Y00416730D01*
X00661209Y00418123D01*
X00661614Y00419507D01*
X00662052Y00420880D01*
X00662524Y00422242D01*
X00663029Y00423592D01*
X00663566Y00424930D01*
X00664136Y00426254D01*
X00664737Y00427564D01*
X00665371Y00428859D01*
X00666035Y00430138D01*
X00666731Y00431401D01*
X00667457Y00432646D01*
X00668213Y00433873D01*
X00668999Y00435082D01*
X00669814Y00436271D01*
X00670657Y00437440D01*
X00671529Y00438588D01*
X00672428Y00439715D01*
X00673355Y00440819D01*
X00674308Y00441900D01*
X00675287Y00442958D01*
X00676292Y00443992D01*
X00677321Y00445002D01*
X00678374Y00445985D01*
X00679452Y00446943D01*
X00680552Y00447875D01*
X00681674Y00448779D01*
X00682024Y00448330D01*
X00680912Y00447434D01*
X00679823Y00446512D01*
X00678756Y00445563D01*
X00677713Y00444589D01*
X00676693Y00443589D01*
X00675699Y00442566D01*
X00674729Y00441518D01*
X00673785Y00440447D01*
X00672868Y00439353D01*
X00671977Y00438237D01*
X00671114Y00437101D01*
X00670278Y00435943D01*
X00669472Y00434765D01*
X00668693Y00433569D01*
X00667945Y00432353D01*
X00667226Y00431120D01*
X00666537Y00429870D01*
X00665879Y00428603D01*
X00665251Y00427320D01*
X00664656Y00426023D01*
X00664091Y00424712D01*
X00663559Y00423387D01*
X00663060Y00422050D01*
X00662593Y00420701D01*
X00662158Y00419341D01*
X00661757Y00417971D01*
X00661390Y00416592D01*
X00661056Y00415204D01*
X00660756Y00413808D01*
X00660490Y00412406D01*
X00660258Y00410997D01*
X00660060Y00409583D01*
X00659897Y00408165D01*
X00659769Y00406743D01*
X00659675Y00405319D01*
X00659615Y00403893D01*
X00659591Y00402465D01*
X00660160Y00402465D01*
X00660184Y00403879D01*
X00660243Y00405291D01*
X00660336Y00406701D01*
X00660464Y00408109D01*
X00660625Y00409513D01*
X00660821Y00410913D01*
X00661051Y00412308D01*
X00661314Y00413697D01*
X00661611Y00415079D01*
X00661942Y00416453D01*
X00662306Y00417819D01*
X00662703Y00419176D01*
X00663133Y00420522D01*
X00663595Y00421858D01*
X00664090Y00423182D01*
X00664617Y00424494D01*
X00665176Y00425792D01*
X00665766Y00427077D01*
X00666387Y00428347D01*
X00667038Y00429601D01*
X00667721Y00430839D01*
X00668432Y00432060D01*
X00669174Y00433264D01*
X00669944Y00434449D01*
X00670743Y00435615D01*
X00671570Y00436761D01*
X00672425Y00437887D01*
X00673307Y00438992D01*
X00674216Y00440075D01*
X00675150Y00441135D01*
X00676110Y00442173D01*
X00677095Y00443187D01*
X00678104Y00444176D01*
X00679137Y00445141D01*
X00680194Y00446080D01*
X00681272Y00446994D01*
X00682373Y00447881D01*
X00682722Y00447432D01*
X00681633Y00446553D01*
X00680565Y00445649D01*
X00679519Y00444719D01*
X00678496Y00443763D01*
X00677497Y00442784D01*
X00676522Y00441780D01*
X00675571Y00440752D01*
X00674646Y00439702D01*
X00673746Y00438630D01*
X00672873Y00437536D01*
X00672027Y00436422D01*
X00671208Y00435287D01*
X00670417Y00434132D01*
X00669654Y00432959D01*
X00668920Y00431767D01*
X00668215Y00430558D01*
X00667540Y00429332D01*
X00666895Y00428090D01*
X00666280Y00426833D01*
X00665696Y00425561D01*
X00665143Y00424276D01*
X00664621Y00422977D01*
X00664131Y00421666D01*
X00663673Y00420343D01*
X00663247Y00419010D01*
X00662854Y00417667D01*
X00662494Y00416315D01*
X00662166Y00414954D01*
X00661872Y00413586D01*
X00661611Y00412211D01*
X00661384Y00410830D01*
X00661190Y00409444D01*
X00661030Y00408053D01*
X00660904Y00406659D01*
X00660811Y00405263D01*
X00660753Y00403865D01*
X00660729Y00402465D01*
X00756166Y00352186D02*
X00752926Y00356506D01*
X00752927Y00356506D02*
X00754018Y00357354D01*
X00755089Y00358229D01*
X00756138Y00359129D01*
X00757165Y00360054D01*
X00758170Y00361004D01*
X00759151Y00361977D01*
X00760109Y00362974D01*
X00761042Y00363994D01*
X00761950Y00365036D01*
X00762833Y00366100D01*
X00763691Y00367185D01*
X00764521Y00368290D01*
X00765325Y00369414D01*
X00766101Y00370558D01*
X00766850Y00371720D01*
X00767570Y00372900D01*
X00768262Y00374097D01*
X00768925Y00375311D01*
X00769558Y00376540D01*
X00770161Y00377784D01*
X00770734Y00379042D01*
X00771277Y00380313D01*
X00771788Y00381597D01*
X00772269Y00382894D01*
X00772718Y00384201D01*
X00773136Y00385519D01*
X00773521Y00386846D01*
X00773875Y00388183D01*
X00774196Y00389527D01*
X00774485Y00390879D01*
X00774741Y00392238D01*
X00774964Y00393602D01*
X00775154Y00394972D01*
X00775311Y00396345D01*
X00775434Y00397722D01*
X00775525Y00399102D01*
X00775582Y00400483D01*
X00775606Y00401865D01*
X00781006Y00401866D01*
X00781006Y00401865D01*
X00780981Y00400351D01*
X00780919Y00398838D01*
X00780820Y00397327D01*
X00780685Y00395819D01*
X00780514Y00394314D01*
X00780306Y00392815D01*
X00780062Y00391320D01*
X00779782Y00389832D01*
X00779466Y00388351D01*
X00779115Y00386878D01*
X00778728Y00385414D01*
X00778306Y00383960D01*
X00777849Y00382516D01*
X00777357Y00381084D01*
X00776831Y00379665D01*
X00776270Y00378258D01*
X00775676Y00376865D01*
X00775048Y00375487D01*
X00774388Y00374125D01*
X00773694Y00372779D01*
X00772968Y00371450D01*
X00772211Y00370139D01*
X00771422Y00368846D01*
X00770601Y00367573D01*
X00769751Y00366321D01*
X00768870Y00365089D01*
X00767960Y00363879D01*
X00767021Y00362691D01*
X00766054Y00361526D01*
X00765058Y00360385D01*
X00764036Y00359268D01*
X00762987Y00358176D01*
X00761911Y00357110D01*
X00760811Y00356070D01*
X00759685Y00355057D01*
X00758536Y00354072D01*
X00757362Y00353114D01*
X00756167Y00352186D01*
X00755825Y00352641D01*
X00757010Y00353561D01*
X00758172Y00354510D01*
X00759311Y00355486D01*
X00760427Y00356490D01*
X00761517Y00357520D01*
X00762583Y00358577D01*
X00763622Y00359659D01*
X00764635Y00360765D01*
X00765621Y00361896D01*
X00766580Y00363050D01*
X00767510Y00364227D01*
X00768412Y00365426D01*
X00769285Y00366647D01*
X00770127Y00367888D01*
X00770940Y00369149D01*
X00771722Y00370430D01*
X00772472Y00371729D01*
X00773192Y00373045D01*
X00773879Y00374379D01*
X00774533Y00375729D01*
X00775155Y00377094D01*
X00775744Y00378474D01*
X00776299Y00379868D01*
X00776821Y00381275D01*
X00777308Y00382694D01*
X00777761Y00384124D01*
X00778179Y00385565D01*
X00778563Y00387016D01*
X00778911Y00388475D01*
X00779224Y00389942D01*
X00779501Y00391417D01*
X00779743Y00392898D01*
X00779949Y00394384D01*
X00780119Y00395874D01*
X00780253Y00397369D01*
X00780350Y00398866D01*
X00780412Y00400365D01*
X00780437Y00401865D01*
X00779868Y00401865D01*
X00779843Y00400379D01*
X00779782Y00398894D01*
X00779685Y00397410D01*
X00779552Y00395930D01*
X00779384Y00394453D01*
X00779180Y00392981D01*
X00778941Y00391514D01*
X00778666Y00390053D01*
X00778356Y00388599D01*
X00778011Y00387153D01*
X00777631Y00385716D01*
X00777216Y00384289D01*
X00776768Y00382871D01*
X00776285Y00381466D01*
X00775768Y00380072D01*
X00775218Y00378691D01*
X00774635Y00377324D01*
X00774018Y00375971D01*
X00773370Y00374634D01*
X00772689Y00373312D01*
X00771977Y00372008D01*
X00771233Y00370721D01*
X00770458Y00369452D01*
X00769653Y00368202D01*
X00768818Y00366973D01*
X00767954Y00365763D01*
X00767060Y00364575D01*
X00766139Y00363409D01*
X00765189Y00362266D01*
X00764212Y00361145D01*
X00763208Y00360049D01*
X00762178Y00358977D01*
X00761123Y00357931D01*
X00760042Y00356910D01*
X00758938Y00355915D01*
X00757809Y00354948D01*
X00756658Y00354008D01*
X00755484Y00353096D01*
X00755142Y00353551D01*
X00756305Y00354455D01*
X00757446Y00355386D01*
X00758564Y00356344D01*
X00759658Y00357330D01*
X00760729Y00358341D01*
X00761774Y00359378D01*
X00762794Y00360440D01*
X00763789Y00361526D01*
X00764757Y00362636D01*
X00765697Y00363768D01*
X00766611Y00364924D01*
X00767496Y00366101D01*
X00768352Y00367299D01*
X00769179Y00368517D01*
X00769976Y00369755D01*
X00770744Y00371012D01*
X00771481Y00372287D01*
X00772186Y00373579D01*
X00772861Y00374888D01*
X00773503Y00376213D01*
X00774114Y00377553D01*
X00774692Y00378908D01*
X00775237Y00380276D01*
X00775749Y00381656D01*
X00776227Y00383049D01*
X00776672Y00384453D01*
X00777082Y00385867D01*
X00777458Y00387291D01*
X00777800Y00388723D01*
X00778108Y00390163D01*
X00778380Y00391610D01*
X00778617Y00393064D01*
X00778819Y00394522D01*
X00778986Y00395985D01*
X00779118Y00397452D01*
X00779214Y00398921D01*
X00779274Y00400393D01*
X00779299Y00401865D01*
X00778730Y00401865D01*
X00778705Y00400407D01*
X00778645Y00398949D01*
X00778550Y00397494D01*
X00778420Y00396041D01*
X00778254Y00394591D01*
X00778054Y00393147D01*
X00777819Y00391707D01*
X00777549Y00390273D01*
X00777245Y00388847D01*
X00776906Y00387428D01*
X00776534Y00386018D01*
X00776127Y00384617D01*
X00775686Y00383226D01*
X00775212Y00381847D01*
X00774705Y00380479D01*
X00774166Y00379124D01*
X00773593Y00377782D01*
X00772988Y00376455D01*
X00772352Y00375143D01*
X00771684Y00373846D01*
X00770985Y00372566D01*
X00770255Y00371303D01*
X00769495Y00370058D01*
X00768705Y00368831D01*
X00767885Y00367625D01*
X00767037Y00366438D01*
X00766161Y00365272D01*
X00765256Y00364128D01*
X00764324Y00363005D01*
X00763366Y00361906D01*
X00762381Y00360830D01*
X00761370Y00359778D01*
X00760334Y00358751D01*
X00759274Y00357749D01*
X00758190Y00356773D01*
X00757083Y00355824D01*
X00755953Y00354901D01*
X00754801Y00354006D01*
X00754460Y00354462D01*
X00755600Y00355348D01*
X00756720Y00356262D01*
X00757816Y00357202D01*
X00758890Y00358169D01*
X00759940Y00359161D01*
X00760966Y00360179D01*
X00761967Y00361221D01*
X00762942Y00362286D01*
X00763892Y00363375D01*
X00764815Y00364487D01*
X00765711Y00365620D01*
X00766579Y00366775D01*
X00767419Y00367951D01*
X00768231Y00369146D01*
X00769013Y00370361D01*
X00769766Y00371594D01*
X00770489Y00372845D01*
X00771181Y00374113D01*
X00771843Y00375397D01*
X00772473Y00376697D01*
X00773072Y00378012D01*
X00773639Y00379341D01*
X00774174Y00380683D01*
X00774676Y00382038D01*
X00775146Y00383404D01*
X00775582Y00384781D01*
X00775985Y00386169D01*
X00776354Y00387566D01*
X00776690Y00388971D01*
X00776991Y00390384D01*
X00777258Y00391804D01*
X00777491Y00393230D01*
X00777690Y00394661D01*
X00777854Y00396096D01*
X00777983Y00397535D01*
X00778077Y00398977D01*
X00778137Y00400420D01*
X00778161Y00401865D01*
X00777592Y00401865D01*
X00777568Y00400434D01*
X00777509Y00399005D01*
X00777415Y00397577D01*
X00777287Y00396152D01*
X00777125Y00394730D01*
X00776928Y00393313D01*
X00776698Y00391900D01*
X00776433Y00390494D01*
X00776134Y00389095D01*
X00775802Y00387703D01*
X00775436Y00386320D01*
X00775037Y00384946D01*
X00774605Y00383581D01*
X00774140Y00382228D01*
X00773643Y00380886D01*
X00773113Y00379557D01*
X00772552Y00378241D01*
X00771958Y00376939D01*
X00771334Y00375651D01*
X00770679Y00374379D01*
X00769993Y00373124D01*
X00769277Y00371885D01*
X00768531Y00370663D01*
X00767756Y00369461D01*
X00766953Y00368277D01*
X00766121Y00367112D01*
X00765261Y00365969D01*
X00764374Y00364846D01*
X00763460Y00363745D01*
X00762519Y00362667D01*
X00761553Y00361611D01*
X00760562Y00360579D01*
X00759546Y00359572D01*
X00758506Y00358589D01*
X00757442Y00357631D01*
X00756356Y00356700D01*
X00755248Y00355795D01*
X00754118Y00354917D01*
X00753777Y00355372D01*
X00754896Y00356242D01*
X00755993Y00357138D01*
X00757069Y00358060D01*
X00758122Y00359009D01*
X00759152Y00359982D01*
X00760158Y00360980D01*
X00761139Y00362002D01*
X00762096Y00363047D01*
X00763027Y00364115D01*
X00763932Y00365205D01*
X00764811Y00366317D01*
X00765662Y00367450D01*
X00766486Y00368603D01*
X00767282Y00369775D01*
X00768050Y00370966D01*
X00768788Y00372176D01*
X00769497Y00373403D01*
X00770176Y00374646D01*
X00770825Y00375906D01*
X00771443Y00377181D01*
X00772031Y00378470D01*
X00772587Y00379774D01*
X00773112Y00381090D01*
X00773604Y00382419D01*
X00774065Y00383759D01*
X00774492Y00385110D01*
X00774888Y00386471D01*
X00775250Y00387841D01*
X00775579Y00389219D01*
X00775875Y00390605D01*
X00776137Y00391997D01*
X00776365Y00393396D01*
X00776560Y00394799D01*
X00776721Y00396207D01*
X00776848Y00397618D01*
X00776940Y00399032D01*
X00776999Y00400448D01*
X00777023Y00401865D01*
X00776454Y00401865D01*
X00776430Y00400462D01*
X00776372Y00399060D01*
X00776280Y00397660D01*
X00776155Y00396263D01*
X00775995Y00394868D01*
X00775803Y00393479D01*
X00775576Y00392094D01*
X00775317Y00390715D01*
X00775024Y00389343D01*
X00774698Y00387978D01*
X00774339Y00386621D01*
X00773948Y00385274D01*
X00773524Y00383936D01*
X00773068Y00382609D01*
X00772580Y00381294D01*
X00772061Y00379990D01*
X00771510Y00378700D01*
X00770928Y00377423D01*
X00770316Y00376160D01*
X00769674Y00374913D01*
X00769001Y00373682D01*
X00768299Y00372467D01*
X00767568Y00371269D01*
X00766808Y00370090D01*
X00766020Y00368929D01*
X00765204Y00367787D01*
X00764361Y00366665D01*
X00763491Y00365565D01*
X00762595Y00364485D01*
X00761673Y00363427D01*
X00760725Y00362392D01*
X00759753Y00361380D01*
X00758757Y00360392D01*
X00757738Y00359428D01*
X00756695Y00358489D01*
X00755630Y00357576D01*
X00754543Y00356688D01*
X00753435Y00355827D01*
X00753094Y00356282D01*
X00754191Y00357135D01*
X00755267Y00358014D01*
X00756321Y00358918D01*
X00757353Y00359848D01*
X00758363Y00360802D01*
X00759349Y00361781D01*
X00760312Y00362783D01*
X00761250Y00363808D01*
X00762162Y00364855D01*
X00763050Y00365924D01*
X00763911Y00367014D01*
X00764746Y00368124D01*
X00765554Y00369255D01*
X00766334Y00370404D01*
X00767086Y00371572D01*
X00767810Y00372758D01*
X00768505Y00373961D01*
X00769171Y00375180D01*
X00769807Y00376415D01*
X00770413Y00377665D01*
X00770989Y00378929D01*
X00771535Y00380207D01*
X00772049Y00381497D01*
X00772532Y00382800D01*
X00772983Y00384114D01*
X00773403Y00385438D01*
X00773790Y00386772D01*
X00774146Y00388115D01*
X00774468Y00389467D01*
X00774758Y00390825D01*
X00775015Y00392191D01*
X00775240Y00393562D01*
X00775431Y00394938D01*
X00775588Y00396318D01*
X00775713Y00397702D01*
X00775804Y00399088D01*
X00775861Y00400476D01*
X00775885Y00401865D01*
X00685151Y00243128D02*
X00688524Y00238911D01*
X00688524Y00238912D02*
X00687631Y00238170D01*
X00686757Y00237407D01*
X00685902Y00236622D01*
X00685066Y00235816D01*
X00684251Y00234991D01*
X00683456Y00234145D01*
X00682682Y00233281D01*
X00681929Y00232397D01*
X00681198Y00231495D01*
X00680490Y00230576D01*
X00679804Y00229640D01*
X00679142Y00228687D01*
X00678503Y00227718D01*
X00677888Y00226734D01*
X00677297Y00225735D01*
X00676731Y00224721D01*
X00676190Y00223694D01*
X00675675Y00222655D01*
X00675185Y00221602D01*
X00674721Y00220539D01*
X00674283Y00219464D01*
X00673872Y00218378D01*
X00673488Y00217283D01*
X00673130Y00216179D01*
X00672800Y00215066D01*
X00672497Y00213946D01*
X00672222Y00212819D01*
X00671975Y00211685D01*
X00671755Y00210545D01*
X00671563Y00209400D01*
X00671400Y00208251D01*
X00671265Y00207099D01*
X00671158Y00205943D01*
X00671080Y00204785D01*
X00671030Y00203625D01*
X00671008Y00202465D01*
X00665608Y00202464D01*
X00665608Y00202465D01*
X00665630Y00203725D01*
X00665682Y00204984D01*
X00665765Y00206241D01*
X00665877Y00207496D01*
X00666020Y00208748D01*
X00666192Y00209996D01*
X00666394Y00211240D01*
X00666626Y00212478D01*
X00666887Y00213711D01*
X00667178Y00214937D01*
X00667498Y00216156D01*
X00667847Y00217366D01*
X00668225Y00218568D01*
X00668631Y00219761D01*
X00669066Y00220944D01*
X00669529Y00222115D01*
X00670020Y00223276D01*
X00670538Y00224424D01*
X00671084Y00225560D01*
X00671657Y00226682D01*
X00672256Y00227790D01*
X00672882Y00228884D01*
X00673534Y00229962D01*
X00674211Y00231025D01*
X00674914Y00232071D01*
X00675641Y00233100D01*
X00676393Y00234111D01*
X00677168Y00235104D01*
X00677968Y00236078D01*
X00678790Y00237033D01*
X00679635Y00237967D01*
X00680502Y00238882D01*
X00681390Y00239775D01*
X00682300Y00240647D01*
X00683230Y00241497D01*
X00684180Y00242324D01*
X00685150Y00243128D01*
X00685506Y00242684D01*
X00684547Y00241889D01*
X00683607Y00241070D01*
X00682687Y00240230D01*
X00681787Y00239367D01*
X00680908Y00238484D01*
X00680051Y00237579D01*
X00679215Y00236655D01*
X00678402Y00235710D01*
X00677611Y00234747D01*
X00676844Y00233765D01*
X00676101Y00232765D01*
X00675381Y00231747D01*
X00674687Y00230712D01*
X00674017Y00229662D01*
X00673372Y00228595D01*
X00672753Y00227513D01*
X00672160Y00226417D01*
X00671594Y00225307D01*
X00671054Y00224184D01*
X00670541Y00223048D01*
X00670056Y00221900D01*
X00669598Y00220741D01*
X00669168Y00219572D01*
X00668766Y00218392D01*
X00668392Y00217203D01*
X00668047Y00216006D01*
X00667730Y00214800D01*
X00667443Y00213588D01*
X00667184Y00212369D01*
X00666955Y00211144D01*
X00666755Y00209914D01*
X00666584Y00208679D01*
X00666444Y00207441D01*
X00666332Y00206200D01*
X00666251Y00204956D01*
X00666199Y00203711D01*
X00666177Y00202465D01*
X00666746Y00202465D01*
X00666768Y00203697D01*
X00666819Y00204929D01*
X00666900Y00206158D01*
X00667010Y00207386D01*
X00667149Y00208610D01*
X00667318Y00209831D01*
X00667516Y00211048D01*
X00667742Y00212259D01*
X00667998Y00213465D01*
X00668283Y00214664D01*
X00668596Y00215856D01*
X00668937Y00217040D01*
X00669307Y00218216D01*
X00669704Y00219382D01*
X00670130Y00220539D01*
X00670582Y00221685D01*
X00671063Y00222820D01*
X00671570Y00223944D01*
X00672104Y00225055D01*
X00672664Y00226152D01*
X00673250Y00227236D01*
X00673862Y00228306D01*
X00674500Y00229361D01*
X00675162Y00230400D01*
X00675849Y00231423D01*
X00676561Y00232430D01*
X00677296Y00233419D01*
X00678055Y00234390D01*
X00678836Y00235343D01*
X00679640Y00236277D01*
X00680467Y00237191D01*
X00681315Y00238086D01*
X00682184Y00238959D01*
X00683073Y00239812D01*
X00683983Y00240644D01*
X00684913Y00241453D01*
X00685861Y00242240D01*
X00686217Y00241796D01*
X00685279Y00241017D01*
X00684360Y00240217D01*
X00683460Y00239395D01*
X00682581Y00238552D01*
X00681721Y00237687D01*
X00680883Y00236803D01*
X00680066Y00235899D01*
X00679271Y00234975D01*
X00678498Y00234033D01*
X00677748Y00233073D01*
X00677021Y00232095D01*
X00676317Y00231099D01*
X00675638Y00230088D01*
X00674983Y00229060D01*
X00674352Y00228017D01*
X00673747Y00226959D01*
X00673167Y00225887D01*
X00672613Y00224802D01*
X00672086Y00223703D01*
X00671584Y00222593D01*
X00671109Y00221470D01*
X00670661Y00220337D01*
X00670241Y00219193D01*
X00669848Y00218040D01*
X00669482Y00216877D01*
X00669145Y00215706D01*
X00668835Y00214527D01*
X00668554Y00213342D01*
X00668301Y00212150D01*
X00668077Y00210952D01*
X00667881Y00209749D01*
X00667714Y00208542D01*
X00667576Y00207331D01*
X00667467Y00206117D01*
X00667387Y00204901D01*
X00667337Y00203683D01*
X00667315Y00202465D01*
X00667884Y00202465D01*
X00667905Y00203670D01*
X00667956Y00204873D01*
X00668035Y00206076D01*
X00668143Y00207276D01*
X00668279Y00208473D01*
X00668444Y00209667D01*
X00668637Y00210856D01*
X00668859Y00212040D01*
X00669109Y00213219D01*
X00669387Y00214391D01*
X00669693Y00215556D01*
X00670027Y00216714D01*
X00670389Y00217864D01*
X00670777Y00219004D01*
X00671193Y00220135D01*
X00671636Y00221255D01*
X00672106Y00222365D01*
X00672601Y00223463D01*
X00673123Y00224549D01*
X00673671Y00225622D01*
X00674244Y00226682D01*
X00674843Y00227728D01*
X00675466Y00228759D01*
X00676113Y00229775D01*
X00676785Y00230776D01*
X00677480Y00231759D01*
X00678199Y00232727D01*
X00678941Y00233676D01*
X00679705Y00234608D01*
X00680491Y00235521D01*
X00681299Y00236415D01*
X00682128Y00237289D01*
X00682977Y00238144D01*
X00683847Y00238978D01*
X00684736Y00239790D01*
X00685645Y00240582D01*
X00686572Y00241351D01*
X00686928Y00240907D01*
X00686011Y00240146D01*
X00685113Y00239364D01*
X00684234Y00238560D01*
X00683374Y00237736D01*
X00682534Y00236891D01*
X00681715Y00236027D01*
X00680916Y00235143D01*
X00680139Y00234240D01*
X00679384Y00233319D01*
X00678651Y00232380D01*
X00677940Y00231424D01*
X00677253Y00230452D01*
X00676589Y00229463D01*
X00675949Y00228458D01*
X00675333Y00227439D01*
X00674741Y00226405D01*
X00674175Y00225357D01*
X00673633Y00224297D01*
X00673117Y00223223D01*
X00672627Y00222137D01*
X00672163Y00221040D01*
X00671725Y00219933D01*
X00671314Y00218815D01*
X00670930Y00217687D01*
X00670572Y00216551D01*
X00670242Y00215407D01*
X00669940Y00214255D01*
X00669665Y00213096D01*
X00669418Y00211931D01*
X00669198Y00210760D01*
X00669007Y00209584D01*
X00668844Y00208404D01*
X00668709Y00207221D01*
X00668602Y00206034D01*
X00668524Y00204846D01*
X00668474Y00203656D01*
X00668453Y00202465D01*
X00669022Y00202465D01*
X00669043Y00203642D01*
X00669092Y00204818D01*
X00669170Y00205993D01*
X00669275Y00207166D01*
X00669409Y00208336D01*
X00669570Y00209502D01*
X00669759Y00210664D01*
X00669976Y00211821D01*
X00670220Y00212973D01*
X00670492Y00214118D01*
X00670791Y00215257D01*
X00671118Y00216388D01*
X00671471Y00217511D01*
X00671851Y00218626D01*
X00672257Y00219730D01*
X00672690Y00220825D01*
X00673148Y00221910D01*
X00673633Y00222983D01*
X00674143Y00224044D01*
X00674678Y00225093D01*
X00675238Y00226128D01*
X00675823Y00227150D01*
X00676432Y00228158D01*
X00677064Y00229150D01*
X00677721Y00230128D01*
X00678400Y00231089D01*
X00679103Y00232034D01*
X00679827Y00232962D01*
X00680574Y00233873D01*
X00681342Y00234765D01*
X00682131Y00235638D01*
X00682941Y00236493D01*
X00683771Y00237328D01*
X00684621Y00238143D01*
X00685490Y00238937D01*
X00686377Y00239711D01*
X00687283Y00240463D01*
X00687639Y00240018D01*
X00686743Y00239275D01*
X00685866Y00238511D01*
X00685007Y00237726D01*
X00684168Y00236920D01*
X00683347Y00236095D01*
X00682547Y00235250D01*
X00681767Y00234387D01*
X00681008Y00233505D01*
X00680270Y00232605D01*
X00679554Y00231688D01*
X00678860Y00230754D01*
X00678189Y00229804D01*
X00677540Y00228838D01*
X00676915Y00227857D01*
X00676313Y00226861D01*
X00675735Y00225851D01*
X00675182Y00224828D01*
X00674653Y00223791D01*
X00674149Y00222743D01*
X00673670Y00221682D01*
X00673217Y00220610D01*
X00672789Y00219528D01*
X00672387Y00218436D01*
X00672012Y00217335D01*
X00671663Y00216225D01*
X00671340Y00215107D01*
X00671045Y00213982D01*
X00670776Y00212850D01*
X00670534Y00211711D01*
X00670320Y00210568D01*
X00670133Y00209419D01*
X00669974Y00208267D01*
X00669842Y00207111D01*
X00669737Y00205952D01*
X00669661Y00204791D01*
X00669612Y00203628D01*
X00669591Y00202465D01*
X00670160Y00202465D01*
X00670181Y00203615D01*
X00670229Y00204763D01*
X00670305Y00205911D01*
X00670408Y00207056D01*
X00670538Y00208198D01*
X00670696Y00209337D01*
X00670881Y00210472D01*
X00671093Y00211602D01*
X00671331Y00212727D01*
X00671597Y00213845D01*
X00671889Y00214957D01*
X00672208Y00216062D01*
X00672553Y00217159D01*
X00672924Y00218247D01*
X00673321Y00219326D01*
X00673743Y00220395D01*
X00674191Y00221454D01*
X00674665Y00222502D01*
X00675163Y00223539D01*
X00675685Y00224563D01*
X00676232Y00225574D01*
X00676803Y00226572D01*
X00677398Y00227556D01*
X00678016Y00228526D01*
X00678657Y00229480D01*
X00679320Y00230419D01*
X00680006Y00231342D01*
X00680713Y00232248D01*
X00681442Y00233137D01*
X00682192Y00234009D01*
X00682963Y00234862D01*
X00683754Y00235697D01*
X00684564Y00236512D01*
X00685394Y00237308D01*
X00686243Y00238084D01*
X00687110Y00238840D01*
X00687994Y00239574D01*
X00688350Y00239130D01*
X00687452Y00238383D01*
X00686572Y00237615D01*
X00685712Y00236826D01*
X00684871Y00236016D01*
X00684051Y00235185D01*
X00683251Y00234335D01*
X00682472Y00233465D01*
X00681715Y00232576D01*
X00680980Y00231669D01*
X00680267Y00230744D01*
X00679577Y00229802D01*
X00678911Y00228844D01*
X00678268Y00227869D01*
X00677649Y00226879D01*
X00677055Y00225874D01*
X00676486Y00224854D01*
X00675942Y00223821D01*
X00675423Y00222775D01*
X00674931Y00221717D01*
X00674464Y00220647D01*
X00674024Y00219565D01*
X00673610Y00218474D01*
X00673223Y00217372D01*
X00672864Y00216261D01*
X00672532Y00215142D01*
X00672227Y00214015D01*
X00671950Y00212880D01*
X00671701Y00211740D01*
X00671480Y00210593D01*
X00671288Y00209442D01*
X00671123Y00208286D01*
X00670987Y00207126D01*
X00670880Y00205964D01*
X00670801Y00204799D01*
X00670751Y00203632D01*
X00670729Y00202465D01*
X00751463Y00161202D02*
X00748090Y00165419D01*
X00748090Y00165418D02*
X00748983Y00166160D01*
X00749857Y00166923D01*
X00750712Y00167708D01*
X00751548Y00168514D01*
X00752363Y00169339D01*
X00753158Y00170185D01*
X00753932Y00171049D01*
X00754685Y00171933D01*
X00755416Y00172835D01*
X00756124Y00173754D01*
X00756810Y00174690D01*
X00757472Y00175643D01*
X00758111Y00176612D01*
X00758726Y00177596D01*
X00759317Y00178595D01*
X00759883Y00179609D01*
X00760424Y00180636D01*
X00760939Y00181675D01*
X00761429Y00182728D01*
X00761893Y00183791D01*
X00762331Y00184866D01*
X00762742Y00185952D01*
X00763126Y00187047D01*
X00763484Y00188151D01*
X00763814Y00189264D01*
X00764117Y00190384D01*
X00764392Y00191511D01*
X00764639Y00192645D01*
X00764859Y00193785D01*
X00765051Y00194930D01*
X00765214Y00196079D01*
X00765349Y00197231D01*
X00765456Y00198387D01*
X00765534Y00199545D01*
X00765584Y00200705D01*
X00765606Y00201865D01*
X00771006Y00201866D01*
X00771006Y00201865D01*
X00770984Y00200605D01*
X00770932Y00199346D01*
X00770849Y00198089D01*
X00770737Y00196834D01*
X00770594Y00195582D01*
X00770422Y00194334D01*
X00770220Y00193090D01*
X00769988Y00191852D01*
X00769727Y00190619D01*
X00769436Y00189393D01*
X00769116Y00188174D01*
X00768767Y00186964D01*
X00768389Y00185762D01*
X00767983Y00184569D01*
X00767548Y00183386D01*
X00767085Y00182215D01*
X00766594Y00181054D01*
X00766076Y00179906D01*
X00765530Y00178770D01*
X00764957Y00177648D01*
X00764358Y00176540D01*
X00763732Y00175446D01*
X00763080Y00174368D01*
X00762403Y00173305D01*
X00761700Y00172259D01*
X00760973Y00171230D01*
X00760221Y00170219D01*
X00759446Y00169226D01*
X00758646Y00168252D01*
X00757824Y00167297D01*
X00756979Y00166363D01*
X00756112Y00165448D01*
X00755224Y00164555D01*
X00754314Y00163683D01*
X00753384Y00162833D01*
X00752434Y00162006D01*
X00751464Y00161202D01*
X00751108Y00161646D01*
X00752067Y00162441D01*
X00753007Y00163260D01*
X00753927Y00164100D01*
X00754827Y00164963D01*
X00755706Y00165846D01*
X00756563Y00166751D01*
X00757399Y00167675D01*
X00758212Y00168620D01*
X00759003Y00169583D01*
X00759770Y00170565D01*
X00760513Y00171565D01*
X00761233Y00172583D01*
X00761927Y00173618D01*
X00762597Y00174668D01*
X00763242Y00175735D01*
X00763861Y00176817D01*
X00764454Y00177913D01*
X00765020Y00179023D01*
X00765560Y00180146D01*
X00766073Y00181282D01*
X00766558Y00182430D01*
X00767016Y00183589D01*
X00767446Y00184758D01*
X00767848Y00185938D01*
X00768222Y00187127D01*
X00768567Y00188324D01*
X00768884Y00189530D01*
X00769171Y00190742D01*
X00769430Y00191961D01*
X00769659Y00193186D01*
X00769859Y00194416D01*
X00770030Y00195651D01*
X00770170Y00196889D01*
X00770282Y00198130D01*
X00770363Y00199374D01*
X00770415Y00200619D01*
X00770437Y00201865D01*
X00769868Y00201865D01*
X00769846Y00200633D01*
X00769795Y00199401D01*
X00769714Y00198172D01*
X00769604Y00196944D01*
X00769465Y00195720D01*
X00769296Y00194499D01*
X00769098Y00193282D01*
X00768872Y00192071D01*
X00768616Y00190865D01*
X00768331Y00189666D01*
X00768018Y00188474D01*
X00767677Y00187290D01*
X00767307Y00186114D01*
X00766910Y00184948D01*
X00766484Y00183791D01*
X00766032Y00182645D01*
X00765551Y00181510D01*
X00765044Y00180386D01*
X00764510Y00179275D01*
X00763950Y00178178D01*
X00763364Y00177094D01*
X00762752Y00176024D01*
X00762114Y00174969D01*
X00761452Y00173930D01*
X00760765Y00172907D01*
X00760053Y00171900D01*
X00759318Y00170911D01*
X00758559Y00169940D01*
X00757778Y00168987D01*
X00756974Y00168053D01*
X00756147Y00167139D01*
X00755299Y00166244D01*
X00754430Y00165371D01*
X00753541Y00164518D01*
X00752631Y00163686D01*
X00751701Y00162877D01*
X00750753Y00162090D01*
X00750397Y00162534D01*
X00751335Y00163313D01*
X00752254Y00164113D01*
X00753154Y00164935D01*
X00754033Y00165778D01*
X00754893Y00166643D01*
X00755731Y00167527D01*
X00756548Y00168431D01*
X00757343Y00169355D01*
X00758116Y00170297D01*
X00758866Y00171257D01*
X00759593Y00172235D01*
X00760297Y00173231D01*
X00760976Y00174242D01*
X00761631Y00175270D01*
X00762262Y00176313D01*
X00762867Y00177371D01*
X00763447Y00178443D01*
X00764001Y00179528D01*
X00764528Y00180627D01*
X00765030Y00181737D01*
X00765505Y00182860D01*
X00765953Y00183993D01*
X00766373Y00185137D01*
X00766766Y00186290D01*
X00767132Y00187453D01*
X00767469Y00188624D01*
X00767779Y00189803D01*
X00768060Y00190988D01*
X00768313Y00192180D01*
X00768537Y00193378D01*
X00768733Y00194581D01*
X00768900Y00195788D01*
X00769038Y00196999D01*
X00769147Y00198213D01*
X00769227Y00199429D01*
X00769277Y00200647D01*
X00769299Y00201865D01*
X00768730Y00201865D01*
X00768709Y00200660D01*
X00768658Y00199457D01*
X00768579Y00198254D01*
X00768471Y00197054D01*
X00768335Y00195857D01*
X00768170Y00194663D01*
X00767977Y00193474D01*
X00767755Y00192290D01*
X00767505Y00191111D01*
X00767227Y00189939D01*
X00766921Y00188774D01*
X00766587Y00187616D01*
X00766225Y00186466D01*
X00765837Y00185326D01*
X00765421Y00184195D01*
X00764978Y00183075D01*
X00764508Y00181965D01*
X00764013Y00180867D01*
X00763491Y00179781D01*
X00762943Y00178708D01*
X00762370Y00177648D01*
X00761771Y00176602D01*
X00761148Y00175571D01*
X00760501Y00174555D01*
X00759829Y00173554D01*
X00759134Y00172571D01*
X00758415Y00171603D01*
X00757673Y00170654D01*
X00756909Y00169722D01*
X00756123Y00168809D01*
X00755315Y00167915D01*
X00754486Y00167041D01*
X00753637Y00166186D01*
X00752767Y00165352D01*
X00751878Y00164540D01*
X00750969Y00163748D01*
X00750042Y00162979D01*
X00749686Y00163423D01*
X00750603Y00164184D01*
X00751501Y00164966D01*
X00752380Y00165770D01*
X00753240Y00166594D01*
X00754080Y00167439D01*
X00754899Y00168303D01*
X00755698Y00169187D01*
X00756475Y00170090D01*
X00757230Y00171011D01*
X00757963Y00171950D01*
X00758674Y00172906D01*
X00759361Y00173878D01*
X00760025Y00174867D01*
X00760665Y00175872D01*
X00761281Y00176891D01*
X00761873Y00177925D01*
X00762439Y00178973D01*
X00762981Y00180033D01*
X00763497Y00181107D01*
X00763987Y00182193D01*
X00764451Y00183290D01*
X00764889Y00184397D01*
X00765300Y00185515D01*
X00765684Y00186643D01*
X00766042Y00187779D01*
X00766372Y00188923D01*
X00766674Y00190075D01*
X00766949Y00191234D01*
X00767196Y00192399D01*
X00767416Y00193570D01*
X00767607Y00194746D01*
X00767770Y00195926D01*
X00767905Y00197109D01*
X00768012Y00198296D01*
X00768090Y00199484D01*
X00768140Y00200674D01*
X00768161Y00201865D01*
X00767592Y00201865D01*
X00767571Y00200688D01*
X00767522Y00199512D01*
X00767444Y00198337D01*
X00767339Y00197164D01*
X00767205Y00195994D01*
X00767044Y00194828D01*
X00766855Y00193666D01*
X00766638Y00192509D01*
X00766394Y00191357D01*
X00766122Y00190212D01*
X00765823Y00189073D01*
X00765496Y00187942D01*
X00765143Y00186819D01*
X00764763Y00185704D01*
X00764357Y00184600D01*
X00763924Y00183505D01*
X00763466Y00182420D01*
X00762981Y00181347D01*
X00762471Y00180286D01*
X00761936Y00179237D01*
X00761376Y00178202D01*
X00760791Y00177180D01*
X00760182Y00176172D01*
X00759550Y00175180D01*
X00758893Y00174202D01*
X00758214Y00173241D01*
X00757511Y00172296D01*
X00756787Y00171368D01*
X00756040Y00170457D01*
X00755272Y00169565D01*
X00754483Y00168692D01*
X00753673Y00167837D01*
X00752843Y00167002D01*
X00751993Y00166187D01*
X00751124Y00165393D01*
X00750237Y00164619D01*
X00749331Y00163867D01*
X00748975Y00164312D01*
X00749871Y00165055D01*
X00750748Y00165819D01*
X00751607Y00166604D01*
X00752446Y00167410D01*
X00753267Y00168235D01*
X00754067Y00169080D01*
X00754847Y00169943D01*
X00755606Y00170825D01*
X00756344Y00171725D01*
X00757060Y00172642D01*
X00757754Y00173576D01*
X00758425Y00174526D01*
X00759074Y00175492D01*
X00759699Y00176473D01*
X00760301Y00177469D01*
X00760879Y00178479D01*
X00761432Y00179502D01*
X00761961Y00180539D01*
X00762465Y00181587D01*
X00762944Y00182648D01*
X00763397Y00183720D01*
X00763825Y00184802D01*
X00764227Y00185894D01*
X00764602Y00186995D01*
X00764951Y00188105D01*
X00765274Y00189223D01*
X00765569Y00190348D01*
X00765838Y00191480D01*
X00766080Y00192619D01*
X00766294Y00193762D01*
X00766481Y00194911D01*
X00766640Y00196063D01*
X00766772Y00197219D01*
X00766877Y00198378D01*
X00766953Y00199539D01*
X00767002Y00200702D01*
X00767023Y00201865D01*
X00766454Y00201865D01*
X00766433Y00200715D01*
X00766385Y00199567D01*
X00766309Y00198419D01*
X00766206Y00197274D01*
X00766076Y00196132D01*
X00765918Y00194993D01*
X00765733Y00193858D01*
X00765521Y00192728D01*
X00765283Y00191603D01*
X00765017Y00190485D01*
X00764725Y00189373D01*
X00764406Y00188268D01*
X00764061Y00187171D01*
X00763690Y00186083D01*
X00763293Y00185004D01*
X00762871Y00183935D01*
X00762423Y00182876D01*
X00761949Y00181828D01*
X00761451Y00180791D01*
X00760929Y00179767D01*
X00760382Y00178756D01*
X00759811Y00177758D01*
X00759216Y00176774D01*
X00758598Y00175804D01*
X00757957Y00174850D01*
X00757294Y00173911D01*
X00756608Y00172988D01*
X00755901Y00172082D01*
X00755172Y00171193D01*
X00754422Y00170321D01*
X00753651Y00169468D01*
X00752860Y00168633D01*
X00752050Y00167818D01*
X00751220Y00167022D01*
X00750371Y00166246D01*
X00749504Y00165490D01*
X00748620Y00164756D01*
X00748264Y00165200D01*
X00749162Y00165947D01*
X00750042Y00166715D01*
X00750902Y00167504D01*
X00751743Y00168314D01*
X00752563Y00169145D01*
X00753363Y00169995D01*
X00754142Y00170865D01*
X00754899Y00171754D01*
X00755634Y00172661D01*
X00756347Y00173586D01*
X00757037Y00174528D01*
X00757703Y00175486D01*
X00758346Y00176461D01*
X00758965Y00177451D01*
X00759559Y00178456D01*
X00760128Y00179476D01*
X00760672Y00180509D01*
X00761191Y00181555D01*
X00761683Y00182613D01*
X00762150Y00183683D01*
X00762590Y00184765D01*
X00763004Y00185856D01*
X00763391Y00186958D01*
X00763750Y00188069D01*
X00764082Y00189188D01*
X00764387Y00190315D01*
X00764664Y00191450D01*
X00764913Y00192590D01*
X00765134Y00193737D01*
X00765326Y00194888D01*
X00765491Y00196044D01*
X00765627Y00197204D01*
X00765734Y00198366D01*
X00765813Y00199531D01*
X00765863Y00200698D01*
X00765885Y00201865D01*
X00665608Y00201866D02*
X00671008Y00201865D01*
X00671030Y00200705D01*
X00671080Y00199545D01*
X00671158Y00198387D01*
X00671265Y00197231D01*
X00671400Y00196079D01*
X00671563Y00194930D01*
X00671755Y00193785D01*
X00671975Y00192645D01*
X00672222Y00191511D01*
X00672497Y00190384D01*
X00672800Y00189264D01*
X00673130Y00188151D01*
X00673488Y00187047D01*
X00673872Y00185952D01*
X00674283Y00184866D01*
X00674721Y00183791D01*
X00675185Y00182728D01*
X00675675Y00181675D01*
X00676190Y00180636D01*
X00676731Y00179609D01*
X00677297Y00178595D01*
X00677888Y00177596D01*
X00678503Y00176612D01*
X00679142Y00175643D01*
X00679804Y00174690D01*
X00680490Y00173754D01*
X00681198Y00172835D01*
X00681929Y00171933D01*
X00682682Y00171049D01*
X00683456Y00170185D01*
X00684251Y00169339D01*
X00685066Y00168514D01*
X00685902Y00167708D01*
X00686757Y00166923D01*
X00687631Y00166160D01*
X00688524Y00165418D01*
X00685151Y00161202D01*
X00685150Y00161202D01*
X00684180Y00162006D01*
X00683230Y00162833D01*
X00682300Y00163683D01*
X00681390Y00164555D01*
X00680502Y00165448D01*
X00679635Y00166363D01*
X00678790Y00167297D01*
X00677968Y00168252D01*
X00677168Y00169226D01*
X00676393Y00170219D01*
X00675641Y00171230D01*
X00674914Y00172259D01*
X00674211Y00173305D01*
X00673534Y00174368D01*
X00672882Y00175446D01*
X00672256Y00176540D01*
X00671657Y00177648D01*
X00671084Y00178770D01*
X00670538Y00179906D01*
X00670020Y00181054D01*
X00669529Y00182215D01*
X00669066Y00183386D01*
X00668631Y00184569D01*
X00668225Y00185762D01*
X00667847Y00186964D01*
X00667498Y00188174D01*
X00667178Y00189393D01*
X00666887Y00190619D01*
X00666626Y00191852D01*
X00666394Y00193090D01*
X00666192Y00194334D01*
X00666020Y00195582D01*
X00665877Y00196834D01*
X00665765Y00198089D01*
X00665682Y00199346D01*
X00665630Y00200605D01*
X00665608Y00201865D01*
X00666177Y00201865D01*
X00666199Y00200619D01*
X00666251Y00199374D01*
X00666332Y00198130D01*
X00666444Y00196889D01*
X00666584Y00195651D01*
X00666755Y00194416D01*
X00666955Y00193186D01*
X00667184Y00191961D01*
X00667443Y00190742D01*
X00667730Y00189530D01*
X00668047Y00188324D01*
X00668392Y00187127D01*
X00668766Y00185938D01*
X00669168Y00184758D01*
X00669598Y00183589D01*
X00670056Y00182430D01*
X00670541Y00181282D01*
X00671054Y00180146D01*
X00671594Y00179023D01*
X00672160Y00177913D01*
X00672753Y00176817D01*
X00673372Y00175735D01*
X00674017Y00174668D01*
X00674687Y00173618D01*
X00675381Y00172583D01*
X00676101Y00171565D01*
X00676844Y00170565D01*
X00677611Y00169583D01*
X00678402Y00168620D01*
X00679215Y00167675D01*
X00680051Y00166751D01*
X00680908Y00165846D01*
X00681787Y00164963D01*
X00682687Y00164100D01*
X00683607Y00163260D01*
X00684547Y00162441D01*
X00685506Y00161646D01*
X00685861Y00162090D01*
X00684913Y00162877D01*
X00683983Y00163686D01*
X00683073Y00164518D01*
X00682184Y00165371D01*
X00681315Y00166244D01*
X00680467Y00167139D01*
X00679640Y00168053D01*
X00678836Y00168987D01*
X00678055Y00169940D01*
X00677296Y00170911D01*
X00676561Y00171900D01*
X00675849Y00172907D01*
X00675162Y00173930D01*
X00674500Y00174969D01*
X00673862Y00176024D01*
X00673250Y00177094D01*
X00672664Y00178178D01*
X00672104Y00179275D01*
X00671570Y00180386D01*
X00671063Y00181510D01*
X00670582Y00182645D01*
X00670130Y00183791D01*
X00669704Y00184948D01*
X00669307Y00186114D01*
X00668937Y00187290D01*
X00668596Y00188474D01*
X00668283Y00189666D01*
X00667998Y00190865D01*
X00667742Y00192071D01*
X00667516Y00193282D01*
X00667318Y00194499D01*
X00667149Y00195720D01*
X00667010Y00196944D01*
X00666900Y00198172D01*
X00666819Y00199401D01*
X00666768Y00200633D01*
X00666746Y00201865D01*
X00667315Y00201865D01*
X00667337Y00200647D01*
X00667387Y00199429D01*
X00667467Y00198213D01*
X00667576Y00196999D01*
X00667714Y00195788D01*
X00667881Y00194581D01*
X00668077Y00193378D01*
X00668301Y00192180D01*
X00668554Y00190988D01*
X00668835Y00189803D01*
X00669145Y00188624D01*
X00669482Y00187453D01*
X00669848Y00186290D01*
X00670241Y00185137D01*
X00670661Y00183993D01*
X00671109Y00182860D01*
X00671584Y00181737D01*
X00672086Y00180627D01*
X00672613Y00179528D01*
X00673167Y00178443D01*
X00673747Y00177371D01*
X00674352Y00176313D01*
X00674983Y00175270D01*
X00675638Y00174242D01*
X00676317Y00173231D01*
X00677021Y00172235D01*
X00677748Y00171257D01*
X00678498Y00170297D01*
X00679271Y00169355D01*
X00680066Y00168431D01*
X00680883Y00167527D01*
X00681721Y00166643D01*
X00682581Y00165778D01*
X00683460Y00164935D01*
X00684360Y00164113D01*
X00685279Y00163313D01*
X00686217Y00162534D01*
X00686572Y00162979D01*
X00685645Y00163748D01*
X00684736Y00164540D01*
X00683847Y00165352D01*
X00682977Y00166186D01*
X00682128Y00167041D01*
X00681299Y00167915D01*
X00680491Y00168809D01*
X00679705Y00169722D01*
X00678941Y00170654D01*
X00678199Y00171603D01*
X00677480Y00172571D01*
X00676785Y00173554D01*
X00676113Y00174555D01*
X00675466Y00175571D01*
X00674843Y00176602D01*
X00674244Y00177648D01*
X00673671Y00178708D01*
X00673123Y00179781D01*
X00672601Y00180867D01*
X00672106Y00181965D01*
X00671636Y00183075D01*
X00671193Y00184195D01*
X00670777Y00185326D01*
X00670389Y00186466D01*
X00670027Y00187616D01*
X00669693Y00188774D01*
X00669387Y00189939D01*
X00669109Y00191111D01*
X00668859Y00192290D01*
X00668637Y00193474D01*
X00668444Y00194663D01*
X00668279Y00195857D01*
X00668143Y00197054D01*
X00668035Y00198254D01*
X00667956Y00199457D01*
X00667905Y00200660D01*
X00667884Y00201865D01*
X00668453Y00201865D01*
X00668474Y00200674D01*
X00668524Y00199484D01*
X00668602Y00198296D01*
X00668709Y00197109D01*
X00668844Y00195926D01*
X00669007Y00194746D01*
X00669198Y00193570D01*
X00669418Y00192399D01*
X00669665Y00191234D01*
X00669940Y00190075D01*
X00670242Y00188923D01*
X00670572Y00187779D01*
X00670930Y00186643D01*
X00671314Y00185515D01*
X00671725Y00184397D01*
X00672163Y00183290D01*
X00672627Y00182193D01*
X00673117Y00181107D01*
X00673633Y00180033D01*
X00674175Y00178973D01*
X00674741Y00177925D01*
X00675333Y00176891D01*
X00675949Y00175872D01*
X00676589Y00174867D01*
X00677253Y00173878D01*
X00677940Y00172906D01*
X00678651Y00171950D01*
X00679384Y00171011D01*
X00680139Y00170090D01*
X00680916Y00169187D01*
X00681715Y00168303D01*
X00682534Y00167439D01*
X00683374Y00166594D01*
X00684234Y00165770D01*
X00685113Y00164966D01*
X00686011Y00164184D01*
X00686928Y00163423D01*
X00687283Y00163867D01*
X00686377Y00164619D01*
X00685490Y00165393D01*
X00684621Y00166187D01*
X00683771Y00167002D01*
X00682941Y00167837D01*
X00682131Y00168692D01*
X00681342Y00169565D01*
X00680574Y00170457D01*
X00679827Y00171368D01*
X00679103Y00172296D01*
X00678400Y00173241D01*
X00677721Y00174202D01*
X00677064Y00175180D01*
X00676432Y00176172D01*
X00675823Y00177180D01*
X00675238Y00178202D01*
X00674678Y00179237D01*
X00674143Y00180286D01*
X00673633Y00181347D01*
X00673148Y00182420D01*
X00672690Y00183505D01*
X00672257Y00184600D01*
X00671851Y00185704D01*
X00671471Y00186819D01*
X00671118Y00187942D01*
X00670791Y00189073D01*
X00670492Y00190212D01*
X00670220Y00191357D01*
X00669976Y00192509D01*
X00669759Y00193666D01*
X00669570Y00194828D01*
X00669409Y00195994D01*
X00669275Y00197164D01*
X00669170Y00198337D01*
X00669092Y00199512D01*
X00669043Y00200688D01*
X00669022Y00201865D01*
X00669591Y00201865D01*
X00669612Y00200702D01*
X00669661Y00199539D01*
X00669737Y00198378D01*
X00669842Y00197219D01*
X00669974Y00196063D01*
X00670133Y00194911D01*
X00670320Y00193762D01*
X00670534Y00192619D01*
X00670776Y00191480D01*
X00671045Y00190348D01*
X00671340Y00189223D01*
X00671663Y00188105D01*
X00672012Y00186995D01*
X00672387Y00185894D01*
X00672789Y00184802D01*
X00673217Y00183720D01*
X00673670Y00182648D01*
X00674149Y00181587D01*
X00674653Y00180539D01*
X00675182Y00179502D01*
X00675735Y00178479D01*
X00676313Y00177469D01*
X00676915Y00176473D01*
X00677540Y00175492D01*
X00678189Y00174526D01*
X00678860Y00173576D01*
X00679554Y00172642D01*
X00680270Y00171725D01*
X00681008Y00170825D01*
X00681767Y00169943D01*
X00682547Y00169080D01*
X00683347Y00168235D01*
X00684168Y00167410D01*
X00685007Y00166604D01*
X00685866Y00165819D01*
X00686743Y00165055D01*
X00687639Y00164312D01*
X00687994Y00164756D01*
X00687110Y00165490D01*
X00686243Y00166246D01*
X00685394Y00167022D01*
X00684564Y00167818D01*
X00683754Y00168633D01*
X00682963Y00169468D01*
X00682192Y00170321D01*
X00681442Y00171193D01*
X00680713Y00172082D01*
X00680006Y00172988D01*
X00679320Y00173911D01*
X00678657Y00174850D01*
X00678016Y00175804D01*
X00677398Y00176774D01*
X00676803Y00177758D01*
X00676232Y00178756D01*
X00675685Y00179767D01*
X00675163Y00180791D01*
X00674665Y00181828D01*
X00674191Y00182876D01*
X00673743Y00183935D01*
X00673321Y00185004D01*
X00672924Y00186083D01*
X00672553Y00187171D01*
X00672208Y00188268D01*
X00671889Y00189373D01*
X00671597Y00190485D01*
X00671331Y00191603D01*
X00671093Y00192728D01*
X00670881Y00193858D01*
X00670696Y00194993D01*
X00670538Y00196132D01*
X00670408Y00197274D01*
X00670305Y00198419D01*
X00670229Y00199567D01*
X00670181Y00200715D01*
X00670160Y00201865D01*
X00670729Y00201865D01*
X00670751Y00200698D01*
X00670801Y00199531D01*
X00670880Y00198366D01*
X00670987Y00197204D01*
X00671123Y00196044D01*
X00671288Y00194888D01*
X00671480Y00193737D01*
X00671701Y00192590D01*
X00671950Y00191450D01*
X00672227Y00190315D01*
X00672532Y00189188D01*
X00672864Y00188069D01*
X00673223Y00186958D01*
X00673610Y00185856D01*
X00674024Y00184765D01*
X00674464Y00183683D01*
X00674931Y00182613D01*
X00675423Y00181555D01*
X00675942Y00180509D01*
X00676486Y00179476D01*
X00677055Y00178456D01*
X00677649Y00177451D01*
X00678268Y00176461D01*
X00678911Y00175486D01*
X00679577Y00174528D01*
X00680267Y00173586D01*
X00680980Y00172661D01*
X00681715Y00171754D01*
X00682472Y00170865D01*
X00683251Y00169995D01*
X00684051Y00169145D01*
X00684871Y00168314D01*
X00685712Y00167504D01*
X00686572Y00166715D01*
X00687452Y00165947D01*
X00688350Y00165200D01*
X00771006Y00202464D02*
X00765606Y00202465D01*
X00765584Y00203625D01*
X00765534Y00204785D01*
X00765456Y00205943D01*
X00765349Y00207099D01*
X00765214Y00208251D01*
X00765051Y00209400D01*
X00764859Y00210545D01*
X00764639Y00211685D01*
X00764392Y00212819D01*
X00764117Y00213946D01*
X00763814Y00215066D01*
X00763484Y00216179D01*
X00763126Y00217283D01*
X00762742Y00218378D01*
X00762331Y00219464D01*
X00761893Y00220539D01*
X00761429Y00221602D01*
X00760939Y00222655D01*
X00760424Y00223694D01*
X00759883Y00224721D01*
X00759317Y00225735D01*
X00758726Y00226734D01*
X00758111Y00227718D01*
X00757472Y00228687D01*
X00756810Y00229640D01*
X00756124Y00230576D01*
X00755416Y00231495D01*
X00754685Y00232397D01*
X00753932Y00233281D01*
X00753158Y00234145D01*
X00752363Y00234991D01*
X00751548Y00235816D01*
X00750712Y00236622D01*
X00749857Y00237407D01*
X00748983Y00238170D01*
X00748090Y00238912D01*
X00751463Y00243128D01*
X00751464Y00243128D01*
X00752434Y00242324D01*
X00753384Y00241497D01*
X00754314Y00240647D01*
X00755224Y00239775D01*
X00756112Y00238882D01*
X00756979Y00237967D01*
X00757824Y00237033D01*
X00758646Y00236078D01*
X00759446Y00235104D01*
X00760221Y00234111D01*
X00760973Y00233100D01*
X00761700Y00232071D01*
X00762403Y00231025D01*
X00763080Y00229962D01*
X00763732Y00228884D01*
X00764358Y00227790D01*
X00764957Y00226682D01*
X00765530Y00225560D01*
X00766076Y00224424D01*
X00766594Y00223276D01*
X00767085Y00222115D01*
X00767548Y00220944D01*
X00767983Y00219761D01*
X00768389Y00218568D01*
X00768767Y00217366D01*
X00769116Y00216156D01*
X00769436Y00214937D01*
X00769727Y00213711D01*
X00769988Y00212478D01*
X00770220Y00211240D01*
X00770422Y00209996D01*
X00770594Y00208748D01*
X00770737Y00207496D01*
X00770849Y00206241D01*
X00770932Y00204984D01*
X00770984Y00203725D01*
X00771006Y00202465D01*
X00770437Y00202465D01*
X00770415Y00203711D01*
X00770363Y00204956D01*
X00770282Y00206200D01*
X00770170Y00207441D01*
X00770030Y00208679D01*
X00769859Y00209914D01*
X00769659Y00211144D01*
X00769430Y00212369D01*
X00769171Y00213588D01*
X00768884Y00214800D01*
X00768567Y00216006D01*
X00768222Y00217203D01*
X00767848Y00218392D01*
X00767446Y00219572D01*
X00767016Y00220741D01*
X00766558Y00221900D01*
X00766073Y00223048D01*
X00765560Y00224184D01*
X00765020Y00225307D01*
X00764454Y00226417D01*
X00763861Y00227513D01*
X00763242Y00228595D01*
X00762597Y00229662D01*
X00761927Y00230712D01*
X00761233Y00231747D01*
X00760513Y00232765D01*
X00759770Y00233765D01*
X00759003Y00234747D01*
X00758212Y00235710D01*
X00757399Y00236655D01*
X00756563Y00237579D01*
X00755706Y00238484D01*
X00754827Y00239367D01*
X00753927Y00240230D01*
X00753007Y00241070D01*
X00752067Y00241889D01*
X00751108Y00242684D01*
X00750753Y00242240D01*
X00751701Y00241453D01*
X00752631Y00240644D01*
X00753541Y00239812D01*
X00754430Y00238959D01*
X00755299Y00238086D01*
X00756147Y00237191D01*
X00756974Y00236277D01*
X00757778Y00235343D01*
X00758559Y00234390D01*
X00759318Y00233419D01*
X00760053Y00232430D01*
X00760765Y00231423D01*
X00761452Y00230400D01*
X00762114Y00229361D01*
X00762752Y00228306D01*
X00763364Y00227236D01*
X00763950Y00226152D01*
X00764510Y00225055D01*
X00765044Y00223944D01*
X00765551Y00222820D01*
X00766032Y00221685D01*
X00766484Y00220539D01*
X00766910Y00219382D01*
X00767307Y00218216D01*
X00767677Y00217040D01*
X00768018Y00215856D01*
X00768331Y00214664D01*
X00768616Y00213465D01*
X00768872Y00212259D01*
X00769098Y00211048D01*
X00769296Y00209831D01*
X00769465Y00208610D01*
X00769604Y00207386D01*
X00769714Y00206158D01*
X00769795Y00204929D01*
X00769846Y00203697D01*
X00769868Y00202465D01*
X00769299Y00202465D01*
X00769277Y00203683D01*
X00769227Y00204901D01*
X00769147Y00206117D01*
X00769038Y00207331D01*
X00768900Y00208542D01*
X00768733Y00209749D01*
X00768537Y00210952D01*
X00768313Y00212150D01*
X00768060Y00213342D01*
X00767779Y00214527D01*
X00767469Y00215706D01*
X00767132Y00216877D01*
X00766766Y00218040D01*
X00766373Y00219193D01*
X00765953Y00220337D01*
X00765505Y00221470D01*
X00765030Y00222593D01*
X00764528Y00223703D01*
X00764001Y00224802D01*
X00763447Y00225887D01*
X00762867Y00226959D01*
X00762262Y00228017D01*
X00761631Y00229060D01*
X00760976Y00230088D01*
X00760297Y00231099D01*
X00759593Y00232095D01*
X00758866Y00233073D01*
X00758116Y00234033D01*
X00757343Y00234975D01*
X00756548Y00235899D01*
X00755731Y00236803D01*
X00754893Y00237687D01*
X00754033Y00238552D01*
X00753154Y00239395D01*
X00752254Y00240217D01*
X00751335Y00241017D01*
X00750397Y00241796D01*
X00750042Y00241351D01*
X00750969Y00240582D01*
X00751878Y00239790D01*
X00752767Y00238978D01*
X00753637Y00238144D01*
X00754486Y00237289D01*
X00755315Y00236415D01*
X00756123Y00235521D01*
X00756909Y00234608D01*
X00757673Y00233676D01*
X00758415Y00232727D01*
X00759134Y00231759D01*
X00759829Y00230776D01*
X00760501Y00229775D01*
X00761148Y00228759D01*
X00761771Y00227728D01*
X00762370Y00226682D01*
X00762943Y00225622D01*
X00763491Y00224549D01*
X00764013Y00223463D01*
X00764508Y00222365D01*
X00764978Y00221255D01*
X00765421Y00220135D01*
X00765837Y00219004D01*
X00766225Y00217864D01*
X00766587Y00216714D01*
X00766921Y00215556D01*
X00767227Y00214391D01*
X00767505Y00213219D01*
X00767755Y00212040D01*
X00767977Y00210856D01*
X00768170Y00209667D01*
X00768335Y00208473D01*
X00768471Y00207276D01*
X00768579Y00206076D01*
X00768658Y00204873D01*
X00768709Y00203670D01*
X00768730Y00202465D01*
X00768161Y00202465D01*
X00768140Y00203656D01*
X00768090Y00204846D01*
X00768012Y00206034D01*
X00767905Y00207221D01*
X00767770Y00208404D01*
X00767607Y00209584D01*
X00767416Y00210760D01*
X00767196Y00211931D01*
X00766949Y00213096D01*
X00766674Y00214255D01*
X00766372Y00215407D01*
X00766042Y00216551D01*
X00765684Y00217687D01*
X00765300Y00218815D01*
X00764889Y00219933D01*
X00764451Y00221040D01*
X00763987Y00222137D01*
X00763497Y00223223D01*
X00762981Y00224297D01*
X00762439Y00225357D01*
X00761873Y00226405D01*
X00761281Y00227439D01*
X00760665Y00228458D01*
X00760025Y00229463D01*
X00759361Y00230452D01*
X00758674Y00231424D01*
X00757963Y00232380D01*
X00757230Y00233319D01*
X00756475Y00234240D01*
X00755698Y00235143D01*
X00754899Y00236027D01*
X00754080Y00236891D01*
X00753240Y00237736D01*
X00752380Y00238560D01*
X00751501Y00239364D01*
X00750603Y00240146D01*
X00749686Y00240907D01*
X00749331Y00240463D01*
X00750237Y00239711D01*
X00751124Y00238937D01*
X00751993Y00238143D01*
X00752843Y00237328D01*
X00753673Y00236493D01*
X00754483Y00235638D01*
X00755272Y00234765D01*
X00756040Y00233873D01*
X00756787Y00232962D01*
X00757511Y00232034D01*
X00758214Y00231089D01*
X00758893Y00230128D01*
X00759550Y00229150D01*
X00760182Y00228158D01*
X00760791Y00227150D01*
X00761376Y00226128D01*
X00761936Y00225093D01*
X00762471Y00224044D01*
X00762981Y00222983D01*
X00763466Y00221910D01*
X00763924Y00220825D01*
X00764357Y00219730D01*
X00764763Y00218626D01*
X00765143Y00217511D01*
X00765496Y00216388D01*
X00765823Y00215257D01*
X00766122Y00214118D01*
X00766394Y00212973D01*
X00766638Y00211821D01*
X00766855Y00210664D01*
X00767044Y00209502D01*
X00767205Y00208336D01*
X00767339Y00207166D01*
X00767444Y00205993D01*
X00767522Y00204818D01*
X00767571Y00203642D01*
X00767592Y00202465D01*
X00767023Y00202465D01*
X00767002Y00203628D01*
X00766953Y00204791D01*
X00766877Y00205952D01*
X00766772Y00207111D01*
X00766640Y00208267D01*
X00766481Y00209419D01*
X00766294Y00210568D01*
X00766080Y00211711D01*
X00765838Y00212850D01*
X00765569Y00213982D01*
X00765274Y00215107D01*
X00764951Y00216225D01*
X00764602Y00217335D01*
X00764227Y00218436D01*
X00763825Y00219528D01*
X00763397Y00220610D01*
X00762944Y00221682D01*
X00762465Y00222743D01*
X00761961Y00223791D01*
X00761432Y00224828D01*
X00760879Y00225851D01*
X00760301Y00226861D01*
X00759699Y00227857D01*
X00759074Y00228838D01*
X00758425Y00229804D01*
X00757754Y00230754D01*
X00757060Y00231688D01*
X00756344Y00232605D01*
X00755606Y00233505D01*
X00754847Y00234387D01*
X00754067Y00235250D01*
X00753267Y00236095D01*
X00752446Y00236920D01*
X00751607Y00237726D01*
X00750748Y00238511D01*
X00749871Y00239275D01*
X00748975Y00240018D01*
X00748620Y00239574D01*
X00749504Y00238840D01*
X00750371Y00238084D01*
X00751220Y00237308D01*
X00752050Y00236512D01*
X00752860Y00235697D01*
X00753651Y00234862D01*
X00754422Y00234009D01*
X00755172Y00233137D01*
X00755901Y00232248D01*
X00756608Y00231342D01*
X00757294Y00230419D01*
X00757957Y00229480D01*
X00758598Y00228526D01*
X00759216Y00227556D01*
X00759811Y00226572D01*
X00760382Y00225574D01*
X00760929Y00224563D01*
X00761451Y00223539D01*
X00761949Y00222502D01*
X00762423Y00221454D01*
X00762871Y00220395D01*
X00763293Y00219326D01*
X00763690Y00218247D01*
X00764061Y00217159D01*
X00764406Y00216062D01*
X00764725Y00214957D01*
X00765017Y00213845D01*
X00765283Y00212727D01*
X00765521Y00211602D01*
X00765733Y00210472D01*
X00765918Y00209337D01*
X00766076Y00208198D01*
X00766206Y00207056D01*
X00766309Y00205911D01*
X00766385Y00204763D01*
X00766433Y00203615D01*
X00766454Y00202465D01*
X00765885Y00202465D01*
X00765863Y00203632D01*
X00765813Y00204799D01*
X00765734Y00205964D01*
X00765627Y00207126D01*
X00765491Y00208286D01*
X00765326Y00209442D01*
X00765134Y00210593D01*
X00764913Y00211740D01*
X00764664Y00212880D01*
X00764387Y00214015D01*
X00764082Y00215142D01*
X00763750Y00216261D01*
X00763391Y00217372D01*
X00763004Y00218474D01*
X00762590Y00219565D01*
X00762150Y00220647D01*
X00761683Y00221717D01*
X00761191Y00222775D01*
X00760672Y00223821D01*
X00760128Y00224854D01*
X00759559Y00225874D01*
X00758965Y00226879D01*
X00758346Y00227869D01*
X00757703Y00228844D01*
X00757037Y00229802D01*
X00756347Y00230744D01*
X00755634Y00231669D01*
X00754899Y00232576D01*
X00754142Y00233465D01*
X00753363Y00234335D01*
X00752563Y00235185D01*
X00751743Y00236016D01*
X00750902Y00236826D01*
X00750042Y00237615D01*
X00749162Y00238383D01*
X00748264Y00239130D01*
D13*
X00633809Y00401666D02*
X00642809Y00401666D01*
X00642809Y00401665D02*
X00642843Y00399842D01*
X00642921Y00398021D01*
X00643043Y00396202D01*
X00643209Y00394386D01*
X00643418Y00392575D01*
X00643672Y00390769D01*
X00643969Y00388970D01*
X00644309Y00387179D01*
X00644692Y00385397D01*
X00645118Y00383624D01*
X00645587Y00381862D01*
X00646099Y00380112D01*
X00646652Y00378375D01*
X00647248Y00376652D01*
X00647884Y00374943D01*
X00648562Y00373251D01*
X00649281Y00371575D01*
X00650039Y00369917D01*
X00650838Y00368278D01*
X00651676Y00366659D01*
X00652552Y00365060D01*
X00653468Y00363484D01*
X00654420Y00361929D01*
X00655411Y00360398D01*
X00656437Y00358892D01*
X00657500Y00357410D01*
X00658599Y00355955D01*
X00659732Y00354527D01*
X00660899Y00353126D01*
X00662100Y00351754D01*
X00663334Y00350412D01*
X00664599Y00349100D01*
X00665896Y00347818D01*
X00667224Y00346569D01*
X00668581Y00345351D01*
X00669967Y00344167D01*
X00671382Y00343017D01*
X00672824Y00341901D01*
X00674292Y00340820D01*
X00675786Y00339775D01*
X00677305Y00338767D01*
X00678848Y00337795D01*
X00680414Y00336861D01*
X00675948Y00329047D01*
X00674192Y00330092D01*
X00672463Y00331180D01*
X00670760Y00332309D01*
X00669085Y00333480D01*
X00667438Y00334690D01*
X00665822Y00335940D01*
X00664236Y00337228D01*
X00662682Y00338554D01*
X00661160Y00339918D01*
X00659671Y00341318D01*
X00658217Y00342753D01*
X00656798Y00344224D01*
X00655416Y00345728D01*
X00654069Y00347265D01*
X00652761Y00348834D01*
X00651490Y00350435D01*
X00650259Y00352066D01*
X00649068Y00353726D01*
X00647917Y00355414D01*
X00646807Y00357130D01*
X00645739Y00358872D01*
X00644714Y00360639D01*
X00643731Y00362430D01*
X00642792Y00364245D01*
X00641897Y00366082D01*
X00641047Y00367940D01*
X00640242Y00369818D01*
X00639483Y00371716D01*
X00638770Y00373630D01*
X00638103Y00375562D01*
X00637484Y00377509D01*
X00636911Y00379470D01*
X00636386Y00381445D01*
X00635909Y00383432D01*
X00635480Y00385430D01*
X00635100Y00387437D01*
X00634768Y00389454D01*
X00634485Y00391477D01*
X00634252Y00393507D01*
X00634067Y00395542D01*
X00633931Y00397581D01*
X00633845Y00399622D01*
X00633808Y00401665D01*
X00634757Y00401665D01*
X00634794Y00399646D01*
X00634879Y00397627D01*
X00635013Y00395612D01*
X00635196Y00393600D01*
X00635427Y00391593D01*
X00635707Y00389592D01*
X00636035Y00387599D01*
X00636411Y00385614D01*
X00636835Y00383639D01*
X00637307Y00381675D01*
X00637826Y00379723D01*
X00638392Y00377783D01*
X00639005Y00375858D01*
X00639664Y00373949D01*
X00640369Y00372056D01*
X00641120Y00370180D01*
X00641915Y00368324D01*
X00642756Y00366487D01*
X00643640Y00364671D01*
X00644569Y00362876D01*
X00645540Y00361105D01*
X00646554Y00359358D01*
X00647610Y00357636D01*
X00648707Y00355939D01*
X00649845Y00354270D01*
X00651023Y00352629D01*
X00652240Y00351017D01*
X00653496Y00349435D01*
X00654790Y00347883D01*
X00656120Y00346363D01*
X00657488Y00344876D01*
X00658890Y00343423D01*
X00660328Y00342003D01*
X00661799Y00340619D01*
X00663304Y00339271D01*
X00664840Y00337960D01*
X00666408Y00336686D01*
X00668006Y00335450D01*
X00669634Y00334254D01*
X00671290Y00333097D01*
X00672973Y00331980D01*
X00674683Y00330905D01*
X00676419Y00329871D01*
X00676890Y00330695D01*
X00675174Y00331717D01*
X00673484Y00332780D01*
X00671820Y00333884D01*
X00670183Y00335028D01*
X00668574Y00336211D01*
X00666994Y00337432D01*
X00665445Y00338691D01*
X00663926Y00339988D01*
X00662439Y00341320D01*
X00660984Y00342689D01*
X00659563Y00344092D01*
X00658177Y00345529D01*
X00656825Y00346999D01*
X00655510Y00348501D01*
X00654231Y00350035D01*
X00652989Y00351599D01*
X00651786Y00353193D01*
X00650622Y00354815D01*
X00649497Y00356465D01*
X00648413Y00358142D01*
X00647369Y00359844D01*
X00646367Y00361571D01*
X00645406Y00363322D01*
X00644489Y00365096D01*
X00643614Y00366891D01*
X00642784Y00368707D01*
X00641997Y00370542D01*
X00641255Y00372396D01*
X00640558Y00374268D01*
X00639906Y00376155D01*
X00639300Y00378058D01*
X00638741Y00379975D01*
X00638228Y00381905D01*
X00637761Y00383846D01*
X00637342Y00385799D01*
X00636970Y00387761D01*
X00636646Y00389731D01*
X00636369Y00391709D01*
X00636140Y00393692D01*
X00635960Y00395681D01*
X00635827Y00397674D01*
X00635743Y00399669D01*
X00635706Y00401665D01*
X00636656Y00401665D01*
X00636691Y00399692D01*
X00636775Y00397720D01*
X00636906Y00395751D01*
X00637085Y00393785D01*
X00637311Y00391824D01*
X00637585Y00389870D01*
X00637905Y00387922D01*
X00638273Y00385983D01*
X00638688Y00384054D01*
X00639149Y00382134D01*
X00639656Y00380227D01*
X00640209Y00378332D01*
X00640808Y00376452D01*
X00641452Y00374586D01*
X00642141Y00372737D01*
X00642874Y00370904D01*
X00643652Y00369090D01*
X00644473Y00367295D01*
X00645337Y00365521D01*
X00646244Y00363768D01*
X00647193Y00362038D01*
X00648184Y00360331D01*
X00649215Y00358648D01*
X00650287Y00356991D01*
X00651399Y00355360D01*
X00652550Y00353756D01*
X00653739Y00352181D01*
X00654966Y00350635D01*
X00656230Y00349119D01*
X00657530Y00347634D01*
X00658866Y00346181D01*
X00660236Y00344761D01*
X00661641Y00343374D01*
X00663078Y00342022D01*
X00664548Y00340704D01*
X00666049Y00339423D01*
X00667581Y00338178D01*
X00669142Y00336971D01*
X00670732Y00335802D01*
X00672350Y00334671D01*
X00673994Y00333580D01*
X00675665Y00332529D01*
X00677361Y00331519D01*
X00677831Y00332343D01*
X00676156Y00333341D01*
X00674505Y00334380D01*
X00672880Y00335458D01*
X00671281Y00336576D01*
X00669710Y00337731D01*
X00668167Y00338925D01*
X00666653Y00340155D01*
X00665170Y00341421D01*
X00663717Y00342723D01*
X00662297Y00344060D01*
X00660909Y00345430D01*
X00659555Y00346834D01*
X00658235Y00348270D01*
X00656950Y00349737D01*
X00655701Y00351235D01*
X00654489Y00352763D01*
X00653313Y00354320D01*
X00652176Y00355905D01*
X00651078Y00357516D01*
X00650018Y00359154D01*
X00648999Y00360817D01*
X00648020Y00362504D01*
X00647082Y00364214D01*
X00646186Y00365946D01*
X00645331Y00367700D01*
X00644520Y00369473D01*
X00643751Y00371266D01*
X00643027Y00373077D01*
X00642346Y00374905D01*
X00641709Y00376748D01*
X00641117Y00378607D01*
X00640571Y00380479D01*
X00640069Y00382364D01*
X00639614Y00384261D01*
X00639204Y00386168D01*
X00638841Y00388084D01*
X00638524Y00390009D01*
X00638253Y00391940D01*
X00638029Y00393878D01*
X00637853Y00395820D01*
X00637723Y00397766D01*
X00637640Y00399715D01*
X00637605Y00401665D01*
X00638554Y00401665D01*
X00638589Y00399738D01*
X00638671Y00397813D01*
X00638799Y00395890D01*
X00638974Y00393970D01*
X00639195Y00392056D01*
X00639462Y00390147D01*
X00639776Y00388246D01*
X00640135Y00386352D01*
X00640540Y00384468D01*
X00640990Y00382594D01*
X00641485Y00380731D01*
X00642026Y00378881D01*
X00642611Y00377045D01*
X00643240Y00375223D01*
X00643912Y00373417D01*
X00644629Y00371628D01*
X00645388Y00369857D01*
X00646190Y00368104D01*
X00647034Y00366372D01*
X00647920Y00364660D01*
X00648846Y00362970D01*
X00649814Y00361303D01*
X00650821Y00359660D01*
X00651868Y00358042D01*
X00652953Y00356449D01*
X00654077Y00354883D01*
X00655238Y00353345D01*
X00656436Y00351836D01*
X00657670Y00350355D01*
X00658940Y00348905D01*
X00660244Y00347486D01*
X00661582Y00346099D01*
X00662953Y00344745D01*
X00664357Y00343424D01*
X00665792Y00342138D01*
X00667258Y00340886D01*
X00668753Y00339671D01*
X00670278Y00338492D01*
X00671830Y00337350D01*
X00673410Y00336246D01*
X00675016Y00335180D01*
X00676647Y00334154D01*
X00678302Y00333167D01*
X00678773Y00333991D01*
X00677138Y00334966D01*
X00675526Y00335980D01*
X00673940Y00337033D01*
X00672379Y00338124D01*
X00670845Y00339252D01*
X00669339Y00340417D01*
X00667862Y00341618D01*
X00666414Y00342855D01*
X00664996Y00344126D01*
X00663610Y00345430D01*
X00662255Y00346768D01*
X00660933Y00348139D01*
X00659645Y00349541D01*
X00658390Y00350973D01*
X00657171Y00352436D01*
X00655988Y00353927D01*
X00654840Y00355447D01*
X00653730Y00356994D01*
X00652658Y00358567D01*
X00651624Y00360166D01*
X00650629Y00361789D01*
X00649673Y00363436D01*
X00648757Y00365106D01*
X00647882Y00366797D01*
X00647049Y00368509D01*
X00646256Y00370240D01*
X00645506Y00371990D01*
X00644798Y00373758D01*
X00644134Y00375542D01*
X00643512Y00377342D01*
X00642934Y00379156D01*
X00642400Y00380984D01*
X00641911Y00382824D01*
X00641466Y00384675D01*
X00641066Y00386537D01*
X00640711Y00388407D01*
X00640401Y00390286D01*
X00640137Y00392172D01*
X00639918Y00394063D01*
X00639746Y00395959D01*
X00639619Y00397859D01*
X00639538Y00399761D01*
X00639503Y00401665D01*
X00640452Y00401665D01*
X00640486Y00399785D01*
X00640566Y00397905D01*
X00640692Y00396029D01*
X00640863Y00394156D01*
X00641079Y00392287D01*
X00641340Y00390425D01*
X00641646Y00388569D01*
X00641997Y00386721D01*
X00642392Y00384882D01*
X00642832Y00383053D01*
X00643315Y00381236D01*
X00643843Y00379430D01*
X00644413Y00377638D01*
X00645027Y00375861D01*
X00645684Y00374098D01*
X00646383Y00372352D01*
X00647124Y00370623D01*
X00647907Y00368913D01*
X00648731Y00367222D01*
X00649595Y00365552D01*
X00650500Y00363903D01*
X00651444Y00362276D01*
X00652427Y00360672D01*
X00653448Y00359093D01*
X00654507Y00357539D01*
X00655604Y00356011D01*
X00656737Y00354509D01*
X00657906Y00353036D01*
X00659111Y00351591D01*
X00660349Y00350176D01*
X00661622Y00348791D01*
X00662928Y00347438D01*
X00664266Y00346116D01*
X00665636Y00344827D01*
X00667036Y00343571D01*
X00668466Y00342350D01*
X00669926Y00341163D01*
X00671413Y00340012D01*
X00672928Y00338898D01*
X00674470Y00337820D01*
X00676037Y00336780D01*
X00677629Y00335778D01*
X00679244Y00334815D01*
X00679715Y00335639D01*
X00678119Y00336590D01*
X00676547Y00337580D01*
X00675000Y00338607D01*
X00673477Y00339672D01*
X00671981Y00340773D01*
X00670512Y00341910D01*
X00669071Y00343081D01*
X00667658Y00344288D01*
X00666275Y00345528D01*
X00664922Y00346801D01*
X00663601Y00348107D01*
X00662311Y00349444D01*
X00661054Y00350812D01*
X00659831Y00352209D01*
X00658641Y00353636D01*
X00657487Y00355092D01*
X00656367Y00356574D01*
X00655284Y00358084D01*
X00654238Y00359619D01*
X00653229Y00361178D01*
X00652258Y00362762D01*
X00651326Y00364369D01*
X00650433Y00365998D01*
X00649579Y00367647D01*
X00648766Y00369317D01*
X00647993Y00371007D01*
X00647261Y00372714D01*
X00646570Y00374438D01*
X00645921Y00376179D01*
X00645315Y00377935D01*
X00644751Y00379705D01*
X00644230Y00381488D01*
X00643752Y00383283D01*
X00643318Y00385089D01*
X00642928Y00386906D01*
X00642581Y00388731D01*
X00642279Y00390563D01*
X00642021Y00392403D01*
X00641807Y00394248D01*
X00641638Y00396098D01*
X00641514Y00397952D01*
X00641435Y00399808D01*
X00641401Y00401665D01*
X00642350Y00401665D01*
X00642384Y00399831D01*
X00642462Y00397998D01*
X00642585Y00396168D01*
X00642752Y00394341D01*
X00642963Y00392519D01*
X00643218Y00390702D01*
X00643516Y00388892D01*
X00643859Y00387090D01*
X00644244Y00385297D01*
X00644673Y00383513D01*
X00645145Y00381740D01*
X00645659Y00379979D01*
X00646216Y00378232D01*
X00646815Y00376498D01*
X00647456Y00374779D01*
X00648138Y00373076D01*
X00648861Y00371390D01*
X00649624Y00369722D01*
X00650428Y00368073D01*
X00651271Y00366443D01*
X00652153Y00364835D01*
X00653073Y00363248D01*
X00654032Y00361684D01*
X00655028Y00360144D01*
X00656062Y00358628D01*
X00657131Y00357138D01*
X00658236Y00355674D01*
X00659376Y00354237D01*
X00660551Y00352827D01*
X00661759Y00351447D01*
X00663000Y00350096D01*
X00664274Y00348776D01*
X00665579Y00347487D01*
X00666914Y00346229D01*
X00668280Y00345005D01*
X00669675Y00343813D01*
X00671098Y00342656D01*
X00672549Y00341533D01*
X00674027Y00340446D01*
X00675530Y00339395D01*
X00677058Y00338380D01*
X00678610Y00337402D01*
X00680186Y00336463D01*
X00802805Y00402665D02*
X00793805Y00402665D01*
X00793805Y00402666D02*
X00793772Y00404475D01*
X00793695Y00406282D01*
X00793574Y00408088D01*
X00793411Y00409890D01*
X00793204Y00411687D01*
X00792955Y00413480D01*
X00792662Y00415265D01*
X00792327Y00417043D01*
X00791949Y00418813D01*
X00791529Y00420573D01*
X00791067Y00422322D01*
X00790563Y00424060D01*
X00790017Y00425785D01*
X00789431Y00427497D01*
X00788803Y00429194D01*
X00788135Y00430876D01*
X00787427Y00432541D01*
X00786680Y00434189D01*
X00785893Y00435818D01*
X00785067Y00437428D01*
X00784203Y00439017D01*
X00783300Y00440586D01*
X00782361Y00442133D01*
X00781385Y00443656D01*
X00780373Y00445156D01*
X00779325Y00446631D01*
X00778241Y00448080D01*
X00777124Y00449503D01*
X00775973Y00450899D01*
X00774788Y00452267D01*
X00773571Y00453606D01*
X00772323Y00454916D01*
X00771043Y00456195D01*
X00769733Y00457443D01*
X00768394Y00458660D01*
X00767026Y00459844D01*
X00772787Y00466757D01*
X00772788Y00466758D01*
X00774322Y00465432D01*
X00775825Y00464069D01*
X00777294Y00462670D01*
X00778729Y00461237D01*
X00780130Y00459770D01*
X00781495Y00458269D01*
X00782823Y00456736D01*
X00784114Y00455172D01*
X00785368Y00453577D01*
X00786583Y00451953D01*
X00787758Y00450299D01*
X00788893Y00448618D01*
X00789988Y00446911D01*
X00791041Y00445177D01*
X00792053Y00443419D01*
X00793022Y00441637D01*
X00793948Y00439832D01*
X00794830Y00438006D01*
X00795668Y00436159D01*
X00796462Y00434292D01*
X00797210Y00432407D01*
X00797914Y00430504D01*
X00798571Y00428585D01*
X00799182Y00426651D01*
X00799746Y00424703D01*
X00800264Y00422741D01*
X00800734Y00420768D01*
X00801157Y00418784D01*
X00801532Y00416791D01*
X00801859Y00414789D01*
X00802138Y00412780D01*
X00802368Y00410764D01*
X00802551Y00408744D01*
X00802684Y00406720D01*
X00802769Y00404694D01*
X00802806Y00402665D01*
X00801857Y00402665D01*
X00801820Y00404671D01*
X00801736Y00406674D01*
X00801604Y00408675D01*
X00801424Y00410672D01*
X00801196Y00412665D01*
X00800920Y00414651D01*
X00800597Y00416630D01*
X00800226Y00418601D01*
X00799808Y00420562D01*
X00799343Y00422513D01*
X00798831Y00424452D01*
X00798273Y00426378D01*
X00797669Y00428290D01*
X00797019Y00430187D01*
X00796324Y00432068D01*
X00795584Y00433932D01*
X00794799Y00435777D01*
X00793971Y00437603D01*
X00793098Y00439409D01*
X00792183Y00441193D01*
X00791225Y00442955D01*
X00790225Y00444693D01*
X00789184Y00446407D01*
X00788102Y00448095D01*
X00786979Y00449757D01*
X00785817Y00451391D01*
X00784616Y00452997D01*
X00783377Y00454574D01*
X00782101Y00456121D01*
X00780788Y00457636D01*
X00779438Y00459120D01*
X00778054Y00460570D01*
X00776635Y00461988D01*
X00775182Y00463370D01*
X00773697Y00464718D01*
X00772180Y00466029D01*
X00771572Y00465300D01*
X00773072Y00464003D01*
X00774540Y00462672D01*
X00775976Y00461305D01*
X00777378Y00459904D01*
X00778747Y00458470D01*
X00780080Y00457003D01*
X00781378Y00455505D01*
X00782640Y00453976D01*
X00783865Y00452418D01*
X00785052Y00450830D01*
X00786200Y00449215D01*
X00787310Y00447572D01*
X00788380Y00445903D01*
X00789409Y00444209D01*
X00790397Y00442491D01*
X00791344Y00440749D01*
X00792249Y00438986D01*
X00793111Y00437201D01*
X00793930Y00435396D01*
X00794706Y00433572D01*
X00795437Y00431729D01*
X00796125Y00429870D01*
X00796767Y00427995D01*
X00797364Y00426104D01*
X00797916Y00424201D01*
X00798422Y00422284D01*
X00798881Y00420356D01*
X00799295Y00418417D01*
X00799661Y00416469D01*
X00799981Y00414513D01*
X00800254Y00412549D01*
X00800479Y00410580D01*
X00800658Y00408606D01*
X00800788Y00406628D01*
X00800872Y00404647D01*
X00800907Y00402666D01*
X00799958Y00402666D01*
X00799923Y00404624D01*
X00799841Y00406582D01*
X00799711Y00408537D01*
X00799535Y00410488D01*
X00799312Y00412434D01*
X00799042Y00414375D01*
X00798726Y00416308D01*
X00798364Y00418234D01*
X00797955Y00420150D01*
X00797501Y00422055D01*
X00797001Y00423950D01*
X00796455Y00425831D01*
X00795865Y00427699D01*
X00795230Y00429553D01*
X00794551Y00431390D01*
X00793828Y00433211D01*
X00793061Y00435014D01*
X00792252Y00436798D01*
X00791400Y00438562D01*
X00790505Y00440306D01*
X00789569Y00442027D01*
X00788593Y00443725D01*
X00787575Y00445399D01*
X00786518Y00447049D01*
X00785422Y00448672D01*
X00784287Y00450269D01*
X00783114Y00451838D01*
X00781903Y00453379D01*
X00780656Y00454890D01*
X00779373Y00456370D01*
X00778055Y00457820D01*
X00776703Y00459237D01*
X00775317Y00460622D01*
X00773898Y00461973D01*
X00772447Y00463289D01*
X00770965Y00464571D01*
X00770357Y00463842D01*
X00771822Y00462575D01*
X00773256Y00461274D01*
X00774658Y00459939D01*
X00776027Y00458571D01*
X00777364Y00457170D01*
X00778666Y00455738D01*
X00779934Y00454274D01*
X00781166Y00452781D01*
X00782362Y00451259D01*
X00783521Y00449708D01*
X00784643Y00448130D01*
X00785726Y00446525D01*
X00786771Y00444895D01*
X00787776Y00443241D01*
X00788742Y00441563D01*
X00789666Y00439862D01*
X00790550Y00438139D01*
X00791392Y00436396D01*
X00792192Y00434633D01*
X00792950Y00432851D01*
X00793664Y00431052D01*
X00794336Y00429236D01*
X00794963Y00427404D01*
X00795547Y00425558D01*
X00796085Y00423699D01*
X00796580Y00421827D01*
X00797029Y00419943D01*
X00797432Y00418050D01*
X00797791Y00416147D01*
X00798103Y00414237D01*
X00798370Y00412319D01*
X00798590Y00410396D01*
X00798765Y00408467D01*
X00798893Y00406536D01*
X00798974Y00404601D01*
X00799009Y00402666D01*
X00798060Y00402666D01*
X00798026Y00404578D01*
X00797945Y00406489D01*
X00797818Y00408398D01*
X00797646Y00410303D01*
X00797428Y00412204D01*
X00797164Y00414099D01*
X00796855Y00415986D01*
X00796501Y00417866D01*
X00796102Y00419737D01*
X00795659Y00421598D01*
X00795170Y00423448D01*
X00794638Y00425285D01*
X00794061Y00427109D01*
X00793441Y00428919D01*
X00792778Y00430713D01*
X00792072Y00432491D01*
X00791323Y00434251D01*
X00790533Y00435993D01*
X00789701Y00437716D01*
X00788828Y00439418D01*
X00787914Y00441098D01*
X00786960Y00442757D01*
X00785967Y00444392D01*
X00784935Y00446002D01*
X00783864Y00447588D01*
X00782756Y00449147D01*
X00781611Y00450679D01*
X00780429Y00452183D01*
X00779211Y00453659D01*
X00777959Y00455105D01*
X00776672Y00456520D01*
X00775352Y00457904D01*
X00773998Y00459256D01*
X00772613Y00460576D01*
X00771197Y00461861D01*
X00769750Y00463113D01*
X00769142Y00462384D01*
X00770572Y00461147D01*
X00771971Y00459877D01*
X00773339Y00458574D01*
X00774676Y00457238D01*
X00775981Y00455870D01*
X00777252Y00454472D01*
X00778489Y00453043D01*
X00779692Y00451586D01*
X00780859Y00450099D01*
X00781991Y00448586D01*
X00783085Y00447045D01*
X00784143Y00445479D01*
X00785163Y00443888D01*
X00786144Y00442273D01*
X00787086Y00440634D01*
X00787989Y00438974D01*
X00788851Y00437292D01*
X00789673Y00435591D01*
X00790454Y00433870D01*
X00791194Y00432131D01*
X00791892Y00430374D01*
X00792547Y00428602D01*
X00793159Y00426814D01*
X00793729Y00425012D01*
X00794255Y00423197D01*
X00794737Y00421369D01*
X00795176Y00419531D01*
X00795570Y00417683D01*
X00795920Y00415826D01*
X00796225Y00413961D01*
X00796486Y00412089D01*
X00796701Y00410211D01*
X00796872Y00408329D01*
X00796997Y00406443D01*
X00797077Y00404555D01*
X00797111Y00402666D01*
X00796162Y00402666D01*
X00796128Y00404532D01*
X00796049Y00406397D01*
X00795925Y00408260D01*
X00795757Y00410119D01*
X00795544Y00411974D01*
X00795286Y00413822D01*
X00794985Y00415665D01*
X00794639Y00417499D01*
X00794250Y00419325D01*
X00793816Y00421141D01*
X00793340Y00422946D01*
X00792820Y00424739D01*
X00792257Y00426519D01*
X00791652Y00428284D01*
X00791005Y00430035D01*
X00790316Y00431770D01*
X00789586Y00433488D01*
X00788814Y00435188D01*
X00788002Y00436869D01*
X00787150Y00438530D01*
X00786258Y00440170D01*
X00785328Y00441788D01*
X00784358Y00443384D01*
X00783351Y00444956D01*
X00782307Y00446503D01*
X00781225Y00448024D01*
X00780108Y00449520D01*
X00778955Y00450988D01*
X00777767Y00452428D01*
X00776545Y00453839D01*
X00775289Y00455220D01*
X00774001Y00456571D01*
X00772680Y00457891D01*
X00771329Y00459178D01*
X00769946Y00460433D01*
X00768535Y00461655D01*
X00767927Y00460926D01*
X00769321Y00459719D01*
X00770686Y00458480D01*
X00772021Y00457208D01*
X00773325Y00455905D01*
X00774597Y00454570D01*
X00775837Y00453206D01*
X00777044Y00451812D01*
X00778218Y00450390D01*
X00779356Y00448940D01*
X00780460Y00447463D01*
X00781528Y00445960D01*
X00782560Y00444432D01*
X00783554Y00442880D01*
X00784511Y00441304D01*
X00785431Y00439706D01*
X00786311Y00438086D01*
X00787153Y00436446D01*
X00787955Y00434786D01*
X00788717Y00433107D01*
X00789438Y00431410D01*
X00790119Y00429697D01*
X00790758Y00427967D01*
X00791356Y00426223D01*
X00791911Y00424465D01*
X00792425Y00422695D01*
X00792895Y00420912D01*
X00793323Y00419119D01*
X00793708Y00417316D01*
X00794050Y00415504D01*
X00794348Y00413684D01*
X00794602Y00411858D01*
X00794812Y00410027D01*
X00794979Y00408191D01*
X00795101Y00406351D01*
X00795179Y00404509D01*
X00795213Y00402666D01*
X00794264Y00402666D01*
X00794231Y00404486D01*
X00794153Y00406305D01*
X00794032Y00408121D01*
X00793868Y00409934D01*
X00793660Y00411743D01*
X00793409Y00413546D01*
X00793114Y00415343D01*
X00792777Y00417132D01*
X00792397Y00418913D01*
X00791974Y00420683D01*
X00791509Y00422444D01*
X00791002Y00424192D01*
X00790454Y00425928D01*
X00789863Y00427650D01*
X00789232Y00429358D01*
X00788560Y00431050D01*
X00787848Y00432725D01*
X00787095Y00434383D01*
X00786303Y00436023D01*
X00785472Y00437642D01*
X00784603Y00439242D01*
X00783695Y00440820D01*
X00782750Y00442376D01*
X00781768Y00443909D01*
X00780749Y00445418D01*
X00779695Y00446902D01*
X00778605Y00448361D01*
X00777480Y00449792D01*
X00776322Y00451197D01*
X00775130Y00452573D01*
X00773906Y00453921D01*
X00772650Y00455238D01*
X00771362Y00456525D01*
X00770044Y00457781D01*
X00768696Y00459005D01*
X00767320Y00460197D01*
X00758510Y00327845D02*
X00754275Y00335787D01*
X00754275Y00335786D02*
X00755875Y00336679D01*
X00757453Y00337609D01*
X00759008Y00338578D01*
X00760539Y00339584D01*
X00762045Y00340627D01*
X00763525Y00341706D01*
X00764978Y00342821D01*
X00766404Y00343971D01*
X00767802Y00345155D01*
X00769171Y00346373D01*
X00770509Y00347623D01*
X00771817Y00348906D01*
X00773094Y00350219D01*
X00774338Y00351564D01*
X00775549Y00352938D01*
X00776727Y00354341D01*
X00777870Y00355773D01*
X00778978Y00357231D01*
X00780050Y00358717D01*
X00781086Y00360227D01*
X00782085Y00361763D01*
X00783047Y00363322D01*
X00783970Y00364904D01*
X00784855Y00366508D01*
X00785700Y00368133D01*
X00786506Y00369778D01*
X00787272Y00371442D01*
X00787997Y00373124D01*
X00788681Y00374824D01*
X00789324Y00376539D01*
X00789925Y00378270D01*
X00790484Y00380014D01*
X00791000Y00381772D01*
X00791473Y00383541D01*
X00791904Y00385322D01*
X00792291Y00387112D01*
X00792634Y00388912D01*
X00792934Y00390719D01*
X00793190Y00392533D01*
X00793401Y00394352D01*
X00793569Y00396176D01*
X00793692Y00398004D01*
X00793771Y00399834D01*
X00793805Y00401666D01*
X00802805Y00401666D01*
X00802806Y00401666D01*
X00802768Y00399613D01*
X00802681Y00397562D01*
X00802545Y00395514D01*
X00802358Y00393469D01*
X00802122Y00391430D01*
X00801836Y00389397D01*
X00801501Y00387371D01*
X00801117Y00385355D01*
X00800685Y00383348D01*
X00800203Y00381352D01*
X00799673Y00379369D01*
X00799095Y00377399D01*
X00798470Y00375444D01*
X00797797Y00373504D01*
X00797077Y00371582D01*
X00796311Y00369677D01*
X00795499Y00367792D01*
X00794641Y00365927D01*
X00793738Y00364083D01*
X00792790Y00362262D01*
X00791799Y00360464D01*
X00790764Y00358691D01*
X00789687Y00356944D01*
X00788567Y00355223D01*
X00787406Y00353530D01*
X00786204Y00351866D01*
X00784962Y00350232D01*
X00783680Y00348628D01*
X00782360Y00347055D01*
X00781003Y00345515D01*
X00779608Y00344009D01*
X00778177Y00342537D01*
X00776711Y00341100D01*
X00775210Y00339700D01*
X00773676Y00338336D01*
X00772109Y00337009D01*
X00770510Y00335722D01*
X00768880Y00334473D01*
X00767221Y00333264D01*
X00765532Y00332097D01*
X00763816Y00330970D01*
X00762073Y00329885D01*
X00760304Y00328844D01*
X00758511Y00327845D01*
X00758064Y00328682D01*
X00759837Y00329670D01*
X00761586Y00330700D01*
X00763309Y00331772D01*
X00765006Y00332886D01*
X00766675Y00334041D01*
X00768316Y00335236D01*
X00769927Y00336470D01*
X00771507Y00337743D01*
X00773056Y00339055D01*
X00774573Y00340403D01*
X00776057Y00341788D01*
X00777506Y00343209D01*
X00778921Y00344664D01*
X00780300Y00346153D01*
X00781642Y00347676D01*
X00782947Y00349230D01*
X00784214Y00350816D01*
X00785442Y00352432D01*
X00786630Y00354077D01*
X00787778Y00355751D01*
X00788885Y00357452D01*
X00789950Y00359180D01*
X00790973Y00360932D01*
X00791954Y00362710D01*
X00792890Y00364510D01*
X00793783Y00366333D01*
X00794631Y00368177D01*
X00795434Y00370041D01*
X00796192Y00371924D01*
X00796903Y00373824D01*
X00797569Y00375742D01*
X00798187Y00377675D01*
X00798759Y00379622D01*
X00799283Y00381583D01*
X00799759Y00383556D01*
X00800187Y00385540D01*
X00800566Y00387534D01*
X00800898Y00389536D01*
X00801180Y00391546D01*
X00801414Y00393562D01*
X00801598Y00395583D01*
X00801733Y00397609D01*
X00801820Y00399636D01*
X00801856Y00401666D01*
X00800907Y00401666D01*
X00800871Y00399660D01*
X00800786Y00397655D01*
X00800652Y00395653D01*
X00800469Y00393655D01*
X00800238Y00391662D01*
X00799959Y00389676D01*
X00799631Y00387696D01*
X00799256Y00385725D01*
X00798833Y00383764D01*
X00798362Y00381814D01*
X00797844Y00379876D01*
X00797279Y00377951D01*
X00796668Y00376040D01*
X00796010Y00374144D01*
X00795307Y00372265D01*
X00794558Y00370404D01*
X00793764Y00368562D01*
X00792925Y00366739D01*
X00792043Y00364937D01*
X00791117Y00363157D01*
X00790148Y00361401D01*
X00789137Y00359668D01*
X00788084Y00357960D01*
X00786989Y00356279D01*
X00785854Y00354624D01*
X00784680Y00352998D01*
X00783466Y00351400D01*
X00782214Y00349833D01*
X00780924Y00348296D01*
X00779597Y00346791D01*
X00778234Y00345319D01*
X00776836Y00343880D01*
X00775403Y00342476D01*
X00773936Y00341107D01*
X00772437Y00339774D01*
X00770906Y00338478D01*
X00769343Y00337219D01*
X00767751Y00335999D01*
X00766129Y00334817D01*
X00764479Y00333676D01*
X00762802Y00332574D01*
X00761099Y00331514D01*
X00759370Y00330496D01*
X00757618Y00329520D01*
X00757171Y00330357D01*
X00758903Y00331322D01*
X00760612Y00332329D01*
X00762295Y00333377D01*
X00763953Y00334465D01*
X00765583Y00335594D01*
X00767186Y00336761D01*
X00768760Y00337967D01*
X00770304Y00339212D01*
X00771818Y00340493D01*
X00773300Y00341810D01*
X00774749Y00343164D01*
X00776165Y00344552D01*
X00777547Y00345974D01*
X00778894Y00347429D01*
X00780206Y00348916D01*
X00781481Y00350435D01*
X00782718Y00351984D01*
X00783918Y00353563D01*
X00785079Y00355171D01*
X00786200Y00356806D01*
X00787282Y00358468D01*
X00788323Y00360156D01*
X00789322Y00361869D01*
X00790280Y00363605D01*
X00791195Y00365364D01*
X00792068Y00367145D01*
X00792896Y00368947D01*
X00793681Y00370768D01*
X00794421Y00372607D01*
X00795117Y00374464D01*
X00795767Y00376338D01*
X00796371Y00378226D01*
X00796930Y00380129D01*
X00797442Y00382045D01*
X00797907Y00383972D01*
X00798325Y00385911D01*
X00798696Y00387859D01*
X00799020Y00389815D01*
X00799296Y00391779D01*
X00799525Y00393748D01*
X00799705Y00395723D01*
X00799838Y00397702D01*
X00799922Y00399683D01*
X00799958Y00401666D01*
X00799009Y00401666D01*
X00798973Y00399706D01*
X00798890Y00397748D01*
X00798759Y00395793D01*
X00798580Y00393842D01*
X00798354Y00391895D01*
X00798081Y00389954D01*
X00797761Y00388021D01*
X00797394Y00386096D01*
X00796981Y00384181D01*
X00796521Y00382276D01*
X00796015Y00380382D01*
X00795463Y00378502D01*
X00794866Y00376636D01*
X00794223Y00374784D01*
X00793536Y00372949D01*
X00792804Y00371131D01*
X00792029Y00369332D01*
X00791210Y00367551D01*
X00790348Y00365791D01*
X00789443Y00364053D01*
X00788497Y00362337D01*
X00787509Y00360644D01*
X00786480Y00358976D01*
X00785412Y00357334D01*
X00784303Y00355718D01*
X00783156Y00354129D01*
X00781971Y00352569D01*
X00780747Y00351038D01*
X00779488Y00349537D01*
X00778192Y00348067D01*
X00776860Y00346628D01*
X00775495Y00345223D01*
X00774095Y00343851D01*
X00772663Y00342514D01*
X00771198Y00341212D01*
X00769703Y00339946D01*
X00768177Y00338716D01*
X00766621Y00337524D01*
X00765038Y00336370D01*
X00763426Y00335255D01*
X00761788Y00334179D01*
X00760125Y00333143D01*
X00758436Y00332148D01*
X00756724Y00331194D01*
X00756278Y00332032D01*
X00757969Y00332974D01*
X00759637Y00333958D01*
X00761281Y00334981D01*
X00762900Y00336044D01*
X00764492Y00337146D01*
X00766057Y00338287D01*
X00767593Y00339465D01*
X00769101Y00340680D01*
X00770579Y00341931D01*
X00772026Y00343218D01*
X00773441Y00344539D01*
X00774824Y00345895D01*
X00776174Y00347283D01*
X00777489Y00348704D01*
X00778769Y00350157D01*
X00780014Y00351640D01*
X00781223Y00353153D01*
X00782394Y00354695D01*
X00783528Y00356265D01*
X00784623Y00357862D01*
X00785679Y00359485D01*
X00786695Y00361133D01*
X00787671Y00362805D01*
X00788607Y00364501D01*
X00789500Y00366218D01*
X00790352Y00367957D01*
X00791161Y00369716D01*
X00791928Y00371495D01*
X00792651Y00373291D01*
X00793330Y00375104D01*
X00793965Y00376934D01*
X00794555Y00378778D01*
X00795100Y00380636D01*
X00795600Y00382506D01*
X00796055Y00384389D01*
X00796464Y00386281D01*
X00796826Y00388184D01*
X00797143Y00390094D01*
X00797413Y00392011D01*
X00797636Y00393935D01*
X00797812Y00395863D01*
X00797942Y00397795D01*
X00798025Y00399730D01*
X00798060Y00401666D01*
X00797111Y00401666D01*
X00797076Y00399753D01*
X00796994Y00397842D01*
X00796866Y00395933D01*
X00796691Y00394028D01*
X00796471Y00392128D01*
X00796204Y00390233D01*
X00795891Y00388346D01*
X00795533Y00386467D01*
X00795129Y00384597D01*
X00794680Y00382737D01*
X00794186Y00380889D01*
X00793647Y00379054D01*
X00793064Y00377232D01*
X00792436Y00375424D01*
X00791765Y00373633D01*
X00791051Y00371858D01*
X00790294Y00370101D01*
X00789494Y00368363D01*
X00788653Y00366645D01*
X00787770Y00364948D01*
X00786846Y00363273D01*
X00785882Y00361621D01*
X00784877Y00359993D01*
X00783834Y00358389D01*
X00782752Y00356812D01*
X00781632Y00355261D01*
X00780475Y00353737D01*
X00779281Y00352242D01*
X00778051Y00350777D01*
X00776786Y00349342D01*
X00775487Y00347938D01*
X00774153Y00346566D01*
X00772787Y00345227D01*
X00771389Y00343921D01*
X00769960Y00342650D01*
X00768500Y00341414D01*
X00767010Y00340213D01*
X00765492Y00339049D01*
X00763946Y00337923D01*
X00762373Y00336834D01*
X00760774Y00335783D01*
X00759150Y00334772D01*
X00757502Y00333801D01*
X00755831Y00332869D01*
X00755385Y00333707D01*
X00757035Y00334627D01*
X00758663Y00335586D01*
X00760267Y00336586D01*
X00761846Y00337623D01*
X00763400Y00338699D01*
X00764927Y00339812D01*
X00766427Y00340962D01*
X00767898Y00342148D01*
X00769340Y00343369D01*
X00770752Y00344625D01*
X00772133Y00345915D01*
X00773483Y00347238D01*
X00774800Y00348593D01*
X00776083Y00349980D01*
X00777333Y00351397D01*
X00778548Y00352845D01*
X00779727Y00354322D01*
X00780870Y00355826D01*
X00781977Y00357358D01*
X00783045Y00358917D01*
X00784076Y00360501D01*
X00785068Y00362109D01*
X00786020Y00363741D01*
X00786933Y00365396D01*
X00787805Y00367072D01*
X00788637Y00368770D01*
X00789426Y00370486D01*
X00790174Y00372222D01*
X00790880Y00373975D01*
X00791543Y00375744D01*
X00792163Y00377530D01*
X00792739Y00379329D01*
X00793271Y00381143D01*
X00793759Y00382968D01*
X00794203Y00384805D01*
X00794602Y00386652D01*
X00794956Y00388508D01*
X00795265Y00390373D01*
X00795529Y00392244D01*
X00795747Y00394121D01*
X00795920Y00396003D01*
X00796046Y00397888D01*
X00796127Y00399776D01*
X00796162Y00401666D01*
X00795213Y00401666D01*
X00795179Y00399800D01*
X00795098Y00397935D01*
X00794973Y00396073D01*
X00794803Y00394214D01*
X00794587Y00392360D01*
X00794327Y00390512D01*
X00794021Y00388671D01*
X00793672Y00386837D01*
X00793277Y00385013D01*
X00792839Y00383199D01*
X00792357Y00381396D01*
X00791831Y00379605D01*
X00791262Y00377828D01*
X00790650Y00376064D01*
X00789995Y00374317D01*
X00789298Y00372585D01*
X00788559Y00370871D01*
X00787779Y00369176D01*
X00786958Y00367499D01*
X00786096Y00365844D01*
X00785195Y00364209D01*
X00784254Y00362598D01*
X00783274Y00361009D01*
X00782257Y00359444D01*
X00781201Y00357905D01*
X00780108Y00356392D01*
X00778979Y00354906D01*
X00777815Y00353447D01*
X00776615Y00352018D01*
X00775381Y00350618D01*
X00774113Y00349248D01*
X00772812Y00347909D01*
X00771480Y00346603D01*
X00770116Y00345329D01*
X00768721Y00344088D01*
X00767297Y00342882D01*
X00765844Y00341711D01*
X00764363Y00340575D01*
X00762854Y00339475D01*
X00761320Y00338413D01*
X00759760Y00337388D01*
X00758176Y00336401D01*
X00756568Y00335453D01*
X00754938Y00334544D01*
X00754491Y00335381D01*
X00756101Y00336279D01*
X00757689Y00337215D01*
X00759253Y00338190D01*
X00760793Y00339202D01*
X00762309Y00340252D01*
X00763798Y00341337D01*
X00765260Y00342459D01*
X00766695Y00343616D01*
X00768102Y00344807D01*
X00769479Y00346032D01*
X00770826Y00347290D01*
X00772142Y00348581D01*
X00773426Y00349903D01*
X00774678Y00351255D01*
X00775897Y00352638D01*
X00777081Y00354050D01*
X00778232Y00355490D01*
X00779346Y00356958D01*
X00780425Y00358452D01*
X00781468Y00359972D01*
X00782473Y00361517D01*
X00783440Y00363086D01*
X00784369Y00364678D01*
X00785260Y00366292D01*
X00786110Y00367927D01*
X00786921Y00369582D01*
X00787692Y00371256D01*
X00788421Y00372949D01*
X00789109Y00374658D01*
X00789756Y00376384D01*
X00790361Y00378125D01*
X00790923Y00379881D01*
X00791442Y00381649D01*
X00791918Y00383430D01*
X00792351Y00385221D01*
X00792741Y00387023D01*
X00793086Y00388833D01*
X00793388Y00390651D01*
X00793645Y00392476D01*
X00793858Y00394307D01*
X00794027Y00396143D01*
X00794151Y00397982D01*
X00794230Y00399823D01*
X00794264Y00401666D01*
X00663343Y00466347D02*
X00669157Y00459476D01*
X00669156Y00459477D02*
X00667770Y00458259D01*
X00666415Y00457007D01*
X00665090Y00455723D01*
X00663798Y00454407D01*
X00662538Y00453059D01*
X00661311Y00451681D01*
X00660118Y00450274D01*
X00658960Y00448838D01*
X00657837Y00447374D01*
X00656751Y00445883D01*
X00655701Y00444366D01*
X00654688Y00442823D01*
X00653714Y00441257D01*
X00652778Y00439667D01*
X00651881Y00438054D01*
X00651024Y00436421D01*
X00650208Y00434766D01*
X00649431Y00433093D01*
X00648696Y00431400D01*
X00648003Y00429691D01*
X00647351Y00427965D01*
X00646742Y00426223D01*
X00646176Y00424468D01*
X00645652Y00422698D01*
X00645172Y00420917D01*
X00644736Y00419124D01*
X00644344Y00417322D01*
X00643995Y00415510D01*
X00643692Y00413690D01*
X00643432Y00411864D01*
X00643218Y00410031D01*
X00643048Y00408194D01*
X00642923Y00406353D01*
X00642843Y00404510D01*
X00642809Y00402666D01*
X00633809Y00402665D01*
X00633808Y00402665D01*
X00633846Y00404733D01*
X00633934Y00406800D01*
X00634073Y00408863D01*
X00634262Y00410923D01*
X00634501Y00412977D01*
X00634791Y00415025D01*
X00635131Y00417065D01*
X00635520Y00419097D01*
X00635959Y00421118D01*
X00636448Y00423127D01*
X00636985Y00425125D01*
X00637572Y00427108D01*
X00638206Y00429076D01*
X00638889Y00431029D01*
X00639619Y00432964D01*
X00640396Y00434881D01*
X00641220Y00436778D01*
X00642090Y00438654D01*
X00643006Y00440508D01*
X00643967Y00442340D01*
X00644973Y00444147D01*
X00646022Y00445929D01*
X00647115Y00447685D01*
X00648250Y00449414D01*
X00649428Y00451115D01*
X00650646Y00452786D01*
X00651905Y00454427D01*
X00653204Y00456036D01*
X00654542Y00457613D01*
X00655918Y00459157D01*
X00657332Y00460667D01*
X00658782Y00462142D01*
X00660267Y00463581D01*
X00661788Y00464983D01*
X00663342Y00466347D01*
X00663955Y00465623D01*
X00662419Y00464274D01*
X00660916Y00462888D01*
X00659447Y00461465D01*
X00658014Y00460007D01*
X00656616Y00458514D01*
X00655256Y00456988D01*
X00653933Y00455428D01*
X00652649Y00453837D01*
X00651404Y00452215D01*
X00650200Y00450563D01*
X00649036Y00448882D01*
X00647913Y00447173D01*
X00646833Y00445437D01*
X00645796Y00443675D01*
X00644802Y00441888D01*
X00643852Y00440077D01*
X00642946Y00438244D01*
X00642086Y00436389D01*
X00641272Y00434514D01*
X00640503Y00432619D01*
X00639781Y00430706D01*
X00639106Y00428776D01*
X00638479Y00426830D01*
X00637899Y00424869D01*
X00637368Y00422894D01*
X00636885Y00420907D01*
X00636451Y00418909D01*
X00636065Y00416901D01*
X00635730Y00414884D01*
X00635443Y00412860D01*
X00635206Y00410829D01*
X00635019Y00408793D01*
X00634882Y00406753D01*
X00634795Y00404710D01*
X00634757Y00402665D01*
X00635707Y00402665D01*
X00635743Y00404686D01*
X00635830Y00406706D01*
X00635966Y00408722D01*
X00636151Y00410735D01*
X00636385Y00412742D01*
X00636668Y00414744D01*
X00637000Y00416737D01*
X00637381Y00418722D01*
X00637810Y00420697D01*
X00638288Y00422661D01*
X00638813Y00424613D01*
X00639386Y00426551D01*
X00640006Y00428475D01*
X00640673Y00430383D01*
X00641387Y00432274D01*
X00642147Y00434147D01*
X00642952Y00436000D01*
X00643802Y00437834D01*
X00644697Y00439646D01*
X00645636Y00441436D01*
X00646619Y00443202D01*
X00647644Y00444944D01*
X00648712Y00446660D01*
X00649821Y00448349D01*
X00650972Y00450011D01*
X00652163Y00451644D01*
X00653393Y00453248D01*
X00654662Y00454821D01*
X00655970Y00456362D01*
X00657314Y00457871D01*
X00658695Y00459347D01*
X00660112Y00460788D01*
X00661564Y00462195D01*
X00663050Y00463565D01*
X00664568Y00464899D01*
X00665181Y00464174D01*
X00663680Y00462856D01*
X00662212Y00461501D01*
X00660777Y00460111D01*
X00659377Y00458687D01*
X00658012Y00457228D01*
X00656683Y00455737D01*
X00655391Y00454213D01*
X00654137Y00452659D01*
X00652921Y00451074D01*
X00651744Y00449460D01*
X00650607Y00447817D01*
X00649511Y00446147D01*
X00648455Y00444451D01*
X00647442Y00442730D01*
X00646471Y00440984D01*
X00645543Y00439215D01*
X00644658Y00437424D01*
X00643818Y00435612D01*
X00643022Y00433780D01*
X00642271Y00431929D01*
X00641566Y00430060D01*
X00640906Y00428174D01*
X00640293Y00426273D01*
X00639727Y00424357D01*
X00639208Y00422428D01*
X00638736Y00420487D01*
X00638311Y00418535D01*
X00637935Y00416573D01*
X00637607Y00414603D01*
X00637326Y00412625D01*
X00637095Y00410641D01*
X00636912Y00408652D01*
X00636778Y00406659D01*
X00636692Y00404663D01*
X00636656Y00402665D01*
X00637605Y00402666D01*
X00637641Y00404639D01*
X00637725Y00406611D01*
X00637858Y00408581D01*
X00638039Y00410547D01*
X00638268Y00412508D01*
X00638545Y00414462D01*
X00638870Y00416409D01*
X00639242Y00418348D01*
X00639661Y00420277D01*
X00640128Y00422195D01*
X00640641Y00424101D01*
X00641201Y00425994D01*
X00641806Y00427873D01*
X00642458Y00429736D01*
X00643155Y00431583D01*
X00643897Y00433413D01*
X00644684Y00435223D01*
X00645514Y00437014D01*
X00646388Y00438784D01*
X00647305Y00440532D01*
X00648265Y00442257D01*
X00649266Y00443959D01*
X00650309Y00445635D01*
X00651393Y00447285D01*
X00652516Y00448908D01*
X00653679Y00450503D01*
X00654881Y00452069D01*
X00656120Y00453606D01*
X00657397Y00455111D01*
X00658710Y00456585D01*
X00660059Y00458027D01*
X00661443Y00459435D01*
X00662860Y00460808D01*
X00664311Y00462147D01*
X00665794Y00463450D01*
X00666407Y00462725D01*
X00664942Y00461438D01*
X00663509Y00460115D01*
X00662108Y00458758D01*
X00660741Y00457367D01*
X00659408Y00455942D01*
X00658111Y00454486D01*
X00656849Y00452998D01*
X00655625Y00451480D01*
X00654437Y00449932D01*
X00653288Y00448356D01*
X00652178Y00446752D01*
X00651108Y00445122D01*
X00650077Y00443466D01*
X00649088Y00441785D01*
X00648140Y00440080D01*
X00647234Y00438353D01*
X00646370Y00436604D01*
X00645549Y00434835D01*
X00644772Y00433046D01*
X00644039Y00431238D01*
X00643350Y00429413D01*
X00642707Y00427572D01*
X00642108Y00425716D01*
X00641555Y00423845D01*
X00641048Y00421962D01*
X00640587Y00420067D01*
X00640172Y00418161D01*
X00639804Y00416245D01*
X00639484Y00414321D01*
X00639210Y00412390D01*
X00638984Y00410453D01*
X00638805Y00408510D01*
X00638673Y00406564D01*
X00638590Y00404616D01*
X00638554Y00402666D01*
X00639503Y00402666D01*
X00639538Y00404592D01*
X00639621Y00406517D01*
X00639751Y00408440D01*
X00639928Y00410359D01*
X00640152Y00412273D01*
X00640422Y00414181D01*
X00640739Y00416081D01*
X00641102Y00417974D01*
X00641512Y00419857D01*
X00641968Y00421729D01*
X00642469Y00423590D01*
X00643015Y00425437D01*
X00643607Y00427271D01*
X00644243Y00429090D01*
X00644923Y00430893D01*
X00645647Y00432679D01*
X00646415Y00434446D01*
X00647226Y00436194D01*
X00648079Y00437922D01*
X00648974Y00439629D01*
X00649911Y00441312D01*
X00650889Y00442973D01*
X00651906Y00444609D01*
X00652964Y00446220D01*
X00654061Y00447805D01*
X00655196Y00449362D01*
X00656368Y00450891D01*
X00657578Y00452391D01*
X00658824Y00453860D01*
X00660106Y00455299D01*
X00661423Y00456706D01*
X00662773Y00458081D01*
X00664157Y00459422D01*
X00665573Y00460729D01*
X00667020Y00462001D01*
X00667633Y00461276D01*
X00666204Y00460020D01*
X00664805Y00458729D01*
X00663438Y00457404D01*
X00662104Y00456046D01*
X00660804Y00454656D01*
X00659538Y00453235D01*
X00658307Y00451783D01*
X00657112Y00450301D01*
X00655954Y00448791D01*
X00654833Y00447253D01*
X00653750Y00445688D01*
X00652705Y00444097D01*
X00651700Y00442480D01*
X00650734Y00440840D01*
X00649809Y00439177D01*
X00648925Y00437491D01*
X00648082Y00435784D01*
X00647281Y00434058D01*
X00646523Y00432312D01*
X00645807Y00430548D01*
X00645135Y00428767D01*
X00644507Y00426971D01*
X00643922Y00425159D01*
X00643383Y00423334D01*
X00642887Y00421496D01*
X00642437Y00419646D01*
X00642033Y00417787D01*
X00641674Y00415917D01*
X00641361Y00414040D01*
X00641093Y00412155D01*
X00640872Y00410265D01*
X00640697Y00408369D01*
X00640569Y00406470D01*
X00640487Y00404569D01*
X00640452Y00402666D01*
X00641401Y00402666D01*
X00641436Y00404545D01*
X00641517Y00406423D01*
X00641644Y00408299D01*
X00641817Y00410171D01*
X00642035Y00412038D01*
X00642299Y00413899D01*
X00642609Y00415753D01*
X00642963Y00417599D01*
X00643363Y00419436D01*
X00643807Y00421263D01*
X00644296Y00423078D01*
X00644830Y00424881D01*
X00645407Y00426670D01*
X00646027Y00428444D01*
X00646691Y00430203D01*
X00647398Y00431945D01*
X00648147Y00433669D01*
X00648938Y00435375D01*
X00649770Y00437060D01*
X00650643Y00438725D01*
X00651557Y00440368D01*
X00652511Y00441988D01*
X00653504Y00443584D01*
X00654535Y00445155D01*
X00655605Y00446701D01*
X00656712Y00448220D01*
X00657856Y00449712D01*
X00659036Y00451175D01*
X00660252Y00452609D01*
X00661502Y00454013D01*
X00662786Y00455386D01*
X00664103Y00456727D01*
X00665453Y00458036D01*
X00666834Y00459311D01*
X00668247Y00460552D01*
X00668860Y00459827D01*
X00667465Y00458602D01*
X00666101Y00457343D01*
X00664769Y00456050D01*
X00663468Y00454726D01*
X00662200Y00453370D01*
X00660966Y00451984D01*
X00659765Y00450568D01*
X00658600Y00449123D01*
X00657470Y00447650D01*
X00656377Y00446150D01*
X00655321Y00444623D01*
X00654302Y00443071D01*
X00653322Y00441495D01*
X00652380Y00439895D01*
X00651478Y00438273D01*
X00650616Y00436629D01*
X00649794Y00434965D01*
X00649013Y00433281D01*
X00648273Y00431578D01*
X00647575Y00429858D01*
X00646920Y00428121D01*
X00646307Y00426369D01*
X00645737Y00424602D01*
X00645210Y00422822D01*
X00644727Y00421030D01*
X00644288Y00419226D01*
X00643894Y00417412D01*
X00643543Y00415589D01*
X00643238Y00413758D01*
X00642977Y00411920D01*
X00642761Y00410077D01*
X00642590Y00408228D01*
X00642465Y00406376D01*
X00642385Y00404522D01*
X00642350Y00402666D01*
M02*
