G75*
%MOIN*%
%OFA0B0*%
%FSLAX26Y26*%
%IPPOS*%
%LPD*%
%AMOC8*
5,1,8,0,0,1.08239X$1,22.5*
%
%ADD10C,0.067500*%
%ADD11C,0.170000*%
%ADD12R,0.078000X0.022000*%
%ADD13R,0.061000X0.030000*%
%ADD14R,0.061000X0.047000*%
%ADD15R,0.047244X0.027559*%
%ADD16R,0.070866X0.062992*%
%ADD17R,0.151575X0.057087*%
%ADD18R,0.027559X0.047244*%
%ADD19R,0.055039X0.055039*%
%ADD20C,0.055039*%
%ADD21C,0.039622*%
%ADD22C,0.019685*%
%ADD23C,0.016000*%
D10*
X00441811Y00411921D03*
X00329811Y00465921D03*
X00441811Y00520921D03*
X00329811Y00575921D03*
X00441811Y00629921D03*
X00329811Y00683921D03*
X00441811Y00738921D03*
X00329811Y00793921D03*
X00441811Y00847921D03*
D11*
X00385811Y00132921D03*
X00385811Y01126921D03*
D12*
X01296701Y00704921D03*
X01296701Y00654921D03*
X01296701Y00604921D03*
X01296701Y00554921D03*
X01490701Y00554921D03*
X01490701Y00604921D03*
X01490701Y00654921D03*
X01490701Y00704921D03*
D13*
X01440689Y00842689D03*
X01440689Y00933689D03*
D14*
X01335689Y00888189D03*
D15*
X00925197Y00774803D03*
X00779528Y00774803D03*
X00778740Y00519291D03*
X00924409Y00519291D03*
D16*
X01580709Y00327953D03*
X01580709Y00217717D03*
X01587402Y00805512D03*
X01722441Y00805118D03*
X01722441Y00915354D03*
X01587402Y00915748D03*
D17*
X01130709Y01037795D03*
X00851181Y01037795D03*
X00849606Y00209843D03*
X01129134Y00209843D03*
D18*
X01353150Y00214567D03*
X01458268Y00216535D03*
X01458268Y00362205D03*
X01353150Y00360236D03*
D19*
X02004724Y00729921D03*
D20*
X02084646Y00689921D03*
X02004724Y00649921D03*
X02084724Y00609921D03*
X02004724Y00569921D03*
X02084646Y00529921D03*
D21*
X01773622Y00500000D03*
X01588583Y00606299D03*
X01352362Y00456693D03*
X01200787Y00598425D03*
X01200787Y00655512D03*
X01019685Y00604331D03*
X00712598Y00765748D03*
X00566929Y00917323D03*
X00612205Y01039370D03*
X01265748Y00887795D03*
X01503937Y00777559D03*
X01990157Y00944882D03*
X02082677Y00944882D03*
X01722441Y01068898D03*
X01720472Y00092520D03*
D22*
X01354331Y00092520D01*
X01354331Y00214567D01*
X01353150Y00214567D01*
X01353150Y00209843D01*
X01129134Y00209843D01*
X01129134Y00519685D01*
X01129134Y00554921D01*
X01296701Y00554921D01*
X01296701Y00604921D02*
X01397638Y00604921D01*
X01397638Y00500000D01*
X01773622Y00500000D01*
X01773622Y00805118D01*
X01722441Y00805118D01*
X01588583Y00805512D02*
X01588583Y00606299D01*
X01490701Y00704921D02*
X01440689Y00704921D01*
X01440689Y00774803D01*
X01440689Y00775591D01*
X01503937Y00775591D01*
X01503937Y00777559D01*
X01440689Y00775591D02*
X01440689Y00842689D01*
X01440689Y00842520D01*
X01500000Y00842520D01*
X01500000Y00915748D01*
X01587402Y00915748D01*
X01722441Y00915354D02*
X01722441Y01011811D01*
X01722441Y01068898D01*
X01722441Y01011811D02*
X01438976Y01011811D01*
X01438976Y00933689D01*
X01440689Y00933689D01*
X01335689Y00888189D02*
X01265748Y00888189D01*
X01265748Y00887795D01*
X01130709Y00774803D02*
X01440689Y00774803D01*
X01587402Y00805512D02*
X01588583Y00805512D01*
X01296701Y00704921D02*
X01019685Y00704921D01*
X01019685Y00604331D01*
X01019685Y00598425D01*
X01200787Y00598425D01*
X01200787Y00655512D02*
X01296701Y00655512D01*
X01296701Y00654921D01*
X01130709Y00774803D02*
X01130709Y01037795D01*
X00851181Y01037795D02*
X00850394Y01037795D01*
X00850394Y01122047D01*
X00851181Y01039370D02*
X00851181Y01037795D01*
X00851181Y00209843D01*
X00849606Y00209843D01*
X01353150Y00360236D02*
X01353150Y00456693D01*
X01352362Y00456693D01*
X01458661Y00456693D01*
X01458661Y00362205D01*
X01458268Y00362205D01*
X01580709Y00327953D02*
X01816929Y00327953D01*
X01580709Y00217717D02*
X01580709Y00216535D01*
X01458268Y00216535D01*
X00568898Y00515748D02*
X00568898Y00917323D01*
X00566929Y00917323D01*
X00612205Y01039370D02*
X00851181Y01039370D01*
X00779528Y00774803D02*
X00779528Y00765748D01*
X00712598Y00765748D01*
X00925197Y00774803D02*
X01130709Y00774803D01*
X02082677Y00944882D02*
X02086614Y00944882D01*
D23*
X02082677Y00944882D02*
X02082677Y01122047D01*
X00850394Y01122047D01*
X01816929Y00944882D02*
X01816929Y00327953D01*
X01128740Y00519291D02*
X00924409Y00519291D01*
X00778740Y00519291D02*
X00778738Y00519175D01*
X00778732Y00519059D01*
X00778723Y00518944D01*
X00778710Y00518829D01*
X00778693Y00518714D01*
X00778672Y00518600D01*
X00778647Y00518486D01*
X00778619Y00518374D01*
X00778587Y00518263D01*
X00778552Y00518152D01*
X00778513Y00518043D01*
X00778470Y00517935D01*
X00778424Y00517829D01*
X00778375Y00517724D01*
X00778322Y00517621D01*
X00778265Y00517520D01*
X00778206Y00517420D01*
X00778143Y00517323D01*
X00778077Y00517227D01*
X00778008Y00517134D01*
X00777936Y00517043D01*
X00777861Y00516955D01*
X00777783Y00516869D01*
X00777702Y00516786D01*
X00777619Y00516705D01*
X00777533Y00516627D01*
X00777445Y00516552D01*
X00777354Y00516480D01*
X00777261Y00516411D01*
X00777165Y00516345D01*
X00777068Y00516282D01*
X00776969Y00516223D01*
X00776867Y00516166D01*
X00776764Y00516113D01*
X00776659Y00516064D01*
X00776553Y00516018D01*
X00776445Y00515975D01*
X00776336Y00515936D01*
X00776225Y00515901D01*
X00776114Y00515869D01*
X00776002Y00515841D01*
X00775888Y00515816D01*
X00775774Y00515795D01*
X00775659Y00515778D01*
X00775544Y00515765D01*
X00775429Y00515756D01*
X00775313Y00515750D01*
X00775197Y00515748D01*
X00568898Y00515748D01*
X00568900Y00515864D01*
X00568906Y00515980D01*
X00568915Y00516095D01*
X00568928Y00516210D01*
X00568945Y00516325D01*
X00568966Y00516439D01*
X00568991Y00516553D01*
X00569019Y00516665D01*
X00569051Y00516776D01*
X00569086Y00516887D01*
X00569125Y00516996D01*
X00569168Y00517104D01*
X00569214Y00517210D01*
X00569263Y00517315D01*
X00569316Y00517418D01*
X00569373Y00517520D01*
X00569432Y00517619D01*
X00569495Y00517716D01*
X00569561Y00517812D01*
X00569630Y00517905D01*
X00569702Y00517996D01*
X00569777Y00518084D01*
X00569855Y00518170D01*
X00569936Y00518253D01*
X00570019Y00518334D01*
X00570105Y00518412D01*
X00570193Y00518487D01*
X00570284Y00518559D01*
X00570377Y00518628D01*
X00570473Y00518694D01*
X00570570Y00518757D01*
X00570670Y00518816D01*
X00570771Y00518873D01*
X00570874Y00518926D01*
X00570979Y00518975D01*
X00571085Y00519021D01*
X00571193Y00519064D01*
X00571302Y00519103D01*
X00571413Y00519138D01*
X00571524Y00519170D01*
X00571636Y00519198D01*
X00571750Y00519223D01*
X00571864Y00519244D01*
X00571979Y00519261D01*
X00572094Y00519274D01*
X00572209Y00519283D01*
X00572325Y00519289D01*
X00572441Y00519291D01*
X01128740Y00519291D02*
X01128779Y00519293D01*
X01128817Y00519299D01*
X01128854Y00519308D01*
X01128891Y00519321D01*
X01128926Y00519338D01*
X01128959Y00519357D01*
X01128990Y00519380D01*
X01129019Y00519406D01*
X01129045Y00519435D01*
X01129068Y00519466D01*
X01129087Y00519499D01*
X01129104Y00519534D01*
X01129117Y00519571D01*
X01129126Y00519608D01*
X01129132Y00519646D01*
X01129134Y00519685D01*
X01816929Y00944882D02*
X01990157Y00944882D01*
M02*
